# Blender 4.3.2
# www.blender.org
mtllib safe_screen.mtl
o safe_screen
v -0.049185 -0.012198 -0.000642
v -0.048496 -0.012198 -0.001331
v -0.048496 -0.012887 -0.000642
v -0.048983 -0.012198 -0.001129
v -0.048894 -0.012596 -0.001039
v -0.048496 -0.012685 -0.001129
v -0.048983 -0.012685 -0.000642
v -0.049185 0.012198 -0.000642
v -0.048496 0.012887 -0.000642
v -0.048496 0.012198 -0.001331
v -0.048983 0.012685 -0.000642
v -0.048894 0.012596 -0.001039
v -0.048496 0.012685 -0.001129
v -0.048983 0.012198 -0.001129
v 0.049185 0.012198 -0.000642
v 0.048496 0.012198 -0.001331
v 0.048496 0.012887 -0.000642
v 0.048983 0.012198 -0.001129
v 0.048894 0.012596 -0.001039
v 0.048496 0.012685 -0.001129
v 0.048983 0.012685 -0.000642
v 0.049185 -0.012198 -0.000642
v 0.048496 -0.012887 -0.000642
v 0.048496 -0.012198 -0.001331
v 0.048983 -0.012685 -0.000642
v 0.048894 -0.012596 -0.001039
v 0.048496 -0.012685 -0.001129
v 0.048983 -0.012198 -0.001129
v -0.046281 -0.009294 0.000214
v -0.046971 -0.010673 0.000903
v -0.045592 -0.009984 0.000214
v -0.046483 -0.009984 0.000701
v -0.046281 -0.009984 0.000612
v -0.046281 -0.010185 0.000701
v -0.046080 -0.009782 0.000214
v -0.046281 0.009294 0.000214
v -0.045592 0.009984 0.000214
v -0.046971 0.010673 0.000903
v -0.046080 0.009782 0.000214
v -0.046281 0.009984 0.000612
v -0.046281 0.010185 0.000701
v -0.046483 0.009984 0.000701
v 0.046281 0.009294 0.000214
v 0.046971 0.010673 0.000903
v 0.045592 0.009984 0.000214
v 0.046483 0.009984 0.000701
v 0.046281 0.009984 0.000612
v 0.046281 0.010185 0.000701
v 0.046080 0.009782 0.000214
v 0.046281 -0.009294 0.000214
v 0.045592 -0.009984 0.000214
v 0.046971 -0.010673 0.000903
v 0.046080 -0.009782 0.000214
v 0.046281 -0.009984 0.000612
v 0.046281 -0.010185 0.000701
v 0.046483 -0.009984 0.000701
v -0.049185 -0.012198 0.000214
v -0.048496 -0.012887 0.000214
v -0.048496 -0.012198 0.000903
v -0.048983 -0.012685 0.000214
v -0.048894 -0.012596 0.000612
v -0.048496 -0.012685 0.000701
v -0.048983 -0.012198 0.000701
v -0.048496 0.012198 0.000903
v -0.048496 0.012887 0.000214
v -0.049185 0.012198 0.000214
v -0.048496 0.012685 0.000701
v -0.048894 0.012596 0.000612
v -0.048983 0.012685 0.000214
v -0.048983 0.012198 0.000701
v 0.049185 0.012198 0.000214
v 0.048496 0.012887 0.000214
v 0.048496 0.012198 0.000903
v 0.048983 0.012685 0.000214
v 0.048894 0.012596 0.000612
v 0.048496 0.012685 0.000701
v 0.048983 0.012198 0.000701
v 0.048496 -0.012198 0.000903
v 0.048496 -0.012887 0.000214
v 0.049185 -0.012198 0.000214
v 0.048496 -0.012685 0.000701
v 0.048894 -0.012596 0.000612
v 0.048983 -0.012685 0.000214
v 0.048983 -0.012198 0.000701
v -0.046281 -0.009294 0.000214
v -0.045592 -0.009984 0.000214
v -0.045592 -0.009294 -0.000475
v -0.046080 -0.009782 0.000214
v -0.045990 -0.009692 -0.000184
v -0.045592 -0.009782 -0.000273
v -0.046080 -0.009294 -0.000273
v -0.046281 0.009294 0.000214
v -0.045592 0.009294 -0.000475
v -0.045592 0.009984 0.000214
v -0.046080 0.009294 -0.000273
v -0.045990 0.009692 -0.000184
v -0.045592 0.009782 -0.000273
v -0.046080 0.009782 0.000214
v 0.046281 0.009294 0.000214
v 0.045592 0.009984 0.000214
v 0.045592 0.009294 -0.000475
v 0.046080 0.009782 0.000214
v 0.045990 0.009692 -0.000184
v 0.045592 0.009782 -0.000273
v 0.046080 0.009294 -0.000273
v 0.046281 -0.009294 0.000214
v 0.045592 -0.009294 -0.000475
v 0.045592 -0.009984 0.000214
v 0.046080 -0.009294 -0.000273
v 0.045990 -0.009692 -0.000184
v 0.045592 -0.009782 -0.000273
v 0.046080 -0.009782 0.000214
vn -0.0000 -1.0000 -0.0000
vn -0.0000 -0.0000 1.0000
vn -0.0000 -0.0000 -1.0000
vn 1.0000 -0.0000 -0.0000
vn -0.0000 1.0000 -0.0000
vn -1.0000 -0.0000 -0.0000
vn -0.8881 -0.3251 -0.3251
vn -0.3251 -0.3251 -0.8881
vn -0.3251 -0.8881 -0.3251
vn -0.8881 0.3251 -0.3251
vn -0.3251 0.8881 -0.3251
vn -0.3251 0.3251 -0.8881
vn 0.8881 0.3251 -0.3251
vn 0.3251 0.3251 -0.8881
vn 0.3251 0.8881 -0.3251
vn 0.8881 -0.3251 -0.3251
vn 0.3251 -0.8881 -0.3251
vn 0.3251 -0.3251 -0.8881
vn 0.6225 0.3913 0.6778
vn 0.2025 0.2025 0.9581
vn 0.3913 0.6225 0.6778
vn 0.6225 -0.3913 0.6778
vn 0.3913 -0.6225 0.6778
vn 0.2025 -0.2025 0.9581
vn -0.6225 -0.3913 0.6778
vn -0.2025 -0.2025 0.9581
vn -0.3913 -0.6225 0.6778
vn -0.6225 0.3913 0.6778
vn -0.3913 0.6225 0.6778
vn -0.2025 0.2025 0.9581
vn -0.8881 -0.3251 0.3251
vn -0.3251 -0.8881 0.3251
vn -0.3251 -0.3251 0.8881
vn -0.3250 0.3250 0.8881
vn -0.3250 0.8881 0.3250
vn -0.8881 0.3250 0.3250
vn 0.8881 0.3251 0.3251
vn 0.3251 0.8881 0.3251
vn 0.3251 0.3251 0.8881
vn 0.3250 -0.3250 0.8881
vn 0.3250 -0.8881 0.3250
vn 0.8881 -0.3250 0.3250
vn 0.8881 -0.3251 0.3251
vn 0.3251 -0.3251 0.8881
vn 0.3251 -0.8881 0.3251
vn -0.8881 -0.3251 0.3250
vn -0.8881 0.3251 0.3250
vn -0.3251 0.3251 0.8881
vn -0.3251 0.8881 0.3251
vn -0.9239 -0.0000 -0.3827
vn -0.3827 -0.0000 -0.9239
vn 0.9239 -0.0000 -0.3827
vn 0.3827 -0.0000 -0.9239
vn -0.0000 -0.9239 -0.3827
vn -0.0000 -0.3827 -0.9239
vn -0.0000 0.9239 -0.3827
vn -0.0000 0.3827 -0.9239
vn -0.3827 -0.0000 0.9239
vn -0.9239 -0.0000 0.3827
vn 0.3827 -0.0000 0.9239
vn 0.9239 -0.0000 0.3827
vn -0.0000 -0.3827 0.9239
vn -0.0000 -0.9239 0.3827
vn -0.0000 0.3827 0.9239
vn -0.0000 0.9239 0.3827
vn -0.3827 -0.9239 -0.0000
vn -0.9239 -0.3827 -0.0000
vn -0.3827 0.9239 -0.0000
vn -0.9239 0.3827 -0.0000
vn 0.3827 0.9239 -0.0000
vn 0.9239 0.3827 -0.0000
vn 0.3827 -0.9239 -0.0000
vn 0.9239 -0.3827 -0.0000
vn -0.0312 0.0131 -0.9994
vn -0.3820 0.9241 -0.0000
vn 0.9307 0.3657 -0.0000
vn 0.3820 0.9241 -0.0000
vn 0.3877 -0.9218 -0.0000
vn 0.9361 -0.3517 -0.0000
vn -0.0312 -0.0131 -0.9994
vn -0.3820 -0.9241 -0.0000
vt 0.389350 0.987240
vt 0.389350 0.762760
vt 0.389350 0.762760
vt 0.389350 0.987240
vt 0.408362 0.766290
vt 0.408362 0.983710
vt 0.395267 0.987240
vt 0.395267 0.762760
vt 0.604733 0.987240
vt 0.604733 0.762760
vt 0.579804 0.982115
vt 0.420196 0.982115
vt 0.610650 0.762760
vt 0.610650 0.987240
vt 0.610650 0.987240
vt 0.610650 0.762760
vt 0.395267 0.761165
vt 0.604733 0.761165
vt 0.414279 0.980520
vt 0.414279 0.769480
vt 0.420196 0.769480
vt 0.579804 0.769480
vt 0.579804 0.980520
vt 0.420196 0.980520
vt 0.585721 0.769480
vt 0.585721 0.980520
vt 0.420196 0.767885
vt 0.579804 0.767885
vt 0.591638 0.983710
vt 0.604733 0.987240
vt 0.591638 0.983710
vt 0.591638 0.766290
vt 0.604733 0.762760
vt 0.591638 0.766290
vt 0.395267 0.988835
vt 0.395267 0.988835
vt 0.390183 0.988610
vt 0.389350 0.988835
vt 0.395267 0.988835
vt 0.389350 0.987240
vt 0.604733 0.988835
vt 0.610650 0.988835
vt 0.609817 0.988610
vt 0.604733 0.988835
vt 0.604733 0.761165
vt 0.609817 0.761390
vt 0.610650 0.761165
vt 0.604733 0.761165
vt 0.389350 0.761165
vt 0.390183 0.761390
vt 0.395267 0.761165
vt 0.389350 0.762760
vt 0.395267 0.761165
vt 0.414279 0.982115
vt 0.414279 0.982115
vt 0.585721 0.982115
vt 0.585721 0.982115
vt 0.585721 0.767885
vt 0.585721 0.767885
vt 0.414279 0.767885
vt 0.414279 0.767885
vt 0.395267 0.988835
vt 0.610650 0.987240
vt 0.609817 0.761390
vt 0.610650 0.762760
vt 0.395267 0.761165
vt 0.389350 0.762760
vt 0.415112 0.981891
vt 0.414279 0.980520
vt 0.420196 0.982115
vt 0.579804 0.982115
vt 0.584887 0.981891
vt 0.585721 0.980520
vt 0.585721 0.980520
vt 0.584887 0.768109
vt 0.579804 0.767885
vt 0.585721 0.769480
vt 0.420196 0.767885
vt 0.415113 0.768110
vt 0.414279 0.769480
vt 0.420196 0.767885
vt 0.414279 0.769480
vt 0.395267 0.761165
vt 0.389350 0.762760
vt 0.610650 0.987240
s 0
f 3/1/1 23/2/1 79/3/1 58/4/1
f 52/5/2 30/6/2 59/7/2 78/8/2
f 24/8/3 2/7/3 10/9/3 16/10/3
f 36/11/4 29/12/4 85/12/4 92/11/4
f 17/13/5 9/14/5 65/15/5 72/16/5
f 22/17/4 15/18/4 71/18/4 80/17/4
f 31/19/5 51/20/5 108/20/5 86/19/5
f 107/21/2 101/22/2 93/23/2 87/24/2
f 45/25/1 37/26/1 94/26/1 100/25/1
f 50/27/6 43/28/6 99/28/6 106/27/6
f 30/6/2 38/29/2 64/30/2 59/7/2
f 38/31/2 44/32/2 73/33/2 64/30/2
f 44/34/2 52/5/2 78/8/2 73/33/2
f 1/35/7 4/36/7 5/37/7 7/38/7
f 2/7/8 6/4/8 5/37/8 4/39/8
f 3/1/9 7/38/9 5/37/9 6/40/9
f 8/41/10 11/42/10 12/43/10 14/44/10
f 9/14/11 13/14/11 12/43/11 11/42/11
f 10/9/12 14/41/12 12/43/12 13/14/12
f 15/18/13 18/45/13 19/46/13 21/47/13
f 16/10/14 20/16/14 19/46/14 18/48/14
f 17/13/15 21/47/15 19/46/15 20/16/15
f 22/17/16 25/49/16 26/50/16 28/51/16
f 23/2/17 27/52/17 26/50/17 25/49/17
f 24/8/18 28/53/18 26/50/18 27/52/18
f 29/12/19 32/54/19 33/55/19 35/54/19
f 30/6/20 34/54/20 33/55/20 32/54/20
f 31/19/21 35/54/21 33/55/21 34/54/21
f 36/11/22 39/56/22 40/57/22 42/56/22
f 37/26/23 41/56/23 40/57/23 39/56/23
f 38/29/24 42/56/24 40/57/24 41/56/24
f 43/28/25 46/58/25 47/59/25 49/58/25
f 44/32/26 48/58/26 47/59/26 46/58/26
f 45/25/27 49/58/27 47/59/27 48/58/27
f 50/27/28 53/60/28 54/61/28 56/60/28
f 51/20/29 55/60/29 54/61/29 53/60/29
f 52/5/30 56/60/30 54/61/30 55/60/30
f 57/62/31 60/38/31 61/37/31 63/39/31
f 58/4/32 62/4/32 61/37/32 60/38/32
f 59/7/33 63/36/33 61/37/33 62/4/33
f 64/30/34 67/14/34 68/43/34 70/41/34
f 65/15/35 69/42/35 68/43/35 67/63/35
f 66/41/36 70/41/36 68/43/36 69/42/36
f 71/18/37 74/47/37 75/64/37 77/48/37
f 72/16/38 76/16/38 75/64/38 74/47/38
f 73/33/39 77/45/39 75/64/39 76/65/39
f 78/8/40 81/52/40 82/50/40 84/66/40
f 79/3/41 83/49/41 82/50/41 81/67/41
f 80/17/42 84/53/42 82/50/42 83/49/42
f 85/12/37 88/54/37 89/68/37 91/12/37
f 86/19/38 90/69/38 89/68/38 88/54/38
f 87/24/39 91/70/39 89/68/39 90/69/39
f 92/11/43 95/71/43 96/72/43 98/56/43
f 93/23/44 97/73/44 96/72/44 95/11/44
f 94/26/45 98/56/45 96/72/45 97/74/45
f 99/28/46 102/58/46 103/75/46 105/76/46
f 100/25/32 104/77/32 103/75/32 102/58/32
f 101/22/33 105/28/33 103/75/33 104/77/33
f 106/27/47 109/78/47 110/79/47 112/60/47
f 107/21/48 111/80/48 110/79/48 109/81/48
f 108/20/49 112/60/49 110/79/49 111/82/49
f 1/35/50 8/41/50 14/41/50 4/36/50
f 4/36/51 14/41/51 10/9/51 2/7/51
f 15/18/52 22/17/52 28/83/52 18/45/52
f 18/45/53 28/83/53 24/8/53 16/10/53
f 23/2/54 3/1/54 6/4/54 27/52/54
f 27/52/55 6/4/55 2/7/55 24/8/55
f 9/14/56 17/13/56 20/16/56 13/14/56
f 13/14/57 20/16/57 16/10/57 10/9/57
f 59/7/58 64/30/58 70/41/58 63/36/58
f 63/36/59 70/41/59 66/41/59 57/62/59
f 73/33/60 78/8/60 84/83/60 77/45/60
f 77/45/61 84/83/61 80/17/61 71/18/61
f 78/8/62 59/7/62 62/4/62 81/84/62
f 81/84/63 62/4/63 58/4/63 79/3/63
f 64/30/64 73/33/64 76/16/64 67/85/64
f 67/85/65 76/16/65 72/16/65 65/15/65
f 3/1/66 58/4/66 60/38/66 7/38/66
f 7/38/67 60/38/67 57/62/67 1/35/67
f 65/15/68 9/14/68 11/42/68 69/42/68
f 69/42/69 11/42/69 8/41/69 66/41/69
f 17/13/70 72/16/70 74/47/70 21/47/70
f 21/47/71 74/47/71 71/18/71 15/18/71
f 79/3/72 23/2/72 25/49/72 83/49/72
f 83/49/73 25/49/73 22/17/73 80/17/73
f 29/12/61 36/11/61 42/56/61 32/54/61
f 32/54/60 42/56/60 38/29/60 30/6/60
f 43/28/59 50/27/59 56/60/59 46/58/59
f 46/58/58 56/60/58 52/5/58 44/34/58
f 51/20/65 31/19/65 34/54/65 55/60/65
f 55/60/64 34/54/64 30/6/64 52/5/64
f 37/26/63 45/25/63 48/58/63 41/56/63
f 41/56/62 48/58/62 44/32/62 38/31/62
f 87/24/60 93/23/60 95/71/60 91/70/60
f 91/70/61 95/71/61 92/11/61 85/12/61
f 101/22/58 107/21/58 109/27/58 105/76/58
f 105/76/59 109/27/59 106/27/59 99/28/59
f 107/21/64 87/24/64 90/69/64 111/82/64
f 111/82/65 90/69/65 86/19/65 108/20/65
f 93/23/62 101/22/62 104/77/62 97/74/62
f 97/74/63 104/77/63 100/25/63 94/26/63
f 50/27/74 106/27/74 112/60/74 53/60/74
f 53/60/75 112/60/75 108/20/75 51/20/75
f 85/12/76 29/12/76 35/54/76 88/54/76
f 88/54/77 35/54/77 31/19/77 86/19/77
f 94/26/78 37/26/78 39/56/78 98/56/78
f 98/56/79 39/56/79 36/11/79 92/11/79
f 99/28/80 43/28/80 49/58/80 102/58/80
f 102/58/81 49/58/81 45/25/81 100/25/81
f 8/41/6 1/35/6 57/62/6 66/41/6
