# Blender 4.3.2
# www.blender.org
mtllib safe_keys_panel.mtl
o safe_buttons
v -0.048847 -0.058681 -0.003144
v -0.045923 -0.058681 -0.006068
v -0.045923 -0.061605 -0.003144
v -0.047991 -0.058681 -0.005212
v -0.047611 -0.060369 -0.004832
v -0.045923 -0.060749 -0.005212
v -0.047991 -0.060749 -0.003144
v -0.048847 0.058146 -0.003144
v -0.045923 0.061071 -0.003144
v -0.045923 0.058146 -0.006068
v -0.047991 0.060214 -0.003144
v -0.047611 0.059835 -0.004832
v -0.045923 0.060214 -0.005212
v -0.047991 0.058146 -0.005212
v 0.049247 0.058146 -0.003144
v 0.046323 0.058146 -0.006068
v 0.046323 0.061071 -0.003144
v 0.048390 0.058146 -0.005212
v 0.048011 0.059835 -0.004832
v 0.046323 0.060214 -0.005212
v 0.048390 0.060214 -0.003144
v 0.049247 -0.058681 -0.003144
v 0.046323 -0.061605 -0.003144
v 0.046323 -0.058681 -0.006068
v 0.048390 -0.060749 -0.003144
v 0.048011 -0.060369 -0.004832
v 0.046323 -0.060749 -0.005212
v 0.048390 -0.058681 -0.005212
v -0.048847 -0.058681 -0.003144
v -0.045923 -0.061605 -0.003144
v -0.045923 -0.058681 -0.000220
v -0.047991 -0.060749 -0.003144
v -0.047611 -0.060369 -0.001456
v -0.045923 -0.060749 -0.001077
v -0.047991 -0.058681 -0.001077
v -0.048847 0.058146 -0.003144
v -0.045923 0.058146 -0.000220
v -0.045923 0.061071 -0.003144
v -0.047991 0.058146 -0.001077
v -0.047611 0.059835 -0.001456
v -0.045923 0.060214 -0.001077
v -0.047991 0.060214 -0.003144
v 0.049247 0.058146 -0.003144
v 0.046323 0.061071 -0.003144
v 0.046323 0.058146 -0.000220
v 0.048390 0.060214 -0.003144
v 0.048011 0.059835 -0.001456
v 0.046323 0.060214 -0.001077
v 0.048390 0.058146 -0.001077
v 0.049247 -0.058681 -0.003144
v 0.046323 -0.058681 -0.000220
v 0.046323 -0.061605 -0.003144
v 0.048390 -0.058681 -0.001077
v 0.048011 -0.060369 -0.001456
v 0.046323 -0.060749 -0.001077
v 0.048390 -0.060749 -0.003144
vn -0.0000 -1.0000 -0.0000
vn -0.0000 1.0000 -0.0000
vn -0.0000 -0.0000 -1.0000
vn 1.0000 -0.0000 -0.0000
vn -0.0000 -0.0000 1.0000
vn -0.8881 -0.3251 -0.3251
vn -0.3251 -0.3251 -0.8881
vn -0.3251 -0.8881 -0.3251
vn -0.8881 0.3251 -0.3251
vn -0.3251 0.8881 -0.3251
vn -0.3251 0.3251 -0.8881
vn 0.8881 0.3251 -0.3251
vn 0.3251 0.3251 -0.8881
vn 0.3251 0.8881 -0.3251
vn 0.8881 -0.3251 -0.3251
vn 0.3251 -0.8881 -0.3251
vn 0.3251 -0.3251 -0.8881
vn -0.8881 -0.3251 0.3251
vn -0.3251 -0.8881 0.3251
vn -0.3251 -0.3251 0.8881
vn -0.8881 0.3251 0.3251
vn -0.3251 0.3251 0.8881
vn -0.3251 0.8881 0.3251
vn 0.8881 0.3251 0.3251
vn 0.3251 0.8881 0.3251
vn 0.3251 0.3251 0.8881
vn 0.8881 -0.3251 0.3251
vn 0.3251 -0.3251 0.8881
vn 0.3251 -0.8881 0.3251
vn -0.9239 -0.0000 -0.3827
vn -0.3827 -0.0000 -0.9239
vn 0.9239 -0.0000 -0.3827
vn 0.3827 -0.0000 -0.9239
vn -0.0000 -0.3827 -0.9239
vn -0.0000 -0.9239 -0.3827
vn -0.0000 0.3827 -0.9239
vn -0.0000 0.9239 -0.3827
vn -0.3827 -0.0000 0.9239
vn -0.9239 -0.0000 0.3827
vn 0.3827 -0.0000 0.9239
vn 0.9239 -0.0000 0.3827
vn -0.0000 -0.9239 0.3827
vn -0.0000 -0.3827 0.9239
vn -0.0000 0.9239 0.3827
vn -0.0000 0.3827 0.9239
vn 0.9042 -0.4271 -0.0000
vn 0.4016 -0.9158 -0.0000
vn -0.9826 -0.1856 -0.0000
vn -0.4807 -0.8769 -0.0000
vn -0.4016 0.9158 -0.0000
vn -0.9538 0.3003 -0.0000
vn 0.9355 0.3535 -0.0000
vn 0.4807 0.8769 -0.0000
vn -1.0000 -0.0000 -0.0000
vt 0.389350 0.982049
vt 0.389350 0.767952
vt 0.610650 0.767951
vt 0.610650 0.982048
vt 0.610650 0.767951
vt 0.394625 0.767952
vt 0.394625 0.982048
vt 0.605375 0.982048
vt 0.605375 0.767951
vt 0.394624 0.761165
vt 0.605375 0.761165
vt 0.605375 0.761165
vt 0.394625 0.761165
vt 0.605376 0.767951
vt 0.394625 0.982049
vt 0.394625 0.988835
vt 0.394625 0.988835
vt 0.390093 0.987879
vt 0.389350 0.988835
vt 0.389350 0.982049
vt 0.605375 0.988835
vt 0.610650 0.988835
vt 0.609907 0.987879
vt 0.605375 0.988835
vt 0.610650 0.982049
vt 0.605375 0.761165
vt 0.609907 0.762121
vt 0.610650 0.761165
vt 0.610650 0.767952
vt 0.389350 0.761165
vt 0.390093 0.762121
vt 0.389350 0.761165
vt 0.394625 0.761165
vt 0.389350 0.767952
vt 0.394624 0.988835
vt 0.610650 0.761165
vt 0.605376 0.761165
vt 0.610650 0.767951
s 0
usemtl Base
f 3/1/1 23/2/1 52/2/1 30/1/1
f 17/3/2 9/4/2 38/4/2 44/5/2
f 24/6/3 2/7/3 10/8/3 16/9/3
f 22/10/4 15/11/4 43/12/4 50/13/4
f 51/6/5 45/14/5 37/8/5 31/15/5
f 1/16/6 4/17/6 5/18/6 7/19/6
f 2/7/7 6/20/7 5/18/7 4/16/7
f 3/1/8 7/19/8 5/18/8 6/20/8
f 8/21/9 11/22/9 12/23/9 14/24/9
f 9/4/10 13/25/10 12/23/10 11/22/10
f 10/8/11 14/24/11 12/23/11 13/25/11
f 15/11/12 18/26/12 19/27/12 21/28/12
f 16/9/13 20/5/13 19/27/13 18/26/13
f 17/3/14 21/28/14 19/27/14 20/29/14
f 22/10/15 25/30/15 26/31/15 28/13/15
f 23/2/16 27/2/16 26/31/16 25/32/16
f 24/6/17 28/33/17 26/31/17 27/34/17
f 29/35/18 32/19/18 33/18/18 35/16/18
f 30/1/19 34/20/19 33/18/19 32/19/19
f 31/15/20 35/17/20 33/18/20 34/20/20
f 36/21/21 39/24/21 40/23/21 42/22/21
f 37/8/22 41/25/22 40/23/22 39/24/22
f 38/4/23 42/22/23 40/23/23 41/25/23
f 43/12/24 46/28/24 47/27/24 49/26/24
f 44/5/25 48/5/25 47/27/25 46/36/25
f 45/14/26 49/37/26 47/27/26 48/29/26
f 50/13/27 53/33/27 54/31/27 56/30/27
f 51/6/28 55/2/28 54/31/28 53/13/28
f 52/2/29 56/30/29 54/31/29 55/34/29
f 1/16/30 8/21/30 14/24/30 4/17/30
f 4/17/31 14/24/31 10/8/31 2/7/31
f 15/11/32 22/10/32 28/33/32 18/26/32
f 18/26/33 28/33/33 24/6/33 16/9/33
f 2/7/34 24/6/34 27/34/34 6/20/34
f 6/20/35 27/34/35 23/2/35 3/1/35
f 16/9/36 10/8/36 13/25/36 20/38/36
f 20/38/37 13/25/37 9/4/37 17/3/37
f 31/15/38 37/8/38 39/24/38 35/17/38
f 35/17/39 39/24/39 36/21/39 29/35/39
f 45/14/40 51/6/40 53/33/40 49/37/40
f 49/37/41 53/33/41 50/13/41 43/12/41
f 30/1/42 52/2/42 55/34/42 34/20/42
f 34/20/43 55/34/43 51/6/43 31/15/43
f 44/5/44 38/4/44 41/25/44 48/38/44
f 48/38/45 41/25/45 37/8/45 45/14/45
f 22/10/46 50/13/46 56/30/46 25/32/46
f 25/32/47 56/30/47 52/2/47 23/2/47
f 29/35/48 1/16/48 7/19/48 32/19/48
f 32/19/49 7/19/49 3/1/49 30/1/49
f 38/4/50 9/4/50 11/22/50 42/22/50
f 42/22/51 11/22/51 8/21/51 36/21/51
f 43/12/52 15/11/52 21/28/52 46/36/52
f 46/36/53 21/28/53 17/3/53 44/5/53
f 8/21/54 1/16/54 29/35/54 36/21/54
