# Blender 4.3.2
# www.blender.org
mtllib safe_keys_01.mtl
o safe_buttons.001
v -0.042006 0.031316 0.000262
v -0.040889 0.031316 -0.000855
v -0.040889 0.030199 0.000262
v -0.041679 0.031316 -0.000528
v -0.041534 0.030671 -0.000383
v -0.040889 0.030526 -0.000528
v -0.041679 0.030526 0.000262
v -0.042006 0.054856 0.000262
v -0.040889 0.055973 0.000262
v -0.040889 0.054856 -0.000855
v -0.041679 0.055646 0.000262
v -0.041534 0.055501 -0.000383
v -0.040889 0.055646 -0.000528
v -0.041679 0.054856 -0.000528
v -0.016609 0.054856 0.000262
v -0.017726 0.054856 -0.000855
v -0.017726 0.055973 0.000262
v -0.016936 0.054856 -0.000528
v -0.017081 0.055501 -0.000383
v -0.017726 0.055646 -0.000528
v -0.016936 0.055646 0.000262
v -0.016609 0.031316 0.000262
v -0.017726 0.030199 0.000262
v -0.017726 0.031316 -0.000855
v -0.016936 0.030526 0.000262
v -0.017081 0.030671 -0.000383
v -0.017726 0.030526 -0.000528
v -0.016936 0.031316 -0.000528
v -0.042006 0.031316 0.000262
v -0.040889 0.030199 0.000262
v -0.040889 0.031316 0.001379
v -0.041679 0.030526 0.000262
v -0.041534 0.030671 0.000907
v -0.040889 0.030526 0.001052
v -0.041679 0.031316 0.001052
v -0.042006 0.054856 0.000262
v -0.040889 0.054856 0.001379
v -0.040889 0.055973 0.000262
v -0.041679 0.054856 0.001052
v -0.041534 0.055501 0.000907
v -0.040889 0.055646 0.001052
v -0.041679 0.055646 0.000262
v -0.016609 0.054856 0.000262
v -0.017726 0.055973 0.000262
v -0.017726 0.054856 0.001379
v -0.016936 0.055646 0.000262
v -0.017081 0.055501 0.000907
v -0.017726 0.055646 0.001052
v -0.016936 0.054856 0.001052
v -0.016609 0.031316 0.000262
v -0.017726 0.031316 0.001379
v -0.017726 0.030199 0.000262
v -0.016936 0.031316 0.001052
v -0.017081 0.030671 0.000907
v -0.017726 0.030526 0.001052
v -0.016936 0.030526 0.000262
vn -0.0000 -1.0000 -0.0000
vn -0.0000 -0.0000 1.0000
vn -0.0000 1.0000 -0.0000
vn 1.0000 -0.0000 -0.0000
vn -0.0000 -0.0000 -1.0000
vn -0.8881 -0.3251 -0.3251
vn -0.3251 -0.3251 -0.8881
vn -0.3251 -0.8881 -0.3251
vn -0.8881 0.3251 -0.3251
vn -0.3251 0.8881 -0.3251
vn -0.3251 0.3251 -0.8881
vn 0.8881 0.3251 -0.3251
vn 0.3251 0.3251 -0.8881
vn 0.3251 0.8881 -0.3251
vn 0.8881 -0.3251 -0.3251
vn 0.3251 -0.8881 -0.3251
vn 0.3251 -0.3251 -0.8881
vn -0.8881 -0.3251 0.3251
vn -0.3251 -0.8881 0.3251
vn -0.3251 -0.3251 0.8881
vn -0.8881 0.3251 0.3251
vn -0.3251 0.3251 0.8881
vn -0.3251 0.8881 0.3251
vn 0.8881 0.3251 0.3251
vn 0.3251 0.8881 0.3251
vn 0.3251 0.3251 0.8881
vn 0.8881 -0.3251 0.3251
vn 0.3251 -0.3251 0.8881
vn 0.3251 -0.8881 0.3251
vn -0.9239 -0.0000 -0.3827
vn -0.3827 -0.0000 -0.9239
vn 0.9239 -0.0000 -0.3827
vn 0.3827 -0.0000 -0.9239
vn -0.0000 -0.3827 -0.9239
vn -0.0000 -0.9239 -0.3827
vn -0.0000 0.3827 -0.9239
vn -0.0000 0.9239 -0.3827
vn -0.3827 -0.0000 0.9239
vn -0.9239 -0.0000 0.3827
vn 0.3827 -0.0000 0.9239
vn 0.9239 -0.0000 0.3827
vn -0.0000 -0.9239 0.3827
vn -0.0000 -0.3827 0.9239
vn -0.0000 0.9239 0.3827
vn -0.0000 0.3827 0.9239
vn 0.3827 0.9239 -0.0000
vn 0.9239 0.3827 -0.0000
vn 0.3827 -0.9239 -0.0000
vn 0.9239 -0.3827 -0.0000
vn -0.9239 -0.3827 -0.0000
vn -0.3827 -0.9239 -0.0000
vn -0.9239 0.3827 -0.0000
vn -0.3827 0.9239 -0.0000
vn -1.0000 -0.0000 -0.0000
vt 0.301044 0.397113
vt 0.447617 0.397113
vt 0.116375 0.800487
vt 0.116375 0.950799
vt 0.033178 0.950799
vt 0.033178 0.800487
vt 0.374331 0.264706
vt 0.374331 0.529520
vt 0.447617 0.264706
vt 0.301044 0.264706
vt 0.301044 0.529520
vt 0.447617 0.529520
vt 0.374331 0.264706
vt 0.381398 0.264706
vt 0.381398 0.257452
vt 0.374331 0.252142
vt 0.301044 0.252142
vt 0.296964 0.252142
vt 0.293977 0.264706
vt 0.293977 0.397113
vt 0.293977 0.404367
vt 0.301044 0.409677
vt 0.374331 0.529520
vt 0.374331 0.542084
vt 0.378411 0.542084
vt 0.381398 0.529520
vt 0.296964 0.409677
vt 0.293977 0.529520
vt 0.293977 0.536774
vt 0.301044 0.542084
vt 0.381398 0.536774
vt 0.447617 0.542084
vt 0.451698 0.542084
vt 0.454685 0.529520
vt 0.454685 0.397113
vt 0.454685 0.404367
vt 0.447617 0.409677
vt 0.378411 0.252142
vt 0.451698 0.409677
vt 0.454685 0.264706
vt 0.454685 0.257452
vt 0.447617 0.252142
vt 0.370250 0.252142
vt 0.367263 0.264706
vt 0.301044 0.384549
vt 0.296964 0.384549
vt 0.029167 0.800487
vt 0.029167 0.796370
vt 0.033178 0.793356
vt 0.367263 0.529520
vt 0.367263 0.536774
vt 0.033178 0.957930
vt 0.030862 0.957930
vt 0.029167 0.950799
vt 0.293977 0.389859
vt 0.370250 0.542084
vt 0.367263 0.529520
vt 0.447617 0.384549
vt 0.451698 0.384549
vt 0.120387 0.950799
vt 0.120387 0.954916
vt 0.116375 0.957931
vt 0.367263 0.257452
vt 0.116375 0.793356
vt 0.118691 0.793356
vt 0.120387 0.800487
vt 0.454685 0.389859
s 0
usemtl Numbers
f 3/1/1 23/2/1 52/2/1 30/1/1
f 51/3/2 45/4/2 37/5/2 31/6/2
f 17/2/3 9/1/3 38/1/3 44/2/3
f 22/7/4 15/8/4 43/8/4 50/7/4
f 24/9/5 2/10/5 10/11/5 16/12/5
f 1/13/6 4/14/6 5/15/6 7/16/6
f 2/10/7 6/17/7 5/18/7 4/19/7
f 3/1/8 7/20/8 5/21/8 6/22/8
f 8/23/9 11/24/9 12/25/9 14/26/9
f 9/1/10 13/22/10 12/27/10 11/20/10
f 10/11/11 14/28/11 12/29/11 13/30/11
f 15/8/12 18/26/12 19/31/12 21/24/12
f 16/12/13 20/32/13 19/33/13 18/34/13
f 17/2/14 21/35/14 19/36/14 20/37/14
f 22/7/15 25/16/15 26/38/15 28/14/15
f 23/2/16 27/37/16 26/39/16 25/35/16
f 24/9/17 28/40/17 26/41/17 27/42/17
f 29/13/18 32/16/18 33/43/18 35/44/18
f 30/1/19 34/45/19 33/46/19 32/20/19
f 31/6/20 35/47/20 33/48/20 34/49/20
f 36/23/21 39/50/21 40/51/21 42/24/21
f 37/5/22 41/52/22 40/53/22 39/54/22
f 38/1/23 42/20/23 40/55/23 41/45/23
f 43/8/24 46/24/24 47/56/24 49/57/24
f 44/2/25 48/58/25 47/59/25 46/35/25
f 45/4/26 49/60/26 47/61/26 48/62/26
f 50/7/27 53/44/27 54/63/27 56/16/27
f 51/3/28 55/64/28 54/65/28 53/66/28
f 52/2/29 56/35/29 54/67/29 55/58/29
f 1/13/30 8/23/30 14/26/30 4/14/30
f 4/19/31 14/28/31 10/11/31 2/10/31
f 15/8/32 22/7/32 28/14/32 18/26/32
f 18/34/33 28/40/33 24/9/33 16/12/33
f 2/10/34 24/9/34 27/42/34 6/17/34
f 6/22/35 27/37/35 23/2/35 3/1/35
f 16/12/36 10/11/36 13/30/36 20/32/36
f 20/37/37 13/22/37 9/1/37 17/2/37
f 31/6/38 37/5/38 39/54/38 35/47/38
f 35/44/39 39/50/39 36/23/39 29/13/39
f 45/4/40 51/3/40 53/66/40 49/60/40
f 49/57/41 53/44/41 50/7/41 43/8/41
f 30/1/42 52/2/42 55/58/42 34/45/42
f 34/49/43 55/64/43 51/3/43 31/6/43
f 44/2/44 38/1/44 41/45/44 48/58/44
f 48/62/45 41/52/45 37/5/45 45/4/45
f 17/2/46 44/2/46 46/35/46 21/35/46
f 21/24/47 46/24/47 43/8/47 15/8/47
f 52/2/48 23/2/48 25/35/48 56/35/48
f 56/16/49 25/16/49 22/7/49 50/7/49
f 29/13/50 1/13/50 7/16/50 32/16/50
f 32/20/51 7/20/51 3/1/51 30/1/51
f 8/23/52 36/23/52 42/24/52 11/24/52
f 11/20/53 42/20/53 38/1/53 9/1/53
f 8/23/54 1/13/54 29/13/54 36/23/54
