# Blender 4.3.2
# www.blender.org
mtllib safe_keys_000.mtl
o safe_buttons.000
v -0.012448 -0.054714 0.000262
v -0.011331 -0.054714 -0.000855
v -0.011331 -0.055831 0.000262
v -0.012121 -0.054714 -0.000528
v -0.011976 -0.055359 -0.000383
v -0.011331 -0.055504 -0.000528
v -0.012121 -0.055504 0.000262
v -0.012448 -0.031174 0.000262
v -0.011331 -0.030057 0.000262
v -0.011331 -0.031174 -0.000855
v -0.012121 -0.030384 0.000262
v -0.011976 -0.030529 -0.000383
v -0.011331 -0.030384 -0.000528
v -0.012121 -0.031174 -0.000528
v 0.012949 -0.031174 0.000262
v 0.011832 -0.031174 -0.000855
v 0.011832 -0.030057 0.000262
v 0.012622 -0.031174 -0.000528
v 0.012477 -0.030529 -0.000383
v 0.011832 -0.030384 -0.000528
v 0.012622 -0.030384 0.000262
v 0.012949 -0.054714 0.000262
v 0.011832 -0.055831 0.000262
v 0.011832 -0.054714 -0.000855
v 0.012622 -0.055504 0.000262
v 0.012477 -0.055359 -0.000383
v 0.011832 -0.055504 -0.000528
v 0.012622 -0.054714 -0.000528
v -0.012448 -0.054714 0.000262
v -0.011331 -0.055831 0.000262
v -0.011331 -0.054714 0.001379
v -0.012121 -0.055504 0.000262
v -0.011976 -0.055359 0.000907
v -0.011331 -0.055504 0.001052
v -0.012121 -0.054714 0.001052
v -0.012448 -0.031174 0.000262
v -0.011331 -0.031174 0.001379
v -0.011331 -0.030057 0.000262
v -0.012121 -0.031174 0.001052
v -0.011976 -0.030529 0.000907
v -0.011331 -0.030384 0.001052
v -0.012121 -0.030384 0.000262
v 0.012949 -0.031174 0.000262
v 0.011832 -0.030057 0.000262
v 0.011832 -0.031174 0.001379
v 0.012622 -0.030384 0.000262
v 0.012477 -0.030529 0.000907
v 0.011832 -0.030384 0.001052
v 0.012622 -0.031174 0.001052
v 0.012949 -0.054714 0.000262
v 0.011832 -0.054714 0.001379
v 0.011832 -0.055831 0.000262
v 0.012622 -0.054714 0.001052
v 0.012477 -0.055359 0.000907
v 0.011832 -0.055504 0.001052
v 0.012622 -0.055504 0.000262
vn -0.0000 -1.0000 -0.0000
vn -0.0000 -0.0000 -1.0000
vn -0.0000 -0.0000 1.0000
vn -0.0000 1.0000 -0.0000
vn 1.0000 -0.0000 -0.0000
vn -0.8881 -0.3251 -0.3251
vn -0.3251 -0.3251 -0.8881
vn -0.3251 -0.8881 -0.3251
vn -0.8881 0.3251 -0.3251
vn -0.3251 0.8881 -0.3251
vn -0.3251 0.3251 -0.8881
vn 0.8881 0.3251 -0.3251
vn 0.3251 0.3251 -0.8881
vn 0.3251 0.8881 -0.3251
vn 0.8881 -0.3251 -0.3251
vn 0.3251 -0.8881 -0.3251
vn 0.3251 -0.3251 -0.8881
vn -0.8881 -0.3251 0.3251
vn -0.3251 -0.8881 0.3251
vn -0.3251 -0.3251 0.8881
vn -0.8881 0.3251 0.3251
vn -0.3251 0.3251 0.8881
vn -0.3251 0.8881 0.3251
vn 0.8881 0.3251 0.3251
vn 0.3251 0.8881 0.3251
vn 0.3251 0.3251 0.8881
vn 0.8881 -0.3251 0.3251
vn 0.3251 -0.3251 0.8881
vn 0.3251 -0.8881 0.3251
vn -0.9239 -0.0000 -0.3827
vn -0.3827 -0.0000 -0.9239
vn 0.9239 -0.0000 -0.3827
vn 0.3827 -0.0000 -0.9239
vn -0.0000 -0.9239 -0.3827
vn -0.0000 -0.3827 -0.9239
vn -0.0000 0.9239 -0.3827
vn -0.0000 0.3827 -0.9239
vn -0.3827 -0.0000 0.9239
vn -0.9239 -0.0000 0.3827
vn 0.3827 -0.0000 0.9239
vn 0.9239 -0.0000 0.3827
vn -0.0000 -0.3827 0.9239
vn -0.0000 -0.9239 0.3827
vn -0.0000 0.3827 0.9239
vn -0.0000 0.9239 0.3827
vn -0.3827 -0.9239 -0.0000
vn -0.9239 -0.3827 -0.0000
vn -0.3827 0.9239 -0.0000
vn -0.9239 0.3827 -0.0000
vn 0.3827 0.9239 -0.0000
vn 0.9239 0.3827 -0.0000
vn 0.3827 -0.9239 -0.0000
vn 0.9239 -0.3827 -0.0000
vn -1.0000 -0.0000 -0.0000
vt 0.146872 0.548787
vt 0.168568 0.548787
vt 0.221283 0.612656
vt 0.153684 0.612656
vt 0.153684 0.734786
vt 0.221283 0.734786
vt 0.177892 0.548787
vt 0.137548 0.548787
vt 0.137548 0.548787
vt 0.157720 0.512342
vt 0.157720 0.585232
vt 0.157720 0.529188
vt 0.158766 0.529188
vt 0.158766 0.528114
vt 0.157720 0.527328
vt 0.153684 0.606861
vt 0.151802 0.606861
vt 0.150425 0.612656
vt 0.145826 0.548787
vt 0.145826 0.549861
vt 0.146872 0.550647
vt 0.157720 0.568386
vt 0.157720 0.570246
vt 0.158324 0.570246
vt 0.158766 0.568386
vt 0.137548 0.552245
vt 0.136425 0.552245
vt 0.135603 0.548787
vt 0.150425 0.734786
vt 0.150425 0.738132
vt 0.153684 0.740581
vt 0.159665 0.585232
vt 0.159665 0.587228
vt 0.157720 0.588690
vt 0.221283 0.740581
vt 0.223165 0.740581
vt 0.224542 0.734786
vt 0.179837 0.548787
vt 0.179837 0.550784
vt 0.177892 0.552245
vt 0.157720 0.508884
vt 0.158843 0.508884
vt 0.159665 0.512342
vt 0.168568 0.550647
vt 0.169172 0.550647
vt 0.169614 0.548787
vt 0.224542 0.612656
vt 0.224542 0.609311
vt 0.221283 0.606861
vt 0.157116 0.527328
vt 0.156674 0.529188
vt 0.146872 0.546927
vt 0.146268 0.546927
vt 0.145826 0.548787
vt 0.150425 0.612656
vt 0.150425 0.609311
vt 0.153684 0.606861
vt 0.156674 0.568386
vt 0.156674 0.569460
vt 0.153684 0.740581
vt 0.151802 0.740581
vt 0.135603 0.546790
vt 0.137548 0.545329
vt 0.157720 0.588690
vt 0.156597 0.588690
vt 0.155775 0.585232
vt 0.177892 0.545329
vt 0.179015 0.545329
vt 0.224542 0.738132
vt 0.221283 0.740581
vt 0.155775 0.512342
vt 0.155775 0.510346
vt 0.221283 0.606861
vt 0.223165 0.606861
vt 0.169614 0.547713
vt 0.168568 0.546927
s 0
usemtl Numbers
f 3/1/1 23/2/1 52/2/1 30/1/1
f 24/3/2 2/4/2 10/5/2 16/6/2
f 51/3/3 45/6/3 37/5/3 31/4/3
f 17/7/4 9/8/4 38/9/4 44/7/4
f 22/10/5 15/11/5 43/11/5 50/10/5
f 1/12/6 4/13/6 5/14/6 7/15/6
f 2/4/7 6/16/7 5/17/7 4/18/7
f 3/1/8 7/19/8 5/20/8 6/21/8
f 8/22/9 11/23/9 12/24/9 14/25/9
f 9/8/10 13/26/10 12/27/10 11/28/10
f 10/5/11 14/29/11 12/30/11 13/31/11
f 15/11/12 18/32/12 19/33/12 21/34/12
f 16/6/13 20/35/13 19/36/13 18/37/13
f 17/7/14 21/38/14 19/39/14 20/40/14
f 22/10/15 25/41/15 26/42/15 28/43/15
f 23/2/16 27/44/16 26/45/16 25/46/16
f 24/3/17 28/47/17 26/48/17 27/49/17
f 29/12/18 32/15/18 33/50/18 35/51/18
f 30/1/19 34/52/19 33/53/19 32/54/19
f 31/4/20 35/55/20 33/56/20 34/57/20
f 36/22/21 39/58/21 40/59/21 42/23/21
f 37/5/22 41/60/22 40/61/22 39/29/22
f 38/9/23 42/28/23 40/62/23 41/63/23
f 43/11/24 46/64/24 47/65/24 49/66/24
f 44/7/25 48/67/25 47/68/25 46/38/25
f 45/6/26 49/37/26 47/69/26 48/70/26
f 50/10/27 53/71/27 54/72/27 56/41/27
f 51/3/28 55/73/28 54/74/28 53/47/28
f 52/2/29 56/46/29 54/75/29 55/76/29
f 1/12/30 8/22/30 14/25/30 4/13/30
f 4/18/31 14/29/31 10/5/31 2/4/31
f 15/11/32 22/10/32 28/43/32 18/32/32
f 18/37/33 28/47/33 24/3/33 16/6/33
f 23/2/34 3/1/34 6/21/34 27/44/34
f 27/49/35 6/16/35 2/4/35 24/3/35
f 9/8/36 17/7/36 20/40/36 13/26/36
f 13/31/37 20/35/37 16/6/37 10/5/37
f 31/4/38 37/5/38 39/29/38 35/55/38
f 35/51/39 39/58/39 36/22/39 29/12/39
f 45/6/40 51/3/40 53/47/40 49/37/40
f 49/66/41 53/71/41 50/10/41 43/11/41
f 51/3/42 31/4/42 34/57/42 55/73/42
f 55/76/43 34/52/43 30/1/43 52/2/43
f 37/5/44 45/6/44 48/70/44 41/60/44
f 41/63/45 48/67/45 44/7/45 38/9/45
f 3/1/46 30/1/46 32/54/46 7/19/46
f 7/15/47 32/15/47 29/12/47 1/12/47
f 38/9/48 9/8/48 11/28/48 42/28/48
f 42/23/49 11/23/49 8/22/49 36/22/49
f 17/7/50 44/7/50 46/38/50 21/38/50
f 21/34/51 46/64/51 43/11/51 15/11/51
f 52/2/52 23/2/52 25/46/52 56/46/52
f 56/41/53 25/41/53 22/10/53 50/10/53
f 8/22/54 1/12/54 29/12/54 36/22/54
