# Blender 4.3.2
# www.blender.org
mtllib safe_keys_006.mtl
o safe_buttons.006
v 0.016309 0.002526 0.000262
v 0.017426 0.002526 -0.000855
v 0.017426 0.001409 0.000262
v 0.016636 0.002526 -0.000528
v 0.016781 0.001881 -0.000383
v 0.017426 0.001736 -0.000528
v 0.016636 0.001736 0.000262
v 0.016309 0.026066 0.000262
v 0.017426 0.027183 0.000262
v 0.017426 0.026066 -0.000855
v 0.016636 0.026855 0.000262
v 0.016781 0.026711 -0.000383
v 0.017426 0.026855 -0.000528
v 0.016636 0.026066 -0.000528
v 0.041706 0.026066 0.000262
v 0.040589 0.026066 -0.000855
v 0.040589 0.027183 0.000262
v 0.041379 0.026066 -0.000528
v 0.041234 0.026711 -0.000383
v 0.040589 0.026855 -0.000528
v 0.041379 0.026855 0.000262
v 0.041706 0.002526 0.000262
v 0.040589 0.001409 0.000262
v 0.040589 0.002526 -0.000855
v 0.041379 0.001736 0.000262
v 0.041234 0.001881 -0.000383
v 0.040589 0.001736 -0.000528
v 0.041379 0.002526 -0.000528
v 0.016309 0.002526 0.000262
v 0.017426 0.001409 0.000262
v 0.017426 0.002526 0.001379
v 0.016636 0.001736 0.000262
v 0.016781 0.001881 0.000907
v 0.017426 0.001736 0.001052
v 0.016636 0.002526 0.001052
v 0.016309 0.026066 0.000262
v 0.017426 0.026066 0.001379
v 0.017426 0.027183 0.000262
v 0.016636 0.026066 0.001052
v 0.016781 0.026711 0.000907
v 0.017426 0.026855 0.001052
v 0.016636 0.026855 0.000262
v 0.041706 0.026066 0.000262
v 0.040589 0.027183 0.000262
v 0.040589 0.026066 0.001379
v 0.041379 0.026855 0.000262
v 0.041234 0.026711 0.000907
v 0.040589 0.026855 0.001052
v 0.041379 0.026066 0.001052
v 0.041706 0.002526 0.000262
v 0.040589 0.002526 0.001379
v 0.040589 0.001409 0.000262
v 0.041379 0.002526 0.001052
v 0.041234 0.001881 0.000907
v 0.040589 0.001736 0.001052
v 0.041379 0.001736 0.000262
vn -0.0000 -1.0000 -0.0000
vn 1.0000 -0.0000 -0.0000
vn -0.0000 -0.0000 -1.0000
vn -0.0000 -0.0000 1.0000
vn -0.0000 1.0000 -0.0000
vn -0.8881 -0.3251 -0.3251
vn -0.3251 -0.3251 -0.8881
vn -0.3251 -0.8881 -0.3251
vn -0.8881 0.3251 -0.3251
vn -0.3251 0.8881 -0.3251
vn -0.3251 0.3251 -0.8881
vn 0.8881 0.3251 -0.3251
vn 0.3251 0.3251 -0.8881
vn 0.3251 0.8881 -0.3251
vn 0.8881 -0.3251 -0.3251
vn 0.3251 -0.8881 -0.3251
vn 0.3251 -0.3251 -0.8881
vn -0.8881 -0.3251 0.3251
vn -0.3251 -0.8881 0.3251
vn -0.3251 -0.3251 0.8881
vn -0.8881 0.3251 0.3251
vn -0.3251 0.3251 0.8881
vn -0.3251 0.8881 0.3251
vn 0.8881 0.3251 0.3251
vn 0.3251 0.8881 0.3251
vn 0.3251 0.3251 0.8881
vn 0.8881 -0.3251 0.3251
vn 0.3251 -0.3251 0.8881
vn 0.3251 -0.8881 0.3251
vn -0.9239 -0.0000 -0.3827
vn -0.3827 -0.0000 -0.9239
vn 0.9239 -0.0000 -0.3827
vn 0.3827 -0.0000 -0.9239
vn -0.0000 -0.9239 -0.3827
vn -0.0000 -0.3827 -0.9239
vn -0.0000 0.9239 -0.3827
vn -0.0000 0.3827 -0.9239
vn -0.3827 -0.0000 0.9239
vn -0.9239 -0.0000 0.3827
vn 0.3827 -0.0000 0.9239
vn 0.9239 -0.0000 0.3827
vn -0.0000 -0.3827 0.9239
vn -0.0000 -0.9239 0.3827
vn -0.0000 0.3827 0.9239
vn -0.0000 0.9239 0.3827
vn -0.9239 0.3827 -0.0000
vn -0.3827 0.9239 -0.0000
vn 0.9239 0.3827 -0.0000
vn 0.3827 0.9239 -0.0000
vn -0.3827 -0.9239 -0.0000
vn -0.9239 -0.3827 -0.0000
vn 0.3827 -0.9239 -0.0000
vn 0.9239 -0.3827 -0.0000
vn -1.0000 -0.0000 -0.0000
vt 0.566171 0.684004
vt 0.614660 0.684004
vt 0.590415 0.640202
vt 0.590415 0.727807
vt 0.654356 0.789520
vt 0.559915 0.789520
vt 0.559915 0.960145
vt 0.654356 0.960145
vt 0.559915 0.789520
vt 0.605047 0.684004
vt 0.575784 0.684004
vt 0.590415 0.657570
vt 0.591826 0.657570
vt 0.591826 0.656122
vt 0.590415 0.655062
vt 0.559915 0.781425
vt 0.557286 0.781425
vt 0.555362 0.789520
vt 0.563833 0.684004
vt 0.563833 0.686404
vt 0.566171 0.688161
vt 0.590415 0.710439
vt 0.590415 0.712947
vt 0.591230 0.712947
vt 0.591826 0.710439
vt 0.575784 0.686513
vt 0.574969 0.686513
vt 0.574373 0.684004
vt 0.555362 0.960145
vt 0.555362 0.964819
vt 0.559915 0.968241
vt 0.592753 0.727807
vt 0.592753 0.730207
vt 0.590415 0.731964
vt 0.654356 0.968241
vt 0.656985 0.968241
vt 0.658909 0.960145
vt 0.606458 0.684004
vt 0.606458 0.685453
vt 0.605047 0.686513
vt 0.590415 0.636045
vt 0.591765 0.636045
vt 0.592753 0.640202
vt 0.614660 0.688161
vt 0.616010 0.688161
vt 0.616998 0.684004
vt 0.658909 0.789520
vt 0.658909 0.784846
vt 0.654356 0.781425
vt 0.589601 0.655062
vt 0.589004 0.657570
vt 0.566171 0.679848
vt 0.564821 0.679848
vt 0.563833 0.684004
vt 0.555362 0.784846
vt 0.559915 0.781425
vt 0.589004 0.710439
vt 0.589004 0.711887
vt 0.559915 0.968241
vt 0.557286 0.968241
vt 0.574373 0.682556
vt 0.575784 0.681496
vt 0.589065 0.731964
vt 0.588077 0.727807
vt 0.605047 0.681496
vt 0.605861 0.681496
vt 0.658909 0.964819
vt 0.654356 0.968241
vt 0.588077 0.640202
vt 0.588077 0.637802
vt 0.654356 0.781425
vt 0.656985 0.781425
vt 0.616998 0.681605
vt 0.614660 0.679848
s 0
usemtl Numbers
f 3/1/1 23/2/1 52/2/1 30/1/1
f 22/3/2 15/4/2 43/4/2 50/3/2
f 24/5/3 2/6/3 10/7/3 16/8/3
f 51/5/4 45/8/4 37/7/4 31/9/4
f 17/10/5 9/11/5 38/11/5 44/10/5
f 1/12/6 4/13/6 5/14/6 7/15/6
f 2/6/7 6/16/7 5/17/7 4/18/7
f 3/1/8 7/19/8 5/20/8 6/21/8
f 8/22/9 11/23/9 12/24/9 14/25/9
f 9/11/10 13/26/10 12/27/10 11/28/10
f 10/7/11 14/29/11 12/30/11 13/31/11
f 15/4/12 18/32/12 19/33/12 21/34/12
f 16/8/13 20/35/13 19/36/13 18/37/13
f 17/10/14 21/38/14 19/39/14 20/40/14
f 22/3/15 25/41/15 26/42/15 28/43/15
f 23/2/16 27/44/16 26/45/16 25/46/16
f 24/5/17 28/47/17 26/48/17 27/49/17
f 29/12/18 32/15/18 33/50/18 35/51/18
f 30/1/19 34/52/19 33/53/19 32/54/19
f 31/9/20 35/18/20 33/55/20 34/56/20
f 36/22/21 39/57/21 40/58/21 42/23/21
f 37/7/22 41/59/22 40/60/22 39/29/22
f 38/11/23 42/28/23 40/61/23 41/62/23
f 43/4/24 46/34/24 47/63/24 49/64/24
f 44/10/25 48/65/25 47/66/25 46/38/25
f 45/8/26 49/37/26 47/67/26 48/68/26
f 50/3/27 53/69/27 54/70/27 56/41/27
f 51/5/28 55/71/28 54/72/28 53/47/28
f 52/2/29 56/46/29 54/73/29 55/74/29
f 1/12/30 8/22/30 14/25/30 4/13/30
f 4/18/31 14/29/31 10/7/31 2/6/31
f 15/4/32 22/3/32 28/43/32 18/32/32
f 18/37/33 28/47/33 24/5/33 16/8/33
f 23/2/34 3/1/34 6/21/34 27/44/34
f 27/49/35 6/16/35 2/6/35 24/5/35
f 9/11/36 17/10/36 20/40/36 13/26/36
f 13/31/37 20/35/37 16/8/37 10/7/37
f 31/9/38 37/7/38 39/29/38 35/18/38
f 35/51/39 39/57/39 36/22/39 29/12/39
f 45/8/40 51/5/40 53/47/40 49/37/40
f 49/64/41 53/69/41 50/3/41 43/4/41
f 51/5/42 31/9/42 34/56/42 55/71/42
f 55/74/43 34/52/43 30/1/43 52/2/43
f 37/7/44 45/8/44 48/68/44 41/59/44
f 41/62/45 48/65/45 44/10/45 38/11/45
f 8/22/46 36/22/46 42/23/46 11/23/46
f 11/28/47 42/28/47 38/11/47 9/11/47
f 43/4/48 15/4/48 21/34/48 46/34/48
f 46/38/49 21/38/49 17/10/49 44/10/49
f 3/1/50 30/1/50 32/54/50 7/19/50
f 7/15/51 32/15/51 29/12/51 1/12/51
f 52/2/52 23/2/52 25/46/52 56/46/52
f 56/41/53 25/41/53 22/3/53 50/3/53
f 8/22/54 1/12/54 29/12/54 36/22/54
