# Blender 4.3.2
# www.blender.org
mtllib safe_keys_c.mtl
o safe_buttons.c
v -0.042006 -0.054714 0.000262
v -0.040889 -0.054714 -0.000855
v -0.040889 -0.055831 0.000262
v -0.041679 -0.054714 -0.000528
v -0.041534 -0.055359 -0.000383
v -0.040889 -0.055504 -0.000528
v -0.041679 -0.055504 0.000262
v -0.042006 -0.031174 0.000262
v -0.040889 -0.030057 0.000262
v -0.040889 -0.031174 -0.000855
v -0.041679 -0.030384 0.000262
v -0.041534 -0.030529 -0.000383
v -0.040889 -0.030384 -0.000528
v -0.041679 -0.031174 -0.000528
v -0.016609 -0.031174 0.000262
v -0.017726 -0.031174 -0.000855
v -0.017726 -0.030057 0.000262
v -0.016936 -0.031174 -0.000528
v -0.017081 -0.030529 -0.000383
v -0.017726 -0.030384 -0.000528
v -0.016936 -0.030384 0.000262
v -0.016609 -0.054714 0.000262
v -0.017726 -0.055831 0.000262
v -0.017726 -0.054714 -0.000855
v -0.016936 -0.055504 0.000262
v -0.017081 -0.055359 -0.000383
v -0.017726 -0.055504 -0.000528
v -0.016936 -0.054714 -0.000528
v -0.042006 -0.054714 0.000262
v -0.040889 -0.055831 0.000262
v -0.040889 -0.054714 0.001379
v -0.041679 -0.055504 0.000262
v -0.041534 -0.055359 0.000907
v -0.040889 -0.055504 0.001052
v -0.041679 -0.054714 0.001052
v -0.042006 -0.031174 0.000262
v -0.040889 -0.031174 0.001379
v -0.040889 -0.030057 0.000262
v -0.041679 -0.031174 0.001052
v -0.041534 -0.030529 0.000907
v -0.040889 -0.030384 0.001052
v -0.041679 -0.030384 0.000262
v -0.016609 -0.031174 0.000262
v -0.017726 -0.030057 0.000262
v -0.017726 -0.031174 0.001379
v -0.016936 -0.030384 0.000262
v -0.017081 -0.030529 0.000907
v -0.017726 -0.030384 0.001052
v -0.016936 -0.031174 0.001052
v -0.016609 -0.054714 0.000262
v -0.017726 -0.054714 0.001379
v -0.017726 -0.055831 0.000262
v -0.016936 -0.054714 0.001052
v -0.017081 -0.055359 0.000907
v -0.017726 -0.055504 0.001052
v -0.016936 -0.055504 0.000262
vn -0.0000 -1.0000 -0.0000
vn -0.0000 -0.0000 1.0000
vn -0.0000 1.0000 -0.0000
vn 1.0000 -0.0000 -0.0000
vn -0.0000 -0.0000 -1.0000
vn -0.8881 -0.3251 -0.3251
vn -0.3251 -0.3251 -0.8881
vn -0.3251 -0.8881 -0.3251
vn -0.8881 0.3251 -0.3251
vn -0.3251 0.8881 -0.3251
vn -0.3251 0.3251 -0.8881
vn 0.8881 0.3251 -0.3251
vn 0.3251 0.3251 -0.8881
vn 0.3251 0.8881 -0.3251
vn 0.8881 -0.3251 -0.3251
vn 0.3251 -0.8881 -0.3251
vn 0.3251 -0.3251 -0.8881
vn -0.8881 -0.3251 0.3251
vn -0.3251 -0.8881 0.3251
vn -0.3251 -0.3251 0.8881
vn -0.8881 0.3251 0.3251
vn -0.3251 0.3251 0.8881
vn -0.3251 0.8881 0.3251
vn 0.8881 0.3251 0.3251
vn 0.3251 0.8881 0.3251
vn 0.3251 0.3251 0.8881
vn 0.8881 -0.3251 0.3251
vn 0.3251 -0.3251 0.8881
vn 0.3251 -0.8881 0.3251
vn -0.9239 -0.0000 -0.3827
vn -0.3827 -0.0000 -0.9239
vn 0.9239 -0.0000 -0.3827
vn 0.3827 -0.0000 -0.9239
vn -0.0000 -0.3827 -0.9239
vn -0.0000 -0.9239 -0.3827
vn -0.0000 0.3827 -0.9239
vn -0.0000 0.9239 -0.3827
vn -0.3827 -0.0000 0.9239
vn -0.9239 -0.0000 0.3827
vn 0.3827 -0.0000 0.9239
vn 0.9239 -0.0000 0.3827
vn -0.0000 -0.9239 0.3827
vn -0.0000 -0.3827 0.9239
vn -0.0000 0.9239 0.3827
vn -0.0000 0.3827 0.9239
vn 0.3827 0.9239 -0.0000
vn 0.9239 0.3827 -0.0000
vn 0.3827 -0.9239 -0.0000
vn 0.9239 -0.3827 -0.0000
vn -0.9239 -0.3827 -0.0000
vn -0.3827 -0.9239 -0.0000
vn -0.9239 0.3827 -0.0000
vn -0.3827 0.9239 -0.0000
vn -1.0000 -0.0000 -0.0000
vt 0.278300 0.532116
vt 0.326602 0.532116
vt 0.326602 0.532116
vt 0.343014 0.628075
vt 0.343014 0.747758
vt 0.276770 0.747758
vt 0.276770 0.628075
vt 0.335573 0.532116
vt 0.269329 0.532116
vt 0.302451 0.488483
vt 0.302451 0.575749
vt 0.302451 0.488483
vt 0.302451 0.472274
vt 0.305645 0.472274
vt 0.305645 0.468996
vt 0.302451 0.466596
vt 0.276770 0.622397
vt 0.274926 0.622397
vt 0.273576 0.628075
vt 0.275971 0.532116
vt 0.275971 0.534506
vt 0.278300 0.536256
vt 0.302451 0.591957
vt 0.302451 0.597636
vt 0.304295 0.597636
vt 0.305645 0.591957
vt 0.269329 0.537794
vt 0.267485 0.537794
vt 0.266135 0.532116
vt 0.273576 0.747758
vt 0.273576 0.751036
vt 0.276770 0.753436
vt 0.304780 0.575749
vt 0.304780 0.578139
vt 0.302451 0.579889
vt 0.343014 0.753436
vt 0.344858 0.753436
vt 0.346208 0.747758
vt 0.338767 0.532116
vt 0.338767 0.535394
vt 0.335573 0.537794
vt 0.302451 0.484343
vt 0.303796 0.484343
vt 0.304780 0.488483
vt 0.326602 0.536256
vt 0.327946 0.536256
vt 0.328930 0.532116
vt 0.346208 0.628075
vt 0.346208 0.624797
vt 0.343014 0.622397
vt 0.302451 0.466596
vt 0.300607 0.466596
vt 0.299257 0.472274
vt 0.278300 0.527975
vt 0.276956 0.527975
vt 0.273576 0.628075
vt 0.273576 0.624797
vt 0.302451 0.591957
vt 0.299257 0.591957
vt 0.299257 0.595236
vt 0.302451 0.597636
vt 0.274926 0.753436
vt 0.266135 0.528837
vt 0.269329 0.526437
vt 0.301106 0.579889
vt 0.300122 0.575749
vt 0.335573 0.526437
vt 0.337417 0.526437
vt 0.346208 0.747758
vt 0.346208 0.751036
vt 0.343014 0.753436
vt 0.300122 0.488483
vt 0.300122 0.486093
vt 0.343014 0.622397
vt 0.344858 0.622397
vt 0.328930 0.529725
vt 0.326602 0.527976
s 0
usemtl Numbers
f 3/1/1 23/2/1 52/3/1 30/1/1
f 51/4/2 45/5/2 37/6/2 31/7/2
f 17/8/3 9/9/3 38/9/3 44/8/3
f 22/10/4 15/11/4 43/11/4 50/12/4
f 24/4/5 2/7/5 10/6/5 16/5/5
f 1/13/6 4/14/6 5/15/6 7/16/6
f 2/7/7 6/17/7 5/18/7 4/19/7
f 3/1/8 7/20/8 5/21/8 6/22/8
f 8/23/9 11/24/9 12/25/9 14/26/9
f 9/9/10 13/27/10 12/28/10 11/29/10
f 10/6/11 14/30/11 12/31/11 13/32/11
f 15/11/12 18/33/12 19/34/12 21/35/12
f 16/5/13 20/36/13 19/37/13 18/38/13
f 17/8/14 21/39/14 19/40/14 20/41/14
f 22/10/15 25/42/15 26/43/15 28/44/15
f 23/2/16 27/45/16 26/46/16 25/47/16
f 24/4/17 28/48/17 26/49/17 27/50/17
f 29/13/18 32/51/18 33/52/18 35/53/18
f 30/1/19 34/54/19 33/55/19 32/20/19
f 31/7/20 35/56/20 33/57/20 34/17/20
f 36/58/21 39/59/21 40/60/21 42/61/21
f 37/6/22 41/32/22 40/62/22 39/30/22
f 38/9/23 42/29/23 40/63/23 41/64/23
f 43/11/24 46/35/24 47/65/24 49/66/24
f 44/8/25 48/67/25 47/68/25 46/39/25
f 45/5/26 49/69/26 47/70/26 48/71/26
f 50/12/27 53/72/27 54/73/27 56/42/27
f 51/4/28 55/74/28 54/75/28 53/48/28
f 52/3/29 56/47/29 54/76/29 55/77/29
f 1/13/30 8/23/30 14/26/30 4/14/30
f 4/19/31 14/30/31 10/6/31 2/7/31
f 15/11/32 22/10/32 28/44/32 18/33/32
f 18/38/33 28/48/33 24/4/33 16/5/33
f 2/7/34 24/4/34 27/50/34 6/17/34
f 6/22/35 27/45/35 23/2/35 3/1/35
f 16/5/36 10/6/36 13/32/36 20/36/36
f 20/41/37 13/27/37 9/9/37 17/8/37
f 31/7/38 37/6/38 39/30/38 35/56/38
f 35/53/39 39/59/39 36/58/39 29/13/39
f 45/5/40 51/4/40 53/48/40 49/69/40
f 49/66/41 53/72/41 50/12/41 43/11/41
f 30/1/42 52/3/42 55/77/42 34/54/42
f 34/17/43 55/74/43 51/4/43 31/7/43
f 44/8/44 38/9/44 41/64/44 48/67/44
f 48/71/45 41/32/45 37/6/45 45/5/45
f 17/8/46 44/8/46 46/39/46 21/39/46
f 21/35/47 46/35/47 43/11/47 15/11/47
f 52/3/48 23/2/48 25/47/48 56/47/48
f 56/42/49 25/42/49 22/10/49 50/12/49
f 29/13/50 1/13/50 7/16/50 32/51/50
f 32/20/51 7/20/51 3/1/51 30/1/51
f 8/23/52 36/58/52 42/61/52 11/24/52
f 11/29/53 42/29/53 38/9/53 9/9/53
f 8/23/54 1/13/54 29/13/54 36/58/54
