# Blender 4.3.2
# www.blender.org
mtllib safe_keys_009.mtl
o safe_buttons.009
v 0.016309 -0.026119 0.000262
v 0.017426 -0.026119 -0.000855
v 0.017426 -0.027235 0.000262
v 0.016636 -0.026119 -0.000528
v 0.016781 -0.026763 -0.000383
v 0.017426 -0.026908 -0.000528
v 0.016636 -0.026908 0.000262
v 0.016309 -0.002578 0.000262
v 0.017426 -0.001462 0.000262
v 0.017426 -0.002578 -0.000855
v 0.016636 -0.001789 0.000262
v 0.016781 -0.001934 -0.000383
v 0.017426 -0.001789 -0.000528
v 0.016636 -0.002578 -0.000528
v 0.041706 -0.002578 0.000262
v 0.040589 -0.002578 -0.000855
v 0.040589 -0.001462 0.000262
v 0.041379 -0.002578 -0.000528
v 0.041234 -0.001934 -0.000383
v 0.040589 -0.001789 -0.000528
v 0.041379 -0.001789 0.000262
v 0.041706 -0.026119 0.000262
v 0.040589 -0.027235 0.000262
v 0.040589 -0.026119 -0.000855
v 0.041379 -0.026908 0.000262
v 0.041234 -0.026763 -0.000383
v 0.040589 -0.026908 -0.000528
v 0.041379 -0.026119 -0.000528
v 0.016309 -0.026119 0.000262
v 0.017426 -0.027235 0.000262
v 0.017426 -0.026119 0.001379
v 0.016636 -0.026908 0.000262
v 0.016781 -0.026763 0.000907
v 0.017426 -0.026908 0.001052
v 0.016636 -0.026119 0.001052
v 0.016309 -0.002578 0.000262
v 0.017426 -0.002578 0.001379
v 0.017426 -0.001462 0.000262
v 0.016636 -0.002578 0.001052
v 0.016781 -0.001934 0.000907
v 0.017426 -0.001789 0.001052
v 0.016636 -0.001789 0.000262
v 0.041706 -0.002578 0.000262
v 0.040589 -0.001462 0.000262
v 0.040589 -0.002578 0.001379
v 0.041379 -0.001789 0.000262
v 0.041234 -0.001934 0.000907
v 0.040589 -0.001789 0.001052
v 0.041379 -0.002578 0.001052
v 0.041706 -0.026119 0.000262
v 0.040589 -0.026119 0.001379
v 0.040589 -0.027235 0.000262
v 0.041379 -0.026119 0.001052
v 0.041234 -0.026763 0.000907
v 0.040589 -0.026908 0.001052
v 0.041379 -0.026908 0.000262
vn -0.0000 -1.0000 -0.0000
vn 1.0000 -0.0000 -0.0000
vn -0.0000 -0.0000 -1.0000
vn -0.0000 -0.0000 1.0000
vn -0.0000 1.0000 -0.0000
vn -0.8881 -0.3251 -0.3251
vn -0.3251 -0.3251 -0.8881
vn -0.3251 -0.8881 -0.3251
vn -0.8881 0.3251 -0.3251
vn -0.3251 0.8881 -0.3251
vn -0.3251 0.3251 -0.8881
vn 0.8881 0.3251 -0.3251
vn 0.3251 0.3251 -0.8881
vn 0.3251 0.8881 -0.3251
vn 0.8881 -0.3251 -0.3251
vn 0.3251 -0.8881 -0.3251
vn 0.3251 -0.3251 -0.8881
vn -0.8881 -0.3251 0.3251
vn -0.3251 -0.8881 0.3251
vn -0.3251 -0.3251 0.8881
vn -0.8881 0.3251 0.3251
vn -0.3251 0.3251 0.8881
vn -0.3251 0.8881 0.3251
vn 0.8881 0.3251 0.3251
vn 0.3251 0.8881 0.3251
vn 0.3251 0.3251 0.8881
vn 0.8881 -0.3251 0.3251
vn 0.3251 -0.3251 0.8881
vn 0.3251 -0.8881 0.3251
vn -0.9239 -0.0000 -0.3827
vn -0.3827 -0.0000 -0.9239
vn 0.9239 -0.0000 -0.3827
vn 0.3827 -0.0000 -0.9239
vn -0.0000 -0.9239 -0.3827
vn -0.0000 -0.3827 -0.9239
vn -0.0000 0.9239 -0.3827
vn -0.0000 0.3827 -0.9239
vn -0.3827 -0.0000 0.9239
vn -0.9239 -0.0000 0.3827
vn 0.3827 -0.0000 0.9239
vn 0.9239 -0.0000 0.3827
vn -0.0000 -0.3827 0.9239
vn -0.0000 -0.9239 0.3827
vn -0.0000 0.3827 0.9239
vn -0.0000 0.9239 0.3827
vn -0.9239 0.3827 -0.0000
vn -0.3827 0.9239 -0.0000
vn 0.9239 0.3827 -0.0000
vn 0.3827 0.9239 -0.0000
vn -0.3827 -0.9239 -0.0000
vn -0.9239 -0.3827 -0.0000
vn 0.3827 -0.9239 -0.0000
vn 0.9239 -0.3827 -0.0000
vn -1.0000 -0.0000 -0.0000
vt 0.809443 0.756743
vt 0.843479 0.756743
vt 0.826461 0.725997
vt 0.826461 0.787489
vt 0.897404 0.823316
vt 0.830982 0.823316
vt 0.830982 0.943322
vt 0.897404 0.943322
vt 0.830982 0.823316
vt 0.833577 0.756743
vt 0.819345 0.756743
vt 0.826461 0.743887
vt 0.827147 0.743886
vt 0.827147 0.743182
vt 0.826461 0.742666
vt 0.830982 0.817622
vt 0.829132 0.817622
vt 0.827779 0.823316
vt 0.807802 0.756743
vt 0.807802 0.758428
vt 0.809443 0.759661
vt 0.826461 0.769600
vt 0.826461 0.770820
vt 0.826857 0.770820
vt 0.827147 0.769600
vt 0.819345 0.757963
vt 0.818948 0.757963
vt 0.818658 0.756743
vt 0.827779 0.943322
vt 0.827779 0.946609
vt 0.830982 0.949015
vt 0.828102 0.787489
vt 0.828102 0.789174
vt 0.826461 0.790407
vt 0.897404 0.949015
vt 0.899253 0.949015
vt 0.900607 0.943322
vt 0.834263 0.756743
vt 0.834263 0.757448
vt 0.833577 0.757963
vt 0.826461 0.723080
vt 0.827408 0.723080
vt 0.828102 0.725997
vt 0.843479 0.759661
vt 0.844426 0.759661
vt 0.845120 0.756743
vt 0.900607 0.823316
vt 0.900607 0.820029
vt 0.897404 0.817622
vt 0.826461 0.743886
vt 0.826065 0.742666
vt 0.825775 0.743887
vt 0.809443 0.753826
vt 0.808496 0.753826
vt 0.807802 0.756743
vt 0.827779 0.823316
vt 0.827779 0.820029
vt 0.830982 0.817622
vt 0.825775 0.769600
vt 0.825775 0.770305
vt 0.826461 0.770820
vt 0.830982 0.949015
vt 0.829132 0.949015
vt 0.818658 0.756039
vt 0.819345 0.755523
vt 0.826461 0.790407
vt 0.825513 0.790407
vt 0.824820 0.787489
vt 0.833577 0.755523
vt 0.833973 0.755523
vt 0.900607 0.943322
vt 0.900607 0.946609
vt 0.897404 0.949015
vt 0.824820 0.725997
vt 0.824820 0.724313
vt 0.897404 0.817622
vt 0.899253 0.817622
vt 0.900607 0.823316
vt 0.845120 0.756743
vt 0.845120 0.755059
vt 0.843479 0.753826
s 0
usemtl Numbers
f 3/1/1 23/2/1 52/2/1 30/1/1
f 22/3/2 15/4/2 43/4/2 50/3/2
f 24/5/3 2/6/3 10/7/3 16/8/3
f 51/5/4 45/8/4 37/7/4 31/9/4
f 17/10/5 9/11/5 38/11/5 44/10/5
f 1/12/6 4/13/6 5/14/6 7/15/6
f 2/6/7 6/16/7 5/17/7 4/18/7
f 3/1/8 7/19/8 5/20/8 6/21/8
f 8/22/9 11/23/9 12/24/9 14/25/9
f 9/11/10 13/26/10 12/27/10 11/28/10
f 10/7/11 14/29/11 12/30/11 13/31/11
f 15/4/12 18/32/12 19/33/12 21/34/12
f 16/8/13 20/35/13 19/36/13 18/37/13
f 17/10/14 21/38/14 19/39/14 20/40/14
f 22/3/15 25/41/15 26/42/15 28/43/15
f 23/2/16 27/44/16 26/45/16 25/46/16
f 24/5/17 28/47/17 26/48/17 27/49/17
f 29/50/18 32/15/18 33/51/18 35/52/18
f 30/1/19 34/53/19 33/54/19 32/55/19
f 31/9/20 35/56/20 33/57/20 34/58/20
f 36/22/21 39/59/21 40/60/21 42/61/21
f 37/7/22 41/62/22 40/63/22 39/29/22
f 38/11/23 42/28/23 40/64/23 41/65/23
f 43/4/24 46/66/24 47/67/24 49/68/24
f 44/10/25 48/69/25 47/70/25 46/38/25
f 45/8/26 49/71/26 47/72/26 48/73/26
f 50/3/27 53/74/27 54/75/27 56/41/27
f 51/5/28 55/76/28 54/77/28 53/78/28
f 52/2/29 56/79/29 54/80/29 55/81/29
f 1/12/30 8/22/30 14/25/30 4/13/30
f 4/18/31 14/29/31 10/7/31 2/6/31
f 15/4/32 22/3/32 28/43/32 18/32/32
f 18/37/33 28/47/33 24/5/33 16/8/33
f 23/2/34 3/1/34 6/21/34 27/44/34
f 27/49/35 6/16/35 2/6/35 24/5/35
f 9/11/36 17/10/36 20/40/36 13/26/36
f 13/31/37 20/35/37 16/8/37 10/7/37
f 31/9/38 37/7/38 39/29/38 35/56/38
f 35/52/39 39/59/39 36/22/39 29/50/39
f 45/8/40 51/5/40 53/78/40 49/71/40
f 49/68/41 53/74/41 50/3/41 43/4/41
f 51/5/42 31/9/42 34/58/42 55/76/42
f 55/81/43 34/53/43 30/1/43 52/2/43
f 37/7/44 45/8/44 48/73/44 41/62/44
f 41/65/45 48/69/45 44/10/45 38/11/45
f 8/22/46 36/22/46 42/61/46 11/23/46
f 11/28/47 42/28/47 38/11/47 9/11/47
f 43/4/48 15/4/48 21/34/48 46/66/48
f 46/38/49 21/38/49 17/10/49 44/10/49
f 3/1/50 30/1/50 32/55/50 7/19/50
f 7/15/51 32/15/51 29/50/51 1/12/51
f 52/2/52 23/2/52 25/46/52 56/79/52
f 56/41/53 25/41/53 22/3/53 50/3/53
f 8/22/54 1/12/54 29/50/54 36/22/54
