# Blender 4.3.2
# www.blender.org
mtllib safe_keys_004.mtl
o safe_buttons.004
v -0.042006 0.002526 0.000262
v -0.040889 0.002526 -0.000855
v -0.040889 0.001409 0.000262
v -0.041679 0.002526 -0.000528
v -0.041534 0.001881 -0.000383
v -0.040889 0.001736 -0.000528
v -0.041679 0.001736 0.000262
v -0.042006 0.026066 0.000262
v -0.040889 0.027183 0.000262
v -0.040889 0.026066 -0.000855
v -0.041679 0.026855 0.000262
v -0.041534 0.026711 -0.000383
v -0.040889 0.026855 -0.000528
v -0.041679 0.026066 -0.000528
v -0.016609 0.026066 0.000262
v -0.017726 0.026066 -0.000855
v -0.017726 0.027183 0.000262
v -0.016936 0.026066 -0.000528
v -0.017081 0.026711 -0.000383
v -0.017726 0.026855 -0.000528
v -0.016936 0.026855 0.000262
v -0.016609 0.002526 0.000262
v -0.017726 0.001409 0.000262
v -0.017726 0.002526 -0.000855
v -0.016936 0.001736 0.000262
v -0.017081 0.001881 -0.000383
v -0.017726 0.001736 -0.000528
v -0.016936 0.002526 -0.000528
v -0.042006 0.002526 0.000262
v -0.040889 0.001409 0.000262
v -0.040889 0.002526 0.001379
v -0.041679 0.001736 0.000262
v -0.041534 0.001881 0.000907
v -0.040889 0.001736 0.001052
v -0.041679 0.002526 0.001052
v -0.042006 0.026066 0.000262
v -0.040889 0.026066 0.001379
v -0.040889 0.027183 0.000262
v -0.041679 0.026066 0.001052
v -0.041534 0.026711 0.000907
v -0.040889 0.026855 0.001052
v -0.041679 0.026855 0.000262
v -0.016609 0.026066 0.000262
v -0.017726 0.027183 0.000262
v -0.017726 0.026066 0.001379
v -0.016936 0.026855 0.000262
v -0.017081 0.026711 0.000907
v -0.017726 0.026855 0.001052
v -0.016936 0.026066 0.001052
v -0.016609 0.002526 0.000262
v -0.017726 0.002526 0.001379
v -0.017726 0.001409 0.000262
v -0.016936 0.002526 0.001052
v -0.017081 0.001881 0.000907
v -0.017726 0.001736 0.001052
v -0.016936 0.001736 0.000262
vn -0.0000 -1.0000 -0.0000
vn -0.0000 -0.0000 1.0000
vn -0.0000 1.0000 -0.0000
vn 1.0000 -0.0000 -0.0000
vn -0.0000 -0.0000 -1.0000
vn -0.8881 -0.3251 -0.3251
vn -0.3251 -0.3251 -0.8881
vn -0.3251 -0.8881 -0.3251
vn -0.8881 0.3251 -0.3251
vn -0.3251 0.8881 -0.3251
vn -0.3251 0.3251 -0.8881
vn 0.8881 0.3251 -0.3251
vn 0.3251 0.3251 -0.8881
vn 0.3251 0.8881 -0.3251
vn 0.8881 -0.3251 -0.3251
vn 0.3251 -0.8881 -0.3251
vn 0.3251 -0.3251 -0.8881
vn -0.8881 -0.3251 0.3251
vn -0.3251 -0.8881 0.3251
vn -0.3251 -0.3251 0.8881
vn -0.8881 0.3251 0.3251
vn -0.3251 0.3251 0.8881
vn -0.3251 0.8881 0.3251
vn 0.8881 0.3251 0.3251
vn 0.3251 0.8881 0.3251
vn 0.3251 0.3251 0.8881
vn 0.8881 -0.3251 0.3251
vn 0.3251 -0.3251 0.8881
vn 0.3251 -0.8881 0.3251
vn -0.9239 -0.0000 -0.3827
vn -0.3827 -0.0000 -0.9239
vn 0.9239 -0.0000 -0.3827
vn 0.3827 -0.0000 -0.9239
vn -0.0000 -0.3827 -0.9239
vn -0.0000 -0.9239 -0.3827
vn -0.0000 0.3827 -0.9239
vn -0.0000 0.9239 -0.3827
vn -0.3827 -0.0000 0.9239
vn -0.9239 -0.0000 0.3827
vn 0.3827 -0.0000 0.9239
vn 0.9239 -0.0000 0.3827
vn -0.0000 -0.9239 0.3827
vn -0.0000 -0.3827 0.9239
vn -0.0000 0.9239 0.3827
vn -0.0000 0.3827 0.9239
vn 0.3827 0.9239 -0.0000
vn 0.9239 0.3827 -0.0000
vn 0.3827 -0.9239 -0.0000
vn 0.9239 -0.3827 -0.0000
vn -0.9239 -0.3827 -0.0000
vn -0.3827 -0.9239 -0.0000
vn -0.9239 0.3827 -0.0000
vn -0.3827 0.9239 -0.0000
vn -1.0000 -0.0000 -0.0000
vt 0.574925 0.622809
vt 0.574925 0.497562
vt 0.434915 0.790232
vt 0.434915 0.965324
vt 0.338002 0.965324
vt 0.338002 0.790232
vt 0.708408 0.497562
vt 0.708408 0.622809
vt 0.708408 0.622809
vt 0.580709 0.491522
vt 0.702624 0.491522
vt 0.580709 0.491522
vt 0.580709 0.497562
vt 0.580709 0.622809
vt 0.702624 0.622809
vt 0.702624 0.497562
vt 0.580709 0.628848
vt 0.575740 0.627997
vt 0.574925 0.628848
vt 0.574925 0.622809
vt 0.580709 0.628848
vt 0.574925 0.622809
vt 0.702624 0.628848
vt 0.708408 0.628848
vt 0.707594 0.627997
vt 0.702624 0.628848
vt 0.708408 0.622809
vt 0.707594 0.492373
vt 0.708408 0.491522
vt 0.708408 0.497562
vt 0.702624 0.491522
vt 0.574925 0.491522
vt 0.575740 0.492373
vt 0.580709 0.491522
vt 0.574925 0.491522
vt 0.580709 0.491522
vt 0.574925 0.497562
vt 0.574925 0.626296
vt 0.333329 0.790232
vt 0.333329 0.785436
vt 0.338002 0.781925
vt 0.705964 0.628848
vt 0.708408 0.628848
vt 0.338002 0.973631
vt 0.335304 0.973631
vt 0.333329 0.965324
vt 0.708408 0.494075
vt 0.708408 0.491522
vt 0.439588 0.965324
vt 0.439588 0.970120
vt 0.434915 0.973631
vt 0.577370 0.491522
vt 0.434915 0.781925
vt 0.437613 0.781925
vt 0.439588 0.790232
s 0
usemtl Numbers
f 3/1/1 23/2/1 52/2/1 30/1/1
f 51/3/2 45/4/2 37/5/2 31/6/2
f 17/7/3 9/8/3 38/9/3 44/7/3
f 22/10/4 15/11/4 43/11/4 50/12/4
f 24/13/5 2/14/5 10/15/5 16/16/5
f 1/17/6 4/17/6 5/18/6 7/19/6
f 2/14/7 6/20/7 5/18/7 4/21/7
f 3/1/8 7/19/8 5/18/8 6/22/8
f 8/23/9 11/24/9 12/25/9 14/26/9
f 9/8/10 13/9/10 12/25/10 11/24/10
f 10/15/11 14/23/11 12/25/11 13/27/11
f 15/11/12 18/11/12 19/28/12 21/29/12
f 16/16/13 20/30/13 19/28/13 18/31/13
f 17/7/14 21/29/14 19/28/14 20/7/14
f 22/10/15 25/32/15 26/33/15 28/34/15
f 23/2/16 27/2/16 26/33/16 25/35/16
f 24/13/17 28/36/17 26/33/17 27/37/17
f 29/17/18 32/19/18 33/19/18 35/21/18
f 30/1/19 34/20/19 33/38/19 32/19/19
f 31/6/20 35/39/20 33/40/20 34/41/20
f 36/23/21 39/26/21 40/42/21 42/43/21
f 37/5/22 41/44/22 40/45/22 39/46/22
f 38/9/23 42/24/23 40/24/23 41/27/23
f 43/11/24 46/29/24 47/29/24 49/31/24
f 44/7/25 48/30/25 47/47/25 46/48/25
f 45/4/26 49/49/26 47/50/26 48/51/26
f 50/12/27 53/10/27 54/52/27 56/32/27
f 51/3/28 55/53/28 54/54/28 53/55/28
f 52/2/29 56/32/29 54/32/29 55/37/29
f 1/17/30 8/23/30 14/23/30 4/17/30
f 4/17/31 14/23/31 10/15/31 2/14/31
f 15/11/32 22/10/32 28/34/32 18/31/32
f 18/31/33 28/34/33 24/13/33 16/16/33
f 2/14/34 24/13/34 27/2/34 6/1/34
f 6/1/35 27/2/35 23/2/35 3/1/35
f 16/16/36 10/15/36 13/27/36 20/7/36
f 20/7/37 13/27/37 9/8/37 17/7/37
f 31/6/38 37/5/38 39/46/38 35/39/38
f 35/21/39 39/26/39 36/23/39 29/17/39
f 45/4/40 51/3/40 53/55/40 49/49/40
f 49/31/41 53/10/41 50/12/41 43/11/41
f 30/1/42 52/2/42 55/37/42 34/20/42
f 34/41/43 55/53/43 51/3/43 31/6/43
f 44/7/44 38/9/44 41/27/44 48/30/44
f 48/51/45 41/44/45 37/5/45 45/4/45
f 17/7/46 44/7/46 46/48/46 21/29/46
f 21/29/47 46/48/47 43/11/47 15/11/47
f 52/2/48 23/2/48 25/35/48 56/32/48
f 56/32/49 25/35/49 22/10/49 50/12/49
f 29/17/50 1/17/50 7/19/50 32/19/50
f 32/19/51 7/19/51 3/1/51 30/1/51
f 8/23/52 36/23/52 42/43/52 11/24/52
f 11/24/53 42/43/53 38/9/53 9/8/53
f 8/23/54 1/17/54 29/17/54 36/23/54
