# Blender 4.3.2
# www.blender.org
mtllib safe_keys_007.mtl
o safe_buttons.007
v -0.042006 -0.026119 0.000262
v -0.040889 -0.026119 -0.000855
v -0.040889 -0.027235 0.000262
v -0.041679 -0.026119 -0.000528
v -0.041534 -0.026763 -0.000383
v -0.040889 -0.026908 -0.000528
v -0.041679 -0.026908 0.000262
v -0.042006 -0.002578 0.000262
v -0.040889 -0.001462 0.000262
v -0.040889 -0.002578 -0.000855
v -0.041679 -0.001789 0.000262
v -0.041534 -0.001934 -0.000383
v -0.040889 -0.001789 -0.000528
v -0.041679 -0.002578 -0.000528
v -0.016609 -0.002578 0.000262
v -0.017726 -0.002578 -0.000855
v -0.017726 -0.001462 0.000262
v -0.016936 -0.002578 -0.000528
v -0.017081 -0.001934 -0.000383
v -0.017726 -0.001789 -0.000528
v -0.016936 -0.001789 0.000262
v -0.016609 -0.026119 0.000262
v -0.017726 -0.027235 0.000262
v -0.017726 -0.026119 -0.000855
v -0.016936 -0.026908 0.000262
v -0.017081 -0.026763 -0.000383
v -0.017726 -0.026908 -0.000528
v -0.016936 -0.026119 -0.000528
v -0.042006 -0.026119 0.000262
v -0.040889 -0.027235 0.000262
v -0.040889 -0.026119 0.001379
v -0.041679 -0.026908 0.000262
v -0.041534 -0.026763 0.000907
v -0.040889 -0.026908 0.001052
v -0.041679 -0.026119 0.001052
v -0.042006 -0.002578 0.000262
v -0.040889 -0.002578 0.001379
v -0.040889 -0.001462 0.000262
v -0.041679 -0.002578 0.001052
v -0.041534 -0.001934 0.000907
v -0.040889 -0.001789 0.001052
v -0.041679 -0.001789 0.000262
v -0.016609 -0.002578 0.000262
v -0.017726 -0.001462 0.000262
v -0.017726 -0.002578 0.001379
v -0.016936 -0.001789 0.000262
v -0.017081 -0.001934 0.000907
v -0.017726 -0.001789 0.001052
v -0.016936 -0.002578 0.001052
v -0.016609 -0.026119 0.000262
v -0.017726 -0.026119 0.001379
v -0.017726 -0.027235 0.000262
v -0.016936 -0.026119 0.001052
v -0.017081 -0.026763 0.000907
v -0.017726 -0.026908 0.001052
v -0.016936 -0.026908 0.000262
vn -0.0000 -1.0000 -0.0000
vn -0.0000 -0.0000 1.0000
vn -0.0000 1.0000 -0.0000
vn 1.0000 -0.0000 -0.0000
vn -0.0000 -0.0000 -1.0000
vn -0.8881 -0.3251 -0.3251
vn -0.3251 -0.3251 -0.8881
vn -0.3251 -0.8881 -0.3251
vn -0.8881 0.3251 -0.3251
vn -0.3251 0.8881 -0.3251
vn -0.3251 0.3251 -0.8881
vn 0.8881 0.3251 -0.3251
vn 0.3251 0.3251 -0.8881
vn 0.3251 0.8881 -0.3251
vn 0.8881 -0.3251 -0.3251
vn 0.3251 -0.8881 -0.3251
vn 0.3251 -0.3251 -0.8881
vn -0.8881 -0.3251 0.3251
vn -0.3251 -0.8881 0.3251
vn -0.3251 -0.3251 0.8881
vn -0.8881 0.3251 0.3251
vn -0.3251 0.3251 0.8881
vn -0.3251 0.8881 0.3251
vn 0.8881 0.3251 0.3251
vn 0.3251 0.8881 0.3251
vn 0.3251 0.3251 0.8881
vn 0.8881 -0.3251 0.3251
vn 0.3251 -0.3251 0.8881
vn 0.3251 -0.8881 0.3251
vn -0.9239 -0.0000 -0.3827
vn -0.3827 -0.0000 -0.9239
vn 0.9239 -0.0000 -0.3827
vn 0.3827 -0.0000 -0.9239
vn -0.0000 -0.3827 -0.9239
vn -0.0000 -0.9239 -0.3827
vn -0.0000 0.3827 -0.9239
vn -0.0000 0.9239 -0.3827
vn -0.3827 -0.0000 0.9239
vn -0.9239 -0.0000 0.3827
vn 0.3827 -0.0000 0.9239
vn 0.9239 -0.0000 0.3827
vn -0.0000 -0.9239 0.3827
vn -0.0000 -0.3827 0.9239
vn -0.0000 0.9239 0.3827
vn -0.0000 0.3827 0.9239
vn 0.3827 0.9239 -0.0000
vn 0.9239 0.3827 -0.0000
vn 0.3827 -0.9239 -0.0000
vn 0.9239 -0.3827 -0.0000
vn -0.9239 -0.3827 -0.0000
vn -0.3827 -0.9239 -0.0000
vn -0.9239 0.3827 -0.0000
vn -0.3827 0.9239 -0.0000
vn -1.0000 -0.0000 -0.0000
vt 0.690387 0.741347
vt 0.708666 0.741347
vt 0.778277 0.800064
vt 0.778277 0.960408
vt 0.689527 0.960408
vt 0.689527 0.800064
vt 0.718480 0.741347
vt 0.680573 0.741347
vt 0.699527 0.724835
vt 0.699527 0.757859
vt 0.699527 0.757859
vt 0.689527 0.800064
vt 0.689527 0.960408
vt 0.778277 0.960408
vt 0.699527 0.707104
vt 0.701355 0.707104
vt 0.701355 0.705228
vt 0.699527 0.703855
vt 0.689527 0.792457
vt 0.687056 0.792457
vt 0.685247 0.800064
vt 0.689506 0.741347
vt 0.689506 0.742252
vt 0.690387 0.742914
vt 0.699527 0.775590
vt 0.699527 0.778840
vt 0.700582 0.778840
vt 0.701355 0.775590
vt 0.680573 0.744596
vt 0.679518 0.744596
vt 0.678745 0.741347
vt 0.685247 0.960408
vt 0.685247 0.964800
vt 0.689527 0.968016
vt 0.700408 0.757859
vt 0.700408 0.758764
vt 0.699527 0.759426
vt 0.778277 0.968016
vt 0.780747 0.968016
vt 0.782556 0.960408
vt 0.720308 0.741347
vt 0.720308 0.743223
vt 0.718480 0.744596
vt 0.699527 0.723269
vt 0.700036 0.723269
vt 0.700408 0.724835
vt 0.708666 0.742914
vt 0.709175 0.742914
vt 0.709547 0.741347
vt 0.782556 0.800064
vt 0.782556 0.795672
vt 0.778277 0.792457
vt 0.699527 0.707104
vt 0.698471 0.703855
vt 0.697699 0.707104
vt 0.690387 0.739780
vt 0.689879 0.739780
vt 0.685247 0.795672
vt 0.689527 0.792457
vt 0.697699 0.775590
vt 0.697699 0.777466
vt 0.689527 0.968016
vt 0.687056 0.968016
vt 0.678745 0.739471
vt 0.680573 0.738098
vt 0.699018 0.759426
vt 0.698645 0.757859
vt 0.718480 0.738098
vt 0.719535 0.738098
vt 0.720308 0.741347
vt 0.782556 0.960408
vt 0.782556 0.964800
vt 0.778277 0.968016
vt 0.698645 0.724835
vt 0.698645 0.723931
vt 0.778277 0.792457
vt 0.780747 0.792457
vt 0.709547 0.741347
vt 0.709547 0.740443
vt 0.708666 0.739780
s 0
usemtl Numbers
f 3/1/1 23/2/1 52/2/1 30/1/1
f 51/3/2 45/4/2 37/5/2 31/6/2
f 17/7/3 9/8/3 38/8/3 44/7/3
f 22/9/4 15/10/4 43/11/4 50/9/4
f 24/3/5 2/12/5 10/13/5 16/14/5
f 1/15/6 4/16/6 5/17/6 7/18/6
f 2/12/7 6/19/7 5/20/7 4/21/7
f 3/1/8 7/22/8 5/23/8 6/24/8
f 8/25/9 11/26/9 12/27/9 14/28/9
f 9/8/10 13/29/10 12/30/10 11/31/10
f 10/13/11 14/32/11 12/33/11 13/34/11
f 15/10/12 18/35/12 19/36/12 21/37/12
f 16/14/13 20/38/13 19/39/13 18/40/13
f 17/7/14 21/41/14 19/42/14 20/43/14
f 22/9/15 25/44/15 26/45/15 28/46/15
f 23/2/16 27/47/16 26/48/16 25/49/16
f 24/3/17 28/50/17 26/51/17 27/52/17
f 29/53/18 32/18/18 33/54/18 35/55/18
f 30/1/19 34/56/19 33/57/19 32/22/19
f 31/6/20 35/21/20 33/58/20 34/59/20
f 36/25/21 39/60/21 40/61/21 42/26/21
f 37/5/22 41/62/22 40/63/22 39/32/22
f 38/8/23 42/31/23 40/64/23 41/65/23
f 43/11/24 46/37/24 47/66/24 49/67/24
f 44/7/25 48/68/25 47/69/25 46/70/25
f 45/4/26 49/71/26 47/72/26 48/73/26
f 50/9/27 53/74/27 54/75/27 56/44/27
f 51/3/28 55/76/28 54/77/28 53/50/28
f 52/2/29 56/78/29 54/79/29 55/80/29
f 1/15/30 8/25/30 14/28/30 4/16/30
f 4/21/31 14/32/31 10/13/31 2/12/31
f 15/10/32 22/9/32 28/46/32 18/35/32
f 18/40/33 28/50/33 24/3/33 16/14/33
f 2/12/34 24/3/34 27/52/34 6/19/34
f 6/24/35 27/47/35 23/2/35 3/1/35
f 16/14/36 10/13/36 13/34/36 20/38/36
f 20/43/37 13/29/37 9/8/37 17/7/37
f 31/6/38 37/5/38 39/32/38 35/21/38
f 35/55/39 39/60/39 36/25/39 29/53/39
f 45/4/40 51/3/40 53/50/40 49/71/40
f 49/67/41 53/74/41 50/9/41 43/11/41
f 30/1/42 52/2/42 55/80/42 34/56/42
f 34/59/43 55/76/43 51/3/43 31/6/43
f 44/7/44 38/8/44 41/65/44 48/68/44
f 48/73/45 41/62/45 37/5/45 45/4/45
f 17/7/46 44/7/46 46/70/46 21/41/46
f 21/37/47 46/37/47 43/11/47 15/10/47
f 52/2/48 23/2/48 25/49/48 56/78/48
f 56/44/49 25/44/49 22/9/49 50/9/49
f 29/53/50 1/15/50 7/18/50 32/18/50
f 32/22/51 7/22/51 3/1/51 30/1/51
f 8/25/52 36/25/52 42/26/52 11/26/52
f 11/31/53 42/31/53 38/8/53 9/8/53
f 8/25/54 1/15/54 29/53/54 36/25/54
