# Blender 4.3.2
# www.blender.org
mtllib safe_keys_005.mtl
o safe_buttons.005
v -0.012448 0.002526 0.000262
v -0.011331 0.002526 -0.000855
v -0.011331 0.001409 0.000262
v -0.012121 0.002526 -0.000528
v -0.011976 0.001881 -0.000383
v -0.011331 0.001736 -0.000528
v -0.012121 0.001736 0.000262
v -0.012448 0.026066 0.000262
v -0.011331 0.027183 0.000262
v -0.011331 0.026066 -0.000855
v -0.012121 0.026855 0.000262
v -0.011976 0.026711 -0.000383
v -0.011331 0.026855 -0.000528
v -0.012121 0.026066 -0.000528
v 0.012949 0.026066 0.000262
v 0.011832 0.026066 -0.000855
v 0.011832 0.027183 0.000262
v 0.012622 0.026066 -0.000528
v 0.012477 0.026711 -0.000383
v 0.011832 0.026855 -0.000528
v 0.012622 0.026855 0.000262
v 0.012949 0.002526 0.000262
v 0.011832 0.001409 0.000262
v 0.011832 0.002526 -0.000855
v 0.012622 0.001736 0.000262
v 0.012477 0.001881 -0.000383
v 0.011832 0.001736 -0.000528
v 0.012622 0.002526 -0.000528
v -0.012448 0.002526 0.000262
v -0.011331 0.001409 0.000262
v -0.011331 0.002526 0.001379
v -0.012121 0.001736 0.000262
v -0.011976 0.001881 0.000907
v -0.011331 0.001736 0.001052
v -0.012121 0.002526 0.001052
v -0.012448 0.026066 0.000262
v -0.011331 0.026066 0.001379
v -0.011331 0.027183 0.000262
v -0.012121 0.026066 0.001052
v -0.011976 0.026711 0.000907
v -0.011331 0.026855 0.001052
v -0.012121 0.026855 0.000262
v 0.012949 0.026066 0.000262
v 0.011832 0.027183 0.000262
v 0.011832 0.026066 0.001379
v 0.012622 0.026855 0.000262
v 0.012477 0.026711 0.000907
v 0.011832 0.026855 0.001052
v 0.012622 0.026066 0.001052
v 0.012949 0.002526 0.000262
v 0.011832 0.002526 0.001379
v 0.011832 0.001409 0.000262
v 0.012622 0.002526 0.001052
v 0.012477 0.001881 0.000907
v 0.011832 0.001736 0.001052
v 0.012622 0.001736 0.000262
vn -0.0000 -1.0000 -0.0000
vn -0.0000 -0.0000 -1.0000
vn -0.0000 -0.0000 1.0000
vn -0.0000 1.0000 -0.0000
vn 1.0000 -0.0000 -0.0000
vn -0.8881 -0.3251 -0.3251
vn -0.3251 -0.3251 -0.8881
vn -0.3251 -0.8881 -0.3251
vn -0.8881 0.3251 -0.3251
vn -0.3251 0.8881 -0.3251
vn -0.3251 0.3251 -0.8881
vn 0.8881 0.3251 -0.3251
vn 0.3251 0.3251 -0.8881
vn 0.3251 0.8881 -0.3251
vn 0.8881 -0.3251 -0.3251
vn 0.3251 -0.8881 -0.3251
vn 0.3251 -0.3251 -0.8881
vn -0.8881 -0.3251 0.3251
vn -0.3251 -0.8881 0.3251
vn -0.3251 -0.3251 0.8881
vn -0.8881 0.3251 0.3251
vn -0.3251 0.3251 0.8881
vn -0.3251 0.8881 0.3251
vn 0.8881 0.3251 0.3251
vn 0.3251 0.8881 0.3251
vn 0.3251 0.3251 0.8881
vn 0.8881 -0.3251 0.3251
vn 0.3251 -0.3251 0.8881
vn 0.3251 -0.8881 0.3251
vn -0.9239 -0.0000 -0.3827
vn -0.3827 -0.0000 -0.9239
vn 0.9239 -0.0000 -0.3827
vn 0.3827 -0.0000 -0.9239
vn -0.0000 -0.9239 -0.3827
vn -0.0000 -0.3827 -0.9239
vn -0.0000 0.9239 -0.3827
vn -0.0000 0.3827 -0.9239
vn -0.3827 -0.0000 0.9239
vn -0.9239 -0.0000 0.3827
vn 0.3827 -0.0000 0.9239
vn 0.9239 -0.0000 0.3827
vn -0.0000 -0.3827 0.9239
vn -0.0000 -0.9239 0.3827
vn -0.0000 0.3827 0.9239
vn -0.0000 0.9239 0.3827
vn -0.3827 -0.9239 -0.0000
vn -0.9239 -0.3827 -0.0000
vn -0.3827 0.9239 -0.0000
vn -0.9239 0.3827 -0.0000
vn 0.3827 0.9239 -0.0000
vn 0.9239 0.3827 -0.0000
vn 0.3827 -0.9239 -0.0000
vn 0.9239 -0.3827 -0.0000
vn -1.0000 -0.0000 -0.0000
vt 0.515392 0.743429
vt 0.535052 0.743429
vt 0.534856 0.809814
vt 0.461123 0.809814
vt 0.461123 0.943028
vt 0.534856 0.943028
vt 0.534856 0.809814
vt 0.534856 0.943028
vt 0.461123 0.943028
vt 0.461123 0.809814
vt 0.545064 0.743429
vt 0.505381 0.743429
vt 0.545064 0.743429
vt 0.525222 0.707582
vt 0.525222 0.779277
vt 0.525222 0.707582
vt 0.525222 0.725669
vt 0.526170 0.725669
vt 0.526170 0.724696
vt 0.525222 0.723984
vt 0.461123 0.803494
vt 0.459070 0.803494
vt 0.457568 0.809814
vt 0.514444 0.743429
vt 0.514444 0.744402
vt 0.515392 0.745114
vt 0.525222 0.761189
vt 0.525222 0.762874
vt 0.525770 0.762874
vt 0.526170 0.761189
vt 0.505381 0.746831
vt 0.504276 0.746831
vt 0.503468 0.743429
vt 0.457568 0.943028
vt 0.457568 0.946677
vt 0.461123 0.949348
vt 0.527136 0.779277
vt 0.527136 0.781241
vt 0.525222 0.782678
vt 0.534856 0.949348
vt 0.536909 0.949348
vt 0.538412 0.943028
vt 0.546977 0.743429
vt 0.546977 0.745393
vt 0.545064 0.746831
vt 0.525222 0.704180
vt 0.526327 0.704180
vt 0.527136 0.707582
vt 0.535052 0.745114
vt 0.535600 0.745114
vt 0.536000 0.743429
vt 0.538412 0.809814
vt 0.538412 0.806165
vt 0.534856 0.803494
vt 0.524675 0.723984
vt 0.524274 0.725669
vt 0.515392 0.741744
vt 0.514845 0.741744
vt 0.514444 0.743429
vt 0.457568 0.806165
vt 0.524274 0.761189
vt 0.524274 0.762162
vt 0.459070 0.949348
vt 0.457568 0.943028
vt 0.503468 0.743429
vt 0.503468 0.741465
vt 0.505381 0.740028
vt 0.524118 0.782678
vt 0.523309 0.779277
vt 0.545064 0.740028
vt 0.546168 0.740028
vt 0.546977 0.743429
vt 0.538412 0.943028
vt 0.538412 0.946677
vt 0.534856 0.949348
vt 0.523309 0.707582
vt 0.523309 0.705618
vt 0.534856 0.803494
vt 0.536909 0.803494
vt 0.538412 0.809814
vt 0.536000 0.743429
vt 0.536000 0.742456
vt 0.535052 0.741744
s 0
usemtl Numbers
f 3/1/1 23/2/1 52/2/1 30/1/1
f 24/3/2 2/4/2 10/5/2 16/6/2
f 51/7/3 45/8/3 37/9/3 31/10/3
f 17/11/4 9/12/4 38/12/4 44/13/4
f 22/14/5 15/15/5 43/15/5 50/16/5
f 1/17/6 4/18/6 5/19/6 7/20/6
f 2/4/7 6/21/7 5/22/7 4/23/7
f 3/1/8 7/24/8 5/25/8 6/26/8
f 8/27/9 11/28/9 12/29/9 14/30/9
f 9/12/10 13/31/10 12/32/10 11/33/10
f 10/5/11 14/34/11 12/35/11 13/36/11
f 15/15/12 18/37/12 19/38/12 21/39/12
f 16/6/13 20/40/13 19/41/13 18/42/13
f 17/11/14 21/43/14 19/44/14 20/45/14
f 22/14/15 25/46/15 26/47/15 28/48/15
f 23/2/16 27/49/16 26/50/16 25/51/16
f 24/3/17 28/52/17 26/53/17 27/54/17
f 29/17/18 32/20/18 33/55/18 35/56/18
f 30/1/19 34/57/19 33/58/19 32/59/19
f 31/10/20 35/23/20 33/60/20 34/21/20
f 36/27/21 39/61/21 40/62/21 42/28/21
f 37/9/22 41/36/22 40/63/22 39/64/22
f 38/12/23 42/65/23 40/66/23 41/67/23
f 43/15/24 46/39/24 47/68/24 49/69/24
f 44/13/25 48/70/25 47/71/25 46/72/25
f 45/8/26 49/73/26 47/74/26 48/75/26
f 50/16/27 53/76/27 54/77/27 56/46/27
f 51/7/28 55/78/28 54/79/28 53/80/28
f 52/2/29 56/81/29 54/82/29 55/83/29
f 1/17/30 8/27/30 14/30/30 4/18/30
f 4/23/31 14/34/31 10/5/31 2/4/31
f 15/15/32 22/14/32 28/48/32 18/37/32
f 18/42/33 28/52/33 24/3/33 16/6/33
f 23/2/34 3/1/34 6/26/34 27/49/34
f 27/54/35 6/21/35 2/4/35 24/3/35
f 9/12/36 17/11/36 20/45/36 13/31/36
f 13/36/37 20/40/37 16/6/37 10/5/37
f 31/10/38 37/9/38 39/64/38 35/23/38
f 35/56/39 39/61/39 36/27/39 29/17/39
f 45/8/40 51/7/40 53/80/40 49/73/40
f 49/69/41 53/76/41 50/16/41 43/15/41
f 51/7/42 31/10/42 34/21/42 55/78/42
f 55/83/43 34/57/43 30/1/43 52/2/43
f 37/9/44 45/8/44 48/75/44 41/36/44
f 41/67/45 48/70/45 44/13/45 38/12/45
f 3/1/46 30/1/46 32/59/46 7/24/46
f 7/20/47 32/20/47 29/17/47 1/17/47
f 38/12/48 9/12/48 11/33/48 42/65/48
f 42/28/49 11/28/49 8/27/49 36/27/49
f 17/11/50 44/13/50 46/72/50 21/43/50
f 21/39/51 46/39/51 43/15/51 15/15/51
f 52/2/52 23/2/52 25/51/52 56/81/52
f 56/46/53 25/46/53 22/14/53 50/16/53
f 8/27/54 1/17/54 29/17/54 36/27/54
