# Blender 4.3.2
# www.blender.org
mtllib safe_keys_009.mtl
o safe_buttons.008
v -0.012448 -0.026119 0.000262
v -0.011331 -0.026119 -0.000855
v -0.011331 -0.027235 0.000262
v -0.012121 -0.026119 -0.000528
v -0.011976 -0.026763 -0.000383
v -0.011331 -0.026908 -0.000528
v -0.012121 -0.026908 0.000262
v -0.012448 -0.002578 0.000262
v -0.011331 -0.001462 0.000262
v -0.011331 -0.002578 -0.000855
v -0.012121 -0.001789 0.000262
v -0.011976 -0.001934 -0.000383
v -0.011331 -0.001789 -0.000528
v -0.012121 -0.002578 -0.000528
v 0.012949 -0.002578 0.000262
v 0.011832 -0.002578 -0.000855
v 0.011832 -0.001462 0.000262
v 0.012622 -0.002578 -0.000528
v 0.012477 -0.001934 -0.000383
v 0.011832 -0.001789 -0.000528
v 0.012622 -0.001789 0.000262
v 0.012949 -0.026119 0.000262
v 0.011832 -0.027235 0.000262
v 0.011832 -0.026119 -0.000855
v 0.012622 -0.026908 0.000262
v 0.012477 -0.026763 -0.000383
v 0.011832 -0.026908 -0.000528
v 0.012622 -0.026119 -0.000528
v -0.012448 -0.026119 0.000262
v -0.011331 -0.027235 0.000262
v -0.011331 -0.026119 0.001379
v -0.012121 -0.026908 0.000262
v -0.011976 -0.026763 0.000907
v -0.011331 -0.026908 0.001052
v -0.012121 -0.026119 0.001052
v -0.012448 -0.002578 0.000262
v -0.011331 -0.002578 0.001379
v -0.011331 -0.001462 0.000262
v -0.012121 -0.002578 0.001052
v -0.011976 -0.001934 0.000907
v -0.011331 -0.001789 0.001052
v -0.012121 -0.001789 0.000262
v 0.012949 -0.002578 0.000262
v 0.011832 -0.001462 0.000262
v 0.011832 -0.002578 0.001379
v 0.012622 -0.001789 0.000262
v 0.012477 -0.001934 0.000907
v 0.011832 -0.001789 0.001052
v 0.012622 -0.002578 0.001052
v 0.012949 -0.026119 0.000262
v 0.011832 -0.026119 0.001379
v 0.011832 -0.027235 0.000262
v 0.012622 -0.026119 0.001052
v 0.012477 -0.026763 0.000907
v 0.011832 -0.026908 0.001052
v 0.012622 -0.026908 0.000262
vn -0.0000 -1.0000 -0.0000
vn -0.0000 -0.0000 -1.0000
vn -0.0000 -0.0000 1.0000
vn -0.0000 1.0000 -0.0000
vn 1.0000 -0.0000 -0.0000
vn -0.8881 -0.3251 -0.3251
vn -0.3251 -0.3251 -0.8881
vn -0.3251 -0.8881 -0.3251
vn -0.8881 0.3251 -0.3251
vn -0.3251 0.8881 -0.3251
vn -0.3251 0.3251 -0.8881
vn 0.8881 0.3251 -0.3251
vn 0.3251 0.3251 -0.8881
vn 0.3251 0.8881 -0.3251
vn 0.8881 -0.3251 -0.3251
vn 0.3251 -0.8881 -0.3251
vn 0.3251 -0.3251 -0.8881
vn -0.8881 -0.3251 0.3251
vn -0.3251 -0.8881 0.3251
vn -0.3251 -0.3251 0.8881
vn -0.8881 0.3251 0.3251
vn -0.3251 0.3251 0.8881
vn -0.3251 0.8881 0.3251
vn 0.8881 0.3251 0.3251
vn 0.3251 0.8881 0.3251
vn 0.3251 0.3251 0.8881
vn 0.8881 -0.3251 0.3251
vn 0.3251 -0.3251 0.8881
vn 0.3251 -0.8881 0.3251
vn -0.9239 -0.0000 -0.3827
vn -0.3827 -0.0000 -0.9239
vn 0.9239 -0.0000 -0.3827
vn 0.3827 -0.0000 -0.9239
vn -0.0000 -0.9239 -0.3827
vn -0.0000 -0.3827 -0.9239
vn -0.0000 0.9239 -0.3827
vn -0.0000 0.3827 -0.9239
vn -0.3827 -0.0000 0.9239
vn -0.9239 -0.0000 0.3827
vn 0.3827 -0.0000 0.9239
vn 0.9239 -0.0000 0.3827
vn -0.0000 -0.3827 0.9239
vn -0.0000 -0.9239 0.3827
vn -0.0000 0.3827 0.9239
vn -0.0000 0.9239 0.3827
vn -0.3827 -0.9239 -0.0000
vn -0.9239 -0.3827 -0.0000
vn -0.3827 0.9239 -0.0000
vn -0.9239 0.3827 -0.0000
vn 0.3827 0.9239 -0.0000
vn 0.9239 0.3827 -0.0000
vn 0.3827 -0.9239 -0.0000
vn 0.9239 -0.3827 -0.0000
vn -1.0000 -0.0000 -0.0000
vt 0.041451 0.515130
vt 0.065852 0.515130
vt 0.117577 0.592069
vt 0.032719 0.592069
vt 0.032719 0.745382
vt 0.117577 0.745382
vt 0.032719 0.592069
vt 0.071984 0.515130
vt 0.035320 0.515130
vt 0.053652 0.482009
vt 0.053652 0.548250
vt 0.053652 0.548250
vt 0.053652 0.482009
vt 0.053652 0.493088
vt 0.054828 0.493088
vt 0.054828 0.491880
vt 0.053652 0.490996
vt 0.032719 0.584795
vt 0.030356 0.584795
vt 0.028627 0.592069
vt 0.040275 0.515130
vt 0.040275 0.516337
vt 0.041451 0.517221
vt 0.053652 0.537172
vt 0.053652 0.539264
vt 0.054331 0.539264
vt 0.054828 0.537172
vt 0.035320 0.518273
vt 0.034299 0.518273
vt 0.033552 0.515130
vt 0.028627 0.745382
vt 0.028627 0.749582
vt 0.032719 0.752656
vt 0.055420 0.548250
vt 0.055420 0.550065
vt 0.053652 0.551393
vt 0.117577 0.752656
vt 0.119939 0.752656
vt 0.121669 0.745382
vt 0.073752 0.515130
vt 0.073752 0.516944
vt 0.071984 0.518273
vt 0.053652 0.478867
vt 0.054672 0.478867
vt 0.055420 0.482009
vt 0.065852 0.517221
vt 0.066531 0.517221
vt 0.067029 0.515130
vt 0.121669 0.592069
vt 0.121669 0.587869
vt 0.117577 0.584795
vt 0.052972 0.490996
vt 0.052475 0.493088
vt 0.041451 0.513038
vt 0.040772 0.513038
vt 0.028627 0.592069
vt 0.028627 0.587869
vt 0.032719 0.584795
vt 0.052475 0.537172
vt 0.052475 0.538380
vt 0.053652 0.539264
vt 0.032719 0.752656
vt 0.030356 0.752656
vt 0.028627 0.745382
vt 0.033552 0.515130
vt 0.033552 0.513315
vt 0.035320 0.511987
vt 0.052631 0.551393
vt 0.051884 0.548250
vt 0.071984 0.511987
vt 0.073004 0.511987
vt 0.073752 0.515130
vt 0.121669 0.745382
vt 0.121669 0.749582
vt 0.117577 0.752656
vt 0.051884 0.482009
vt 0.051884 0.480195
vt 0.053652 0.478867
vt 0.117577 0.584795
vt 0.119939 0.584795
vt 0.067029 0.513922
vt 0.065852 0.513038
s 0
usemtl Numbers
f 3/1/1 23/2/1 52/2/1 30/1/1
f 24/3/2 2/4/2 10/5/2 16/6/2
f 51/3/3 45/6/3 37/5/3 31/7/3
f 17/8/4 9/9/4 38/9/4 44/8/4
f 22/10/5 15/11/5 43/12/5 50/13/5
f 1/14/6 4/15/6 5/16/6 7/17/6
f 2/4/7 6/18/7 5/19/7 4/20/7
f 3/1/8 7/21/8 5/22/8 6/23/8
f 8/24/9 11/25/9 12/26/9 14/27/9
f 9/9/10 13/28/10 12/29/10 11/30/10
f 10/5/11 14/31/11 12/32/11 13/33/11
f 15/11/12 18/34/12 19/35/12 21/36/12
f 16/6/13 20/37/13 19/38/13 18/39/13
f 17/8/14 21/40/14 19/41/14 20/42/14
f 22/10/15 25/43/15 26/44/15 28/45/15
f 23/2/16 27/46/16 26/47/16 25/48/16
f 24/3/17 28/49/17 26/50/17 27/51/17
f 29/14/18 32/17/18 33/52/18 35/53/18
f 30/1/19 34/54/19 33/55/19 32/21/19
f 31/7/20 35/56/20 33/57/20 34/58/20
f 36/24/21 39/59/21 40/60/21 42/61/21
f 37/5/22 41/62/22 40/63/22 39/64/22
f 38/9/23 42/65/23 40/66/23 41/67/23
f 43/12/24 46/36/24 47/68/24 49/69/24
f 44/8/25 48/70/25 47/71/25 46/72/25
f 45/6/26 49/73/26 47/74/26 48/75/26
f 50/13/27 53/76/27 54/77/27 56/78/27
f 51/3/28 55/79/28 54/80/28 53/49/28
f 52/2/29 56/48/29 54/81/29 55/82/29
f 1/14/30 8/24/30 14/27/30 4/15/30
f 4/20/31 14/31/31 10/5/31 2/4/31
f 15/11/32 22/10/32 28/45/32 18/34/32
f 18/39/33 28/49/33 24/3/33 16/6/33
f 23/2/34 3/1/34 6/23/34 27/46/34
f 27/51/35 6/18/35 2/4/35 24/3/35
f 9/9/36 17/8/36 20/42/36 13/28/36
f 13/33/37 20/37/37 16/6/37 10/5/37
f 31/7/38 37/5/38 39/64/38 35/56/38
f 35/53/39 39/59/39 36/24/39 29/14/39
f 45/6/40 51/3/40 53/49/40 49/73/40
f 49/69/41 53/76/41 50/13/41 43/12/41
f 51/3/42 31/7/42 34/58/42 55/79/42
f 55/82/43 34/54/43 30/1/43 52/2/43
f 37/5/44 45/6/44 48/75/44 41/62/44
f 41/67/45 48/70/45 44/8/45 38/9/45
f 3/1/46 30/1/46 32/21/46 7/21/46
f 7/17/47 32/17/47 29/14/47 1/14/47
f 38/9/48 9/9/48 11/30/48 42/65/48
f 42/61/49 11/25/49 8/24/49 36/24/49
f 17/8/50 44/8/50 46/72/50 21/40/50
f 21/36/51 46/36/51 43/12/51 15/11/51
f 52/2/52 23/2/52 25/48/52 56/48/52
f 56/78/53 25/43/53 22/10/53 50/13/53
f 8/24/54 1/14/54 29/14/54 36/24/54
