# Blender 4.3.2
# www.blender.org
mtllib safe_keys_e.mtl
o safe_buttons.e
v 0.016309 -0.054714 0.000262
v 0.017426 -0.054714 -0.000855
v 0.017426 -0.055831 0.000262
v 0.016636 -0.054714 -0.000528
v 0.016781 -0.055359 -0.000383
v 0.017426 -0.055504 -0.000528
v 0.016636 -0.055504 0.000262
v 0.016309 -0.031174 0.000262
v 0.017426 -0.030057 0.000262
v 0.017426 -0.031174 -0.000855
v 0.016636 -0.030384 0.000262
v 0.016781 -0.030529 -0.000383
v 0.017426 -0.030384 -0.000528
v 0.016636 -0.031174 -0.000528
v 0.041706 -0.031174 0.000262
v 0.040589 -0.031174 -0.000855
v 0.040589 -0.030057 0.000262
v 0.041379 -0.031174 -0.000528
v 0.041234 -0.030529 -0.000383
v 0.040589 -0.030384 -0.000528
v 0.041379 -0.030384 0.000262
v 0.041706 -0.054714 0.000262
v 0.040589 -0.055831 0.000262
v 0.040589 -0.054714 -0.000855
v 0.041379 -0.055504 0.000262
v 0.041234 -0.055359 -0.000383
v 0.040589 -0.055504 -0.000528
v 0.041379 -0.054714 -0.000528
v 0.016309 -0.054714 0.000262
v 0.017426 -0.055831 0.000262
v 0.017426 -0.054714 0.001379
v 0.016636 -0.055504 0.000262
v 0.016781 -0.055359 0.000907
v 0.017426 -0.055504 0.001052
v 0.016636 -0.054714 0.001052
v 0.016309 -0.031174 0.000262
v 0.017426 -0.031174 0.001379
v 0.017426 -0.030057 0.000262
v 0.016636 -0.031174 0.001052
v 0.016781 -0.030529 0.000907
v 0.017426 -0.030384 0.001052
v 0.016636 -0.030384 0.000262
v 0.041706 -0.031174 0.000262
v 0.040589 -0.030057 0.000262
v 0.040589 -0.031174 0.001379
v 0.041379 -0.030384 0.000262
v 0.041234 -0.030529 0.000907
v 0.040589 -0.030384 0.001052
v 0.041379 -0.031174 0.001052
v 0.041706 -0.054714 0.000262
v 0.040589 -0.054714 0.001379
v 0.040589 -0.055831 0.000262
v 0.041379 -0.054714 0.001052
v 0.041234 -0.055359 0.000907
v 0.040589 -0.055504 0.001052
v 0.041379 -0.055504 0.000262
vn -0.0000 -1.0000 -0.0000
vn 1.0000 -0.0000 -0.0000
vn -0.0000 -0.0000 -1.0000
vn -0.0000 -0.0000 1.0000
vn -0.0000 1.0000 -0.0000
vn -0.8881 -0.3251 -0.3251
vn -0.3251 -0.3251 -0.8881
vn -0.3251 -0.8881 -0.3251
vn -0.8881 0.3251 -0.3251
vn -0.3251 0.8881 -0.3251
vn -0.3251 0.3251 -0.8881
vn 0.8881 0.3251 -0.3251
vn 0.3251 0.3251 -0.8881
vn 0.3251 0.8881 -0.3251
vn 0.8881 -0.3251 -0.3251
vn 0.3251 -0.8881 -0.3251
vn 0.3251 -0.3251 -0.8881
vn -0.8881 -0.3251 0.3251
vn -0.3251 -0.8881 0.3251
vn -0.3251 -0.3251 0.8881
vn -0.8881 0.3251 0.3251
vn -0.3251 0.3251 0.8881
vn -0.3251 0.8881 0.3251
vn 0.8881 0.3251 0.3251
vn 0.3251 0.8881 0.3251
vn 0.3251 0.3251 0.8881
vn 0.8881 -0.3251 0.3251
vn 0.3251 -0.3251 0.8881
vn 0.3251 -0.8881 0.3251
vn -0.9239 -0.0000 -0.3827
vn -0.3827 -0.0000 -0.9239
vn 0.9239 -0.0000 -0.3827
vn 0.3827 -0.0000 -0.9239
vn -0.0000 -0.9239 -0.3827
vn -0.0000 -0.3827 -0.9239
vn -0.0000 0.9239 -0.3827
vn -0.0000 0.3827 -0.9239
vn -0.3827 -0.0000 0.9239
vn -0.9239 -0.0000 0.3827
vn 0.3827 -0.0000 0.9239
vn 0.9239 -0.0000 0.3827
vn -0.0000 -0.3827 0.9239
vn -0.0000 -0.9239 0.3827
vn -0.0000 0.3827 0.9239
vn -0.0000 0.9239 0.3827
vn -0.9239 0.3827 -0.0000
vn -0.3827 0.9239 -0.0000
vn 0.9239 0.3827 -0.0000
vn 0.3827 0.9239 -0.0000
vn -0.3827 -0.9239 -0.0000
vn -0.9239 -0.3827 -0.0000
vn 0.3827 -0.9239 -0.0000
vn 0.9239 -0.3827 -0.0000
vn -1.0000 -0.0000 -0.0000
vt 0.387532 0.527685
vt 0.435656 0.527685
vt 0.411594 0.484211
vt 0.411594 0.571158
vt 0.483248 0.626970
vt 0.403601 0.626970
vt 0.403601 0.770866
vt 0.483248 0.770866
vt 0.403601 0.626970
vt 0.428346 0.527685
vt 0.394841 0.527685
vt 0.411594 0.497418
vt 0.413209 0.497418
vt 0.413209 0.495760
vt 0.411594 0.494546
vt 0.403601 0.620143
vt 0.401384 0.620143
vt 0.399761 0.626970
vt 0.385211 0.527685
vt 0.385211 0.530066
vt 0.387532 0.531810
vt 0.411594 0.557951
vt 0.411594 0.560824
vt 0.412527 0.560824
vt 0.413209 0.557951
vt 0.394841 0.530557
vt 0.393909 0.530557
vt 0.393226 0.527685
vt 0.399761 0.770866
vt 0.399761 0.774808
vt 0.403601 0.777694
vt 0.413914 0.571158
vt 0.413914 0.573540
vt 0.411594 0.575283
vt 0.483248 0.777694
vt 0.485465 0.777694
vt 0.487088 0.770866
vt 0.429962 0.527685
vt 0.429962 0.529343
vt 0.428346 0.530557
vt 0.411594 0.480086
vt 0.412934 0.480086
vt 0.413914 0.484211
vt 0.435656 0.531810
vt 0.436996 0.531810
vt 0.437977 0.527685
vt 0.487088 0.626970
vt 0.487088 0.623028
vt 0.483248 0.620143
vt 0.410661 0.494546
vt 0.409978 0.497418
vt 0.387532 0.523559
vt 0.386192 0.523559
vt 0.385211 0.527685
vt 0.399761 0.623028
vt 0.403601 0.620143
vt 0.409978 0.557951
vt 0.409978 0.559610
vt 0.411594 0.560823
vt 0.401384 0.777694
vt 0.399761 0.770866
vt 0.393226 0.526026
vt 0.394841 0.524813
vt 0.411594 0.575283
vt 0.410254 0.575283
vt 0.409273 0.571158
vt 0.428346 0.524813
vt 0.429279 0.524813
vt 0.487088 0.770866
vt 0.487088 0.774808
vt 0.483248 0.777694
vt 0.409273 0.484211
vt 0.409273 0.481830
vt 0.485465 0.620143
vt 0.487088 0.626970
vt 0.437976 0.525303
vt 0.435656 0.523559
s 0
usemtl Numbers
f 3/1/1 23/2/1 52/2/1 30/1/1
f 22/3/2 15/4/2 43/4/2 50/3/2
f 24/5/3 2/6/3 10/7/3 16/8/3
f 51/5/4 45/8/4 37/7/4 31/9/4
f 17/10/5 9/11/5 38/11/5 44/10/5
f 1/12/6 4/13/6 5/14/6 7/15/6
f 2/6/7 6/16/7 5/17/7 4/18/7
f 3/1/8 7/19/8 5/20/8 6/21/8
f 8/22/9 11/23/9 12/24/9 14/25/9
f 9/11/10 13/26/10 12/27/10 11/28/10
f 10/7/11 14/29/11 12/30/11 13/31/11
f 15/4/12 18/32/12 19/33/12 21/34/12
f 16/8/13 20/35/13 19/36/13 18/37/13
f 17/10/14 21/38/14 19/39/14 20/40/14
f 22/3/15 25/41/15 26/42/15 28/43/15
f 23/2/16 27/44/16 26/45/16 25/46/16
f 24/5/17 28/47/17 26/48/17 27/49/17
f 29/12/18 32/15/18 33/50/18 35/51/18
f 30/1/19 34/52/19 33/53/19 32/54/19
f 31/9/20 35/18/20 33/55/20 34/56/20
f 36/22/21 39/57/21 40/58/21 42/59/21
f 37/7/22 41/31/22 40/60/22 39/61/22
f 38/11/23 42/28/23 40/62/23 41/63/23
f 43/4/24 46/64/24 47/65/24 49/66/24
f 44/10/25 48/67/25 47/68/25 46/38/25
f 45/8/26 49/69/26 47/70/26 48/71/26
f 50/3/27 53/72/27 54/73/27 56/41/27
f 51/5/28 55/49/28 54/74/28 53/75/28
f 52/2/29 56/46/29 54/76/29 55/77/29
f 1/12/30 8/22/30 14/25/30 4/13/30
f 4/18/31 14/29/31 10/7/31 2/6/31
f 15/4/32 22/3/32 28/43/32 18/32/32
f 18/37/33 28/47/33 24/5/33 16/8/33
f 23/2/34 3/1/34 6/21/34 27/44/34
f 27/49/35 6/16/35 2/6/35 24/5/35
f 9/11/36 17/10/36 20/40/36 13/26/36
f 13/31/37 20/35/37 16/8/37 10/7/37
f 31/9/38 37/7/38 39/61/38 35/18/38
f 35/51/39 39/57/39 36/22/39 29/12/39
f 45/8/40 51/5/40 53/75/40 49/69/40
f 49/66/41 53/72/41 50/3/41 43/4/41
f 51/5/42 31/9/42 34/56/42 55/49/42
f 55/77/43 34/52/43 30/1/43 52/2/43
f 37/7/44 45/8/44 48/71/44 41/31/44
f 41/63/45 48/67/45 44/10/45 38/11/45
f 8/22/46 36/22/46 42/59/46 11/23/46
f 11/28/47 42/28/47 38/11/47 9/11/47
f 43/4/48 15/4/48 21/34/48 46/64/48
f 46/38/49 21/38/49 17/10/49 44/10/49
f 3/1/50 30/1/50 32/54/50 7/19/50
f 7/15/51 32/15/51 29/12/51 1/12/51
f 52/2/52 23/2/52 25/46/52 56/46/52
f 56/41/53 25/41/53 22/3/53 50/3/53
f 8/22/54 1/12/54 29/12/54 36/22/54
