# Blender 4.3.2
# www.blender.org
mtllib safe_keys_002.mtl
o safe_buttons.002
v -0.012448 0.031316 0.000262
v -0.011331 0.031316 -0.000855
v -0.011331 0.030199 0.000262
v -0.012121 0.031316 -0.000528
v -0.011976 0.030671 -0.000383
v -0.011331 0.030526 -0.000528
v -0.012121 0.030526 0.000262
v -0.012448 0.054856 0.000262
v -0.011331 0.055973 0.000262
v -0.011331 0.054856 -0.000855
v -0.012121 0.055646 0.000262
v -0.011976 0.055501 -0.000383
v -0.011331 0.055646 -0.000528
v -0.012121 0.054856 -0.000528
v 0.012949 0.054856 0.000262
v 0.011832 0.054856 -0.000855
v 0.011832 0.055973 0.000262
v 0.012622 0.054856 -0.000528
v 0.012477 0.055501 -0.000383
v 0.011832 0.055646 -0.000528
v 0.012622 0.055646 0.000262
v 0.012949 0.031316 0.000262
v 0.011832 0.030199 0.000262
v 0.011832 0.031316 -0.000855
v 0.012622 0.030526 0.000262
v 0.012477 0.030671 -0.000383
v 0.011832 0.030526 -0.000528
v 0.012622 0.031316 -0.000528
v -0.012448 0.031316 0.000262
v -0.011331 0.030199 0.000262
v -0.011331 0.031316 0.001379
v -0.012121 0.030526 0.000262
v -0.011976 0.030671 0.000907
v -0.011331 0.030526 0.001052
v -0.012121 0.031316 0.001052
v -0.012448 0.054856 0.000262
v -0.011331 0.054856 0.001379
v -0.011331 0.055973 0.000262
v -0.012121 0.054856 0.001052
v -0.011976 0.055501 0.000907
v -0.011331 0.055646 0.001052
v -0.012121 0.055646 0.000262
v 0.012949 0.054856 0.000262
v 0.011832 0.055973 0.000262
v 0.011832 0.054856 0.001379
v 0.012622 0.055646 0.000262
v 0.012477 0.055501 0.000907
v 0.011832 0.055646 0.001052
v 0.012622 0.054856 0.001052
v 0.012949 0.031316 0.000262
v 0.011832 0.031316 0.001379
v 0.011832 0.030199 0.000262
v 0.012622 0.031316 0.001052
v 0.012477 0.030671 0.000907
v 0.011832 0.030526 0.001052
v 0.012622 0.030526 0.000262
vn -0.0000 -1.0000 -0.0000
vn -0.0000 -0.0000 -1.0000
vn -0.0000 -0.0000 1.0000
vn -0.0000 1.0000 -0.0000
vn 1.0000 -0.0000 -0.0000
vn -0.8881 -0.3251 -0.3251
vn -0.3251 -0.3251 -0.8881
vn -0.3251 -0.8881 -0.3251
vn -0.8881 0.3251 -0.3251
vn -0.3251 0.8881 -0.3251
vn -0.3251 0.3251 -0.8881
vn 0.8881 0.3251 -0.3251
vn 0.3251 0.3251 -0.8881
vn 0.3251 0.8881 -0.3251
vn 0.8881 -0.3251 -0.3251
vn 0.3251 -0.8881 -0.3251
vn 0.3251 -0.3251 -0.8881
vn -0.8881 -0.3251 0.3251
vn -0.3251 -0.8881 0.3251
vn -0.3251 -0.3251 0.8881
vn -0.8881 0.3251 0.3251
vn -0.3251 0.3251 0.8881
vn -0.3251 0.8881 0.3251
vn 0.8881 0.3251 0.3251
vn 0.3251 0.8881 0.3251
vn 0.3251 0.3251 0.8881
vn 0.8881 -0.3251 0.3251
vn 0.3251 -0.3251 0.8881
vn 0.3251 -0.8881 0.3251
vn -0.9239 -0.0000 -0.3827
vn -0.3827 -0.0000 -0.9239
vn 0.9239 -0.0000 -0.3827
vn 0.3827 -0.0000 -0.9239
vn -0.0000 -0.9239 -0.3827
vn -0.0000 -0.3827 -0.9239
vn -0.0000 0.9239 -0.3827
vn -0.0000 0.3827 -0.9239
vn -0.3827 -0.0000 0.9239
vn -0.9239 -0.0000 0.3827
vn 0.3827 -0.0000 0.9239
vn 0.9239 -0.0000 0.3827
vn -0.0000 -0.3827 0.9239
vn -0.0000 -0.9239 0.3827
vn -0.0000 0.3827 0.9239
vn -0.0000 0.9239 0.3827
vn -0.3827 -0.9239 -0.0000
vn -0.9239 -0.3827 -0.0000
vn -0.3827 0.9239 -0.0000
vn -0.9239 0.3827 -0.0000
vn 0.3827 0.9239 -0.0000
vn 0.9239 0.3827 -0.0000
vn 0.3827 -0.9239 -0.0000
vn 0.9239 -0.3827 -0.0000
vn -1.0000 -0.0000 -0.0000
vt 0.122009 0.732828
vt 0.150349 0.732828
vt 0.214548 0.806363
vt 0.130650 0.806363
vt 0.130650 0.957941
vt 0.214548 0.957941
vt 0.214548 0.806363
vt 0.214548 0.957941
vt 0.130650 0.806363
vt 0.162594 0.732828
vt 0.109764 0.732828
vt 0.109764 0.732828
vt 0.136179 0.685103
vt 0.136179 0.780553
vt 0.136179 0.685104
vt 0.136179 0.707227
vt 0.137546 0.707227
vt 0.137546 0.705824
vt 0.136179 0.704797
vt 0.130650 0.799171
vt 0.128314 0.799171
vt 0.126604 0.806363
vt 0.120642 0.732828
vt 0.120642 0.734231
vt 0.122009 0.735258
vt 0.136179 0.758430
vt 0.136179 0.760859
vt 0.136968 0.760859
vt 0.137546 0.758430
vt 0.109764 0.737357
vt 0.108293 0.737357
vt 0.107216 0.732828
vt 0.126604 0.957941
vt 0.126604 0.962093
vt 0.130650 0.965133
vt 0.138726 0.780553
vt 0.138726 0.783167
vt 0.136179 0.785081
vt 0.214547 0.965133
vt 0.216883 0.965133
vt 0.218593 0.957941
vt 0.165142 0.732828
vt 0.165142 0.735443
vt 0.162594 0.737357
vt 0.136179 0.680575
vt 0.137650 0.680575
vt 0.138726 0.685103
vt 0.150349 0.735258
vt 0.151138 0.735258
vt 0.151716 0.732828
vt 0.218593 0.806363
vt 0.218593 0.802211
vt 0.214548 0.799171
vt 0.136179 0.707227
vt 0.135390 0.704797
vt 0.134813 0.707227
vt 0.122009 0.730399
vt 0.121220 0.730399
vt 0.126604 0.802211
vt 0.134813 0.758430
vt 0.134813 0.759832
vt 0.128314 0.965133
vt 0.126604 0.957941
vt 0.107216 0.730214
vt 0.109764 0.728300
vt 0.134708 0.785081
vt 0.133632 0.780553
vt 0.162594 0.728300
vt 0.164065 0.728300
vt 0.218593 0.957941
vt 0.218593 0.962093
vt 0.214548 0.965133
vt 0.133632 0.685103
vt 0.133632 0.682489
vt 0.214548 0.799171
vt 0.216883 0.799171
vt 0.151716 0.731426
vt 0.150349 0.730399
s 0
usemtl Numbers
f 3/1/1 23/2/1 52/2/1 30/1/1
f 24/3/2 2/4/2 10/5/2 16/6/2
f 51/7/3 45/8/3 37/5/3 31/9/3
f 17/10/4 9/11/4 38/12/4 44/10/4
f 22/13/5 15/14/5 43/14/5 50/15/5
f 1/16/6 4/17/6 5/18/6 7/19/6
f 2/4/7 6/20/7 5/21/7 4/22/7
f 3/1/8 7/23/8 5/24/8 6/25/8
f 8/26/9 11/27/9 12/28/9 14/29/9
f 9/11/10 13/30/10 12/31/10 11/32/10
f 10/5/11 14/33/11 12/34/11 13/35/11
f 15/14/12 18/36/12 19/37/12 21/38/12
f 16/6/13 20/39/13 19/40/13 18/41/13
f 17/10/14 21/42/14 19/43/14 20/44/14
f 22/13/15 25/45/15 26/46/15 28/47/15
f 23/2/16 27/48/16 26/49/16 25/50/16
f 24/3/17 28/51/17 26/52/17 27/53/17
f 29/54/18 32/19/18 33/55/18 35/56/18
f 30/1/19 34/57/19 33/58/19 32/23/19
f 31/9/20 35/22/20 33/59/20 34/20/20
f 36/26/21 39/60/21 40/61/21 42/27/21
f 37/5/22 41/35/22 40/62/22 39/63/22
f 38/12/23 42/32/23 40/64/23 41/65/23
f 43/14/24 46/38/24 47/66/24 49/67/24
f 44/10/25 48/68/25 47/69/25 46/42/25
f 45/8/26 49/70/26 47/71/26 48/72/26
f 50/15/27 53/73/27 54/74/27 56/45/27
f 51/7/28 55/75/28 54/76/28 53/51/28
f 52/2/29 56/50/29 54/77/29 55/78/29
f 1/16/30 8/26/30 14/29/30 4/17/30
f 4/22/31 14/33/31 10/5/31 2/4/31
f 15/14/32 22/13/32 28/47/32 18/36/32
f 18/41/33 28/51/33 24/3/33 16/6/33
f 23/2/34 3/1/34 6/25/34 27/48/34
f 27/53/35 6/20/35 2/4/35 24/3/35
f 9/11/36 17/10/36 20/44/36 13/30/36
f 13/35/37 20/39/37 16/6/37 10/5/37
f 31/9/38 37/5/38 39/63/38 35/22/38
f 35/56/39 39/60/39 36/26/39 29/54/39
f 45/8/40 51/7/40 53/51/40 49/70/40
f 49/67/41 53/73/41 50/15/41 43/14/41
f 51/7/42 31/9/42 34/20/42 55/75/42
f 55/78/43 34/57/43 30/1/43 52/2/43
f 37/5/44 45/8/44 48/72/44 41/35/44
f 41/65/45 48/68/45 44/10/45 38/12/45
f 3/1/46 30/1/46 32/23/46 7/23/46
f 7/19/47 32/19/47 29/54/47 1/16/47
f 38/12/48 9/11/48 11/32/48 42/32/48
f 42/27/49 11/27/49 8/26/49 36/26/49
f 17/10/50 44/10/50 46/42/50 21/42/50
f 21/38/51 46/38/51 43/14/51 15/14/51
f 52/2/52 23/2/52 25/50/52 56/50/52
f 56/45/53 25/45/53 22/13/53 50/15/53
f 8/26/54 1/16/54 29/54/54 36/26/54
