# Blender 4.3.2
# www.blender.org
mtllib safe_keys_003.mtl
o safe_buttons.003
v 0.016309 0.031316 0.000262
v 0.017426 0.031316 -0.000855
v 0.017426 0.030199 0.000262
v 0.016636 0.031316 -0.000528
v 0.016781 0.030671 -0.000383
v 0.017426 0.030526 -0.000528
v 0.016636 0.030526 0.000262
v 0.016309 0.054856 0.000262
v 0.017426 0.055973 0.000262
v 0.017426 0.054856 -0.000855
v 0.016636 0.055646 0.000262
v 0.016781 0.055501 -0.000383
v 0.017426 0.055646 -0.000528
v 0.016636 0.054856 -0.000528
v 0.041706 0.054856 0.000262
v 0.040589 0.054856 -0.000855
v 0.040589 0.055973 0.000262
v 0.041379 0.054856 -0.000528
v 0.041234 0.055501 -0.000383
v 0.040589 0.055646 -0.000528
v 0.041379 0.055646 0.000262
v 0.041706 0.031316 0.000262
v 0.040589 0.030199 0.000262
v 0.040589 0.031316 -0.000855
v 0.041379 0.030526 0.000262
v 0.041234 0.030671 -0.000383
v 0.040589 0.030526 -0.000528
v 0.041379 0.031316 -0.000528
v 0.016309 0.031316 0.000262
v 0.017426 0.030199 0.000262
v 0.017426 0.031316 0.001379
v 0.016636 0.030526 0.000262
v 0.016781 0.030671 0.000907
v 0.017426 0.030526 0.001052
v 0.016636 0.031316 0.001052
v 0.016309 0.054856 0.000262
v 0.017426 0.054856 0.001379
v 0.017426 0.055973 0.000262
v 0.016636 0.054856 0.001052
v 0.016781 0.055501 0.000907
v 0.017426 0.055646 0.001052
v 0.016636 0.055646 0.000262
v 0.041706 0.054856 0.000262
v 0.040589 0.055973 0.000262
v 0.040589 0.054856 0.001379
v 0.041379 0.055646 0.000262
v 0.041234 0.055501 0.000907
v 0.040589 0.055646 0.001052
v 0.041379 0.054856 0.001052
v 0.041706 0.031316 0.000262
v 0.040589 0.031316 0.001379
v 0.040589 0.030199 0.000262
v 0.041379 0.031316 0.001052
v 0.041234 0.030671 0.000907
v 0.040589 0.030526 0.001052
v 0.041379 0.030526 0.000262
vn -0.0000 -1.0000 -0.0000
vn 1.0000 -0.0000 -0.0000
vn -0.0000 -0.0000 -1.0000
vn -0.0000 -0.0000 1.0000
vn -0.0000 1.0000 -0.0000
vn -0.8881 -0.3251 -0.3251
vn -0.3251 -0.3251 -0.8881
vn -0.3251 -0.8881 -0.3251
vn -0.8881 0.3251 -0.3251
vn -0.3251 0.8881 -0.3251
vn -0.3251 0.3251 -0.8881
vn 0.8881 0.3251 -0.3251
vn 0.3251 0.3251 -0.8881
vn 0.3251 0.8881 -0.3251
vn 0.8881 -0.3251 -0.3251
vn 0.3251 -0.8881 -0.3251
vn 0.3251 -0.3251 -0.8881
vn -0.8881 -0.3251 0.3251
vn -0.3251 -0.8881 0.3251
vn -0.3251 -0.3251 0.8881
vn -0.8881 0.3251 0.3251
vn -0.3251 0.3251 0.8881
vn -0.3251 0.8881 0.3251
vn 0.8881 0.3251 0.3251
vn 0.3251 0.8881 0.3251
vn 0.3251 0.3251 0.8881
vn 0.8881 -0.3251 0.3251
vn 0.3251 -0.3251 0.8881
vn 0.3251 -0.8881 0.3251
vn -0.9239 -0.0000 -0.3827
vn -0.3827 -0.0000 -0.9239
vn 0.9239 -0.0000 -0.3827
vn 0.3827 -0.0000 -0.9239
vn -0.0000 -0.9239 -0.3827
vn -0.0000 -0.3827 -0.9239
vn -0.0000 0.9239 -0.3827
vn -0.0000 0.3827 -0.9239
vn -0.3827 -0.0000 0.9239
vn -0.9239 -0.0000 0.3827
vn 0.3827 -0.0000 0.9239
vn 0.9239 -0.0000 0.3827
vn -0.0000 -0.3827 0.9239
vn -0.0000 -0.9239 0.3827
vn -0.0000 0.3827 0.9239
vn -0.0000 0.9239 0.3827
vn -0.9239 0.3827 -0.0000
vn -0.3827 0.9239 -0.0000
vn 0.9239 0.3827 -0.0000
vn 0.3827 0.9239 -0.0000
vn -0.3827 -0.9239 -0.0000
vn -0.9239 -0.3827 -0.0000
vn 0.3827 -0.9239 -0.0000
vn 0.9239 -0.3827 -0.0000
vn -1.0000 -0.0000 -0.0000
vt 0.222389 0.751339
vt 0.268319 0.751339
vt 0.245354 0.709848
vt 0.245354 0.792829
vt 0.321664 0.818826
vt 0.241800 0.818826
vt 0.241800 0.963116
vt 0.321664 0.963116
vt 0.321664 0.963116
vt 0.241800 0.963116
vt 0.260672 0.751339
vt 0.230037 0.751339
vt 0.245354 0.723664
vt 0.246832 0.723664
vt 0.246832 0.722148
vt 0.245354 0.721038
vt 0.241800 0.811980
vt 0.239577 0.811980
vt 0.237949 0.818826
vt 0.220175 0.751339
vt 0.220175 0.753612
vt 0.222389 0.755276
vt 0.245354 0.779013
vt 0.245354 0.781639
vt 0.246207 0.781639
vt 0.246832 0.779013
vt 0.230037 0.753965
vt 0.229184 0.753965
vt 0.228559 0.751339
vt 0.237949 0.963116
vt 0.237949 0.967069
vt 0.241800 0.969962
vt 0.247569 0.792829
vt 0.247569 0.795102
vt 0.245354 0.796766
vt 0.321664 0.969962
vt 0.323888 0.969962
vt 0.325515 0.963116
vt 0.262149 0.751339
vt 0.262149 0.752855
vt 0.260672 0.753965
vt 0.245354 0.705911
vt 0.246633 0.705911
vt 0.247569 0.709848
vt 0.268319 0.755276
vt 0.269598 0.755276
vt 0.270534 0.751339
vt 0.325515 0.818826
vt 0.325515 0.814873
vt 0.321664 0.811980
vt 0.244502 0.721038
vt 0.243877 0.723664
vt 0.222389 0.747401
vt 0.221111 0.747401
vt 0.220175 0.751338
vt 0.237949 0.818826
vt 0.237949 0.814873
vt 0.243877 0.779013
vt 0.243877 0.780529
vt 0.241800 0.969962
vt 0.239577 0.969962
vt 0.237949 0.963116
vt 0.228559 0.749822
vt 0.230037 0.748713
vt 0.244076 0.796766
vt 0.243140 0.792829
vt 0.260672 0.748713
vt 0.261525 0.748713
vt 0.325515 0.967069
vt 0.243140 0.709848
vt 0.243140 0.707575
vt 0.323888 0.811980
vt 0.270534 0.751338
vt 0.270534 0.749065
vt 0.268319 0.747401
s 0
usemtl Numbers
f 3/1/1 23/2/1 52/2/1 30/1/1
f 22/3/2 15/4/2 43/4/2 50/3/2
f 24/5/3 2/6/3 10/7/3 16/8/3
f 51/5/4 45/9/4 37/10/4 31/6/4
f 17/11/5 9/12/5 38/12/5 44/11/5
f 1/13/6 4/14/6 5/15/6 7/16/6
f 2/6/7 6/17/7 5/18/7 4/19/7
f 3/1/8 7/20/8 5/21/8 6/22/8
f 8/23/9 11/24/9 12/25/9 14/26/9
f 9/12/10 13/27/10 12/28/10 11/29/10
f 10/7/11 14/30/11 12/31/11 13/32/11
f 15/4/12 18/33/12 19/34/12 21/35/12
f 16/8/13 20/36/13 19/37/13 18/38/13
f 17/11/14 21/39/14 19/40/14 20/41/14
f 22/3/15 25/42/15 26/43/15 28/44/15
f 23/2/16 27/45/16 26/46/16 25/47/16
f 24/5/17 28/48/17 26/49/17 27/50/17
f 29/13/18 32/16/18 33/51/18 35/52/18
f 30/1/19 34/53/19 33/54/19 32/55/19
f 31/6/20 35/56/20 33/57/20 34/17/20
f 36/23/21 39/58/21 40/59/21 42/24/21
f 37/10/22 41/60/22 40/61/22 39/62/22
f 38/12/23 42/29/23 40/63/23 41/64/23
f 43/4/24 46/35/24 47/65/24 49/66/24
f 44/11/25 48/67/25 47/68/25 46/39/25
f 45/9/26 49/38/26 47/69/26 48/36/26
f 50/3/27 53/70/27 54/71/27 56/42/27
f 51/5/28 55/50/28 54/72/28 53/48/28
f 52/2/29 56/73/29 54/74/29 55/75/29
f 1/13/30 8/23/30 14/26/30 4/14/30
f 4/19/31 14/30/31 10/7/31 2/6/31
f 15/4/32 22/3/32 28/44/32 18/33/32
f 18/38/33 28/48/33 24/5/33 16/8/33
f 23/2/34 3/1/34 6/22/34 27/45/34
f 27/50/35 6/17/35 2/6/35 24/5/35
f 9/12/36 17/11/36 20/41/36 13/27/36
f 13/32/37 20/36/37 16/8/37 10/7/37
f 31/6/38 37/10/38 39/62/38 35/56/38
f 35/52/39 39/58/39 36/23/39 29/13/39
f 45/9/40 51/5/40 53/48/40 49/38/40
f 49/66/41 53/70/41 50/3/41 43/4/41
f 51/5/42 31/6/42 34/17/42 55/50/42
f 55/75/43 34/53/43 30/1/43 52/2/43
f 37/10/44 45/9/44 48/36/44 41/60/44
f 41/64/45 48/67/45 44/11/45 38/12/45
f 8/23/46 36/23/46 42/24/46 11/24/46
f 11/29/47 42/29/47 38/12/47 9/12/47
f 43/4/48 15/4/48 21/35/48 46/35/48
f 46/39/49 21/39/49 17/11/49 44/11/49
f 3/1/50 30/1/50 32/55/50 7/20/50
f 7/16/51 32/16/51 29/13/51 1/13/51
f 52/2/52 23/2/52 25/47/52 56/73/52
f 56/42/53 25/42/53 22/3/53 50/3/53
f 8/23/54 1/13/54 29/13/54 36/23/54
