# Blender 5.1.1
# www.blender.org
mtllib wall_straight_interact_brick.mtl
o brick.004
v 0.179194 0.101308 0.180976
v 0.179194 0.101308 -0.180976
v -0.175567 0.101308 -0.180976
v -0.175567 0.101308 0.180976
v 0.179194 -0.081584 0.180976
v 0.179194 -0.081584 -0.180976
v -0.175567 -0.081584 -0.180976
v -0.175567 -0.081584 0.180976
v 0.214307 0.106338 -0.163419
v 0.196750 0.106338 -0.180976
v 0.196750 0.123894 -0.163419
v 0.209165 0.106338 -0.175834
v 0.206887 0.116474 -0.173556
v 0.196750 0.118752 -0.175834
v 0.209165 0.118752 -0.163419
v 0.196750 -0.093258 -0.180976
v 0.214307 -0.093258 -0.163419
v 0.196750 -0.110815 -0.163419
v 0.209165 -0.093258 -0.175834
v 0.206887 -0.103395 -0.173556
v 0.209165 -0.105673 -0.163419
v 0.196750 -0.105673 -0.175834
v 0.214307 0.106338 0.163419
v 0.196750 0.123894 0.163419
v 0.196750 0.106338 0.180976
v 0.209165 0.118752 0.163419
v 0.206887 0.116474 0.173556
v 0.196750 0.118752 0.175834
v 0.209165 0.106338 0.175834
v 0.196750 -0.110815 0.163419
v 0.214307 -0.093258 0.163419
v 0.196750 -0.093258 0.180976
v 0.209165 -0.105673 0.163419
v 0.206887 -0.103395 0.173556
v 0.209165 -0.093258 0.175834
v 0.196750 -0.105673 0.175834
v -0.193123 0.106338 -0.163419
v -0.175567 0.123894 -0.163419
v -0.175567 0.106338 -0.180976
v -0.187981 0.118752 -0.163419
v -0.185703 0.116474 -0.173556
v -0.175567 0.118752 -0.175834
v -0.187981 0.106338 -0.175834
v -0.175567 -0.093258 -0.180976
v -0.175567 -0.110815 -0.163419
v -0.193123 -0.093258 -0.163419
v -0.175567 -0.105673 -0.175834
v -0.185703 -0.103395 -0.173556
v -0.187981 -0.105673 -0.163419
v -0.187981 -0.093258 -0.175834
v -0.175567 0.123894 0.163419
v -0.193123 0.106338 0.163419
v -0.175567 0.106338 0.180976
v -0.187981 0.118752 0.163419
v -0.185703 0.116474 0.173556
v -0.187981 0.106338 0.175834
v -0.175567 0.118752 0.175834
v -0.193123 -0.093258 0.163419
v -0.175567 -0.110815 0.163419
v -0.175567 -0.093258 0.180976
v -0.187981 -0.105673 0.163419
v -0.185703 -0.103395 0.173556
v -0.175567 -0.105673 0.175834
v -0.187981 -0.093258 0.175834
v 0.179194 0.123894 0.163419
v 0.179194 0.106338 0.180976
v 0.179194 0.118752 0.175834
v 0.179194 -0.093258 0.180976
v 0.179194 -0.110815 0.163419
v 0.179194 -0.105673 0.175834
v 0.179194 0.106338 -0.180976
v 0.179194 0.123894 -0.163419
v 0.179194 0.118752 -0.175834
v 0.179194 -0.110815 -0.163419
v 0.179194 -0.093258 -0.180976
v 0.179194 -0.105673 -0.175834
v -0.175567 0.106338 0.180976
v -0.175567 0.123894 0.163419
v -0.175567 0.118752 0.175834
v -0.175567 -0.093258 -0.180976
v -0.175567 -0.110815 -0.163419
v -0.175567 -0.105673 -0.175834
v -0.175567 -0.093258 0.180976
v -0.175567 -0.110815 0.163419
v -0.175567 -0.105673 0.175834
v -0.175567 0.106338 -0.180976
v -0.175567 0.123894 -0.163419
v -0.175567 0.118752 -0.175834
v 0.214307 0.101308 -0.163419
v 0.196750 0.101308 -0.180976
v 0.209165 0.101308 -0.175834
v -0.175567 0.101308 -0.180976
v -0.193123 0.101308 -0.163419
v -0.187981 0.101308 -0.175834
v -0.193123 0.101308 0.163419
v -0.175567 0.101308 0.180976
v -0.187981 0.101308 0.175834
v 0.196750 0.101308 0.180976
v 0.214307 0.101308 0.163419
v 0.209165 0.101308 0.175834
v 0.196750 -0.081584 -0.180976
v 0.214307 -0.081584 -0.163419
v 0.209165 -0.081584 -0.175834
v -0.193123 -0.081584 -0.163419
v -0.175567 -0.081584 -0.180976
v -0.187981 -0.081584 -0.175834
v 0.214307 -0.081584 0.163419
v 0.196750 -0.081584 0.180976
v 0.209165 -0.081584 0.175834
v -0.193123 -0.081584 0.163419
v -0.175567 -0.081584 0.180976
v -0.187981 -0.081584 0.175834
vn -0.0000 -0.0000 1.0000
vn -0.0000 -0.0000 -1.0000
vn 0.8881 0.3251 -0.3251
vn 0.3251 0.3251 -0.8881
vn 0.3251 0.8881 -0.3251
vn 0.3251 -0.3251 -0.8881
vn 0.8881 -0.3251 -0.3251
vn 0.3251 -0.8881 -0.3251
vn 0.8881 0.3251 0.3251
vn 0.3251 0.8881 0.3251
vn 0.3251 0.3251 0.8881
vn 0.3251 -0.8881 0.3251
vn 0.8881 -0.3251 0.3251
vn 0.3251 -0.3251 0.8881
vn -0.8881 0.3251 -0.3251
vn -0.3251 0.8881 -0.3251
vn -0.3251 0.3251 -0.8881
vn -0.3251 -0.3251 -0.8881
vn -0.3251 -0.8881 -0.3251
vn -0.8881 -0.3251 -0.3251
vn -0.3251 0.8881 0.3251
vn -0.8881 0.3251 0.3251
vn -0.3251 0.3251 0.8881
vn -0.8881 -0.3251 0.3251
vn -0.3251 -0.8881 0.3251
vn -0.3251 -0.3251 0.8881
vn -0.9497 -0.0000 0.3132
vn -0.2425 -0.0000 0.9701
vn -0.0000 -0.9239 0.3827
vn -0.0000 -0.3827 0.9239
vn 0.3827 0.9239 -0.0000
vn 0.9239 0.3827 -0.0000
vn 0.9239 -0.0000 -0.3827
vn 0.3827 -0.0000 -0.9239
vn -0.0000 0.9239 -0.3827
vn -0.0000 0.3827 -0.9239
vn -0.8949 -0.0000 -0.4462
vn -1.0000 -0.0000 -0.0000
vn -0.3827 -0.9239 -0.0000
vn -0.9239 -0.3827 -0.0000
vn -0.3827 -0.0000 -0.9239
vn -0.9239 -0.0000 -0.3827
vn -0.3827 -0.0000 0.9239
vn -0.9239 -0.0000 0.3827
vn -0.3827 0.9239 -0.0000
vn -0.9239 0.3827 -0.0000
vn 0.3827 -0.0000 0.9239
vn 0.9239 -0.0000 0.3827
vn 0.3827 -0.9239 -0.0000
vn 0.9239 -0.3827 -0.0000
vn -0.0000 0.9239 0.3827
vn -0.0000 0.3827 0.9239
vn -0.0000 -0.9239 -0.3827
vn -0.0000 -0.3827 -0.9239
vn -0.8949 -0.0000 0.4462
vn -0.9497 -0.0000 -0.3132
vn -0.2425 -0.0000 -0.9701
vn -0.0000 1.0000 -0.0000
vn 1.0000 -0.0000 -0.0000
vn -0.0000 -1.0000 -0.0000
vt 0.517325 0.506149
vt 0.517325 0.566677
vt 0.392861 0.566677
vt 0.392861 0.506149
vt 0.530074 0.568505
vt 0.533305 0.568505
vt 0.533305 0.572190
vt 0.530074 0.574888
vt 0.523707 0.568505
vt 0.523707 0.574888
vt 0.527392 0.574888
vt 0.530090 0.568505
vt 0.523707 0.530074
vt 0.530090 0.530074
vt 0.530090 0.531940
vt 0.523707 0.533305
vt 0.523707 0.501905
vt 0.530090 0.501905
vt 0.530090 0.498220
vt 0.523707 0.495522
vt 0.530074 0.501905
vt 0.530074 0.495522
vt 0.531940 0.495522
vt 0.533305 0.501905
vt 0.523707 0.530074
vt 0.527392 0.533305
vt 0.469926 0.568505
vt 0.469926 0.574888
vt 0.468060 0.574888
vt 0.466695 0.568505
vt 0.523707 0.469926
vt 0.523707 0.466695
vt 0.527392 0.466695
vt 0.530090 0.469926
vt 0.530090 0.568505
vt 0.530090 0.572190
vt 0.530090 0.468060
vt 0.469926 0.501905
vt 0.466695 0.501905
vt 0.466695 0.498220
vt 0.469926 0.495522
vt 0.523707 0.501905
vt 0.527392 0.495522
vt 0.530074 0.574888
vt 0.531940 0.574888
vt 0.533305 0.568505
vt 0.392861 0.530074
vt 0.392861 0.533305
vt 0.389176 0.533305
vt 0.386478 0.530074
vt 0.392861 0.568505
vt 0.386478 0.568505
vt 0.386478 0.572190
vt 0.392861 0.574888
vt 0.392861 0.501905
vt 0.392861 0.495522
vt 0.389176 0.495522
vt 0.386478 0.501905
vt 0.392861 0.530074
vt 0.386478 0.531940
vt 0.530074 0.501905
vt 0.533305 0.498220
vt 0.530074 0.495522
vt 0.392861 0.469926
vt 0.386478 0.469926
vt 0.386478 0.468060
vt 0.392861 0.466695
vt 0.466695 0.568505
vt 0.466695 0.572190
vt 0.469926 0.574888
vt 0.389176 0.574888
vt 0.386478 0.568505
vt 0.469926 0.501905
vt 0.469926 0.495522
vt 0.468060 0.495522
vt 0.389176 0.466695
vt 0.386478 0.498220
vt 0.517325 0.469926
vt 0.517325 0.466695
vt 0.517325 0.495522
vt 0.517325 0.501905
vt 0.530074 0.506149
vt 0.533305 0.506149
vt 0.530090 0.506149
vt 0.523707 0.506149
vt 0.517325 0.530074
vt 0.517325 0.533305
vt 0.517325 0.574888
vt 0.517325 0.568505
vt 0.386478 0.506149
vt 0.386478 0.566677
vt 0.466695 0.566677
vt 0.469926 0.566677
vt 0.466695 0.506149
vt 0.469926 0.506149
vt 0.517325 0.530074
vt 0.530074 0.566677
vt 0.533305 0.566677
vt 0.530090 0.566677
vt 0.523707 0.566677
s 0
usemtl 
f 5/1/1 1/2/1 4/3/1 8/4/1
f 7/4/2 3/3/2 2/2/2 6/1/2
f 9/5/3 12/6/3 13/7/3 15/8/3
f 10/9/4 14/10/4 13/11/4 12/12/4
f 11/13/5 15/14/5 13/15/5 14/16/5
f 16/17/6 19/18/6 20/19/6 22/20/6
f 17/21/7 21/22/7 20/23/7 19/24/7
f 18/25/8 22/16/8 20/26/8 21/14/8
f 23/27/9 26/28/9 27/29/9 29/30/9
f 24/31/10 28/32/10 27/33/10 26/34/10
f 25/9/11 29/35/11 27/36/11 28/10/11
f 30/31/12 33/34/12 34/37/12 36/32/12
f 31/38/13 35/39/13 34/40/13 33/41/13
f 32/42/14 36/20/14 34/43/14 35/18/14
f 37/5/15 40/44/15 41/45/15 43/46/15
f 38/47/16 42/48/16 41/49/16 40/50/16
f 39/51/17 43/52/17 41/53/17 42/54/17
f 44/55/18 47/56/18 48/57/18 50/58/18
f 45/59/19 49/50/19 48/60/19 47/48/19
f 46/61/20 50/24/20 48/62/20 49/63/20
f 51/64/21 54/65/21 55/66/21 57/67/21
f 52/27/22 56/68/22 55/69/22 54/70/22
f 53/51/23 57/54/23 55/71/23 56/72/23
f 58/73/24 61/74/24 62/75/24 64/39/24
f 59/64/25 63/67/25 62/76/25 61/65/25
f 60/55/26 64/58/26 62/77/26 63/56/26
f 78/64/27 51/64/27 57/67/27 79/67/27
f 79/54/28 57/54/28 53/51/28 77/51/28
f 69/78/29 30/31/29 36/32/29 70/79/29
f 70/80/30 36/20/30 32/42/30 68/81/30
f 11/13/31 24/31/31 26/34/31 15/14/31
f 15/8/32 26/28/32 23/27/32 9/5/32
f 102/82/33 17/21/33 19/24/33 103/83/33
f 103/84/34 19/18/34 16/17/34 101/85/34
f 72/86/35 11/13/35 14/16/35 73/87/35
f 73/88/36 14/10/36 10/9/36 71/89/36
f 81/59/37 45/59/37 47/48/37 82/48/37
f 82/56/38 47/56/38 44/55/38 80/55/38
f 45/59/39 59/64/39 61/65/39 49/50/39
f 49/63/40 61/74/40 58/73/40 46/61/40
f 105/4/41 44/55/41 50/58/41 106/90/41
f 106/83/42 50/24/42 46/61/42 104/82/42
f 96/3/43 53/51/43 56/72/43 97/91/43
f 97/92/44 56/68/44 52/27/44 95/93/44
f 51/64/45 38/47/45 40/50/45 54/65/45
f 54/70/46 40/44/46 37/5/46 52/27/46
f 108/85/47 32/42/47 35/18/47 109/84/47
f 109/94/48 35/39/48 31/38/48 107/95/48
f 30/31/49 18/25/49 21/14/49 33/34/49
f 33/41/50 21/22/50 17/21/50 31/38/50
f 24/31/51 65/78/51 67/79/51 28/32/51
f 28/10/52 67/88/52 66/89/52 25/9/52
f 84/64/29 69/78/29 70/79/29 85/67/29
f 85/56/30 70/80/30 68/81/30 83/55/30
f 87/59/35 72/86/35 73/87/35 88/48/35
f 88/54/36 73/88/36 71/89/36 86/51/36
f 18/25/53 74/96/53 76/87/53 22/16/53
f 22/20/54 76/80/54 75/81/54 16/17/54
f 65/78/51 78/64/51 79/67/51 67/79/51
f 67/88/52 79/54/52 77/51/52 66/89/52
f 74/96/53 81/59/53 82/48/53 76/87/53
f 76/80/54 82/56/54 80/55/54 75/81/54
f 59/64/55 84/64/55 85/67/55 63/67/55
f 63/56/38 85/56/38 83/55/38 60/55/38
f 38/47/56 87/59/56 88/48/56 42/48/56
f 42/54/57 88/54/57 86/51/57 39/51/57
f 9/5/33 89/97/33 91/98/33 12/6/33
f 12/12/34 91/99/34 90/100/34 10/9/34
f 39/51/41 92/3/41 94/91/41 43/52/41
f 43/46/42 94/98/42 93/97/42 37/5/42
f 111/4/43 96/3/43 97/91/43 112/90/43
f 112/94/44 97/92/44 95/93/44 110/95/44
f 25/9/47 98/100/47 100/99/47 29/35/47
f 29/30/48 100/92/48 99/93/48 23/27/48
f 89/97/33 102/82/33 103/83/33 91/98/33
f 91/99/34 103/84/34 101/85/34 90/100/34
f 92/3/41 105/4/41 106/90/41 94/91/41
f 94/98/42 106/83/42 104/82/42 93/97/42
f 98/100/47 108/85/47 109/84/47 100/99/47
f 100/92/48 109/94/48 107/95/48 99/93/48
f 60/55/43 111/4/43 112/90/43 64/58/43
f 64/39/44 112/94/44 110/95/44 58/73/44
f 11/13/58 72/86/58 65/78/58 24/31/58
f 2/2/2 71/89/2 10/9/2 90/100/2
f 89/97/59 9/5/59 23/27/59 99/93/59
f 17/21/59 102/82/59 107/95/59 31/38/59
f 74/96/60 18/25/60 30/31/60 69/78/60
f 75/81/2 6/1/2 101/85/2 16/17/2
f 98/100/1 25/9/1 66/89/1 1/2/1
f 32/42/1 108/85/1 5/1/1 68/81/1
f 87/59/58 38/47/58 51/64/58 78/64/58
f 92/3/58 39/51/58 86/51/58 3/3/58
f 95/93/38 52/27/38 37/5/38 93/97/38
f 44/55/58 105/4/58 7/4/58 80/55/58
f 45/59/58 81/59/58 84/64/58 59/64/58
f 58/73/38 110/95/38 104/82/38 46/61/38
f 4/3/58 77/51/58 53/51/58 96/3/58
f 83/55/58 8/4/58 111/4/58 60/55/58
f 72/86/58 87/59/58 78/64/58 65/78/58
f 1/2/1 66/89/1 77/51/1 4/3/1
f 81/59/60 74/96/60 69/78/60 84/64/60
f 68/81/1 5/1/1 8/4/1 83/55/1
f 3/3/2 86/51/2 71/89/2 2/2/2
f 80/55/2 7/4/2 6/1/2 75/81/2
f 102/82/59 89/97/59 99/93/59 107/95/59
f 6/1/2 2/2/2 90/100/2 101/85/2
f 105/4/58 92/3/58 3/3/58 7/4/58
f 110/95/38 95/93/38 93/97/38 104/82/38
f 8/4/58 4/3/58 96/3/58 111/4/58
f 108/85/1 98/100/1 1/2/1 5/1/1
o wall_pillar
