# Blender 3.6.4
# www.blender.org
mtllib flashlight.mtl
o flashlight
v -0.122598 -0.000000 -0.041050
v -0.122598 -0.008008 -0.040261
v -0.122598 -0.015709 -0.037925
v -0.122598 -0.022806 -0.034132
v -0.122598 -0.029027 -0.029027
v -0.122598 -0.034132 -0.022806
v -0.122598 -0.037925 -0.015709
v -0.122598 -0.040261 -0.008008
v -0.122598 -0.041050 0.000000
v -0.122598 -0.040261 0.008008
v -0.122598 -0.037925 0.015709
v -0.122598 -0.034132 0.022806
v -0.122598 -0.029027 0.029027
v -0.122598 -0.022806 0.034132
v -0.122598 -0.015709 0.037925
v -0.122598 -0.008008 0.040261
v -0.122598 -0.000000 0.041050
v -0.122598 0.008008 0.040261
v -0.122598 0.015709 0.037925
v -0.122598 0.022806 0.034132
v -0.122598 0.029027 0.029027
v -0.122598 0.034132 0.022806
v -0.122598 0.037925 0.015709
v -0.122598 0.040261 0.008008
v -0.122598 0.041050 0.000000
v -0.122598 0.040261 -0.008008
v -0.122598 0.037925 -0.015709
v -0.122598 0.034132 -0.022806
v -0.122598 0.029027 -0.029027
v -0.122598 0.022806 -0.034132
v -0.122598 0.015709 -0.037925
v -0.122598 0.008008 -0.040261
v -0.158593 -0.000000 -0.050010
v -0.158593 -0.009757 -0.049049
v -0.158593 -0.019138 -0.046204
v -0.158593 -0.027784 -0.041582
v -0.158593 -0.035363 -0.035363
v -0.158593 -0.041582 -0.027784
v -0.158593 -0.046204 -0.019138
v -0.158593 -0.049049 -0.009757
v -0.158593 -0.050010 0.000000
v -0.158593 -0.049049 0.009757
v -0.158593 -0.046204 0.019138
v -0.158593 -0.041582 0.027784
v -0.158593 -0.035363 0.035363
v -0.158593 -0.027784 0.041582
v -0.158593 -0.019138 0.046204
v -0.158593 -0.009757 0.049050
v -0.158593 -0.000000 0.050010
v -0.158593 0.009757 0.049050
v -0.158593 0.019138 0.046204
v -0.158593 0.027784 0.041582
v -0.158593 0.035363 0.035363
v -0.158593 0.041582 0.027784
v -0.158593 0.046204 0.019138
v -0.158593 0.049049 0.009757
v -0.158593 0.050010 0.000000
v -0.158593 0.049049 -0.009757
v -0.158593 0.046204 -0.019138
v -0.158593 0.041582 -0.027784
v -0.158593 0.035363 -0.035363
v -0.158593 0.027784 -0.041582
v -0.158593 0.019138 -0.046204
v -0.158593 0.009757 -0.049049
v -0.264499 -0.000000 -0.043278
v -0.264499 -0.008443 -0.042447
v -0.264499 -0.016562 -0.039984
v -0.264499 -0.024044 -0.035985
v -0.264499 -0.030603 -0.030602
v -0.264499 -0.035985 -0.024044
v -0.264499 -0.039984 -0.016562
v -0.264499 -0.042447 -0.008443
v -0.264499 -0.043278 0.000000
v -0.264499 -0.042447 0.008443
v -0.264499 -0.039984 0.016562
v -0.264499 -0.035985 0.024044
v -0.264499 -0.030603 0.030603
v -0.264499 -0.024044 0.035985
v -0.264499 -0.016562 0.039984
v -0.264499 -0.008443 0.042447
v -0.264499 -0.000000 0.043279
v -0.264499 0.008443 0.042447
v -0.264499 0.016562 0.039984
v -0.264499 0.024044 0.035985
v -0.264499 0.030602 0.030603
v -0.264499 0.035985 0.024044
v -0.264499 0.039984 0.016562
v -0.264499 0.042447 0.008443
v -0.264499 0.043278 0.000000
v -0.264499 0.042447 -0.008443
v -0.264499 0.039984 -0.016562
v -0.264499 0.035985 -0.024044
v -0.264499 0.030602 -0.030602
v -0.264499 0.024044 -0.035985
v -0.264499 0.016562 -0.039984
v -0.264499 0.008443 -0.042447
v 0.122598 0.000000 -0.034441
v 0.102956 0.000000 -0.041050
v 0.121103 0.000000 -0.036970
v 0.116845 0.000000 -0.039114
v 0.110473 0.000000 -0.040547
v 0.122598 -0.006719 -0.033779
v 0.102956 -0.008008 -0.040261
v 0.121103 -0.007213 -0.036260
v 0.116845 -0.007631 -0.038363
v 0.110473 -0.007910 -0.039768
v 0.122598 -0.013180 -0.031819
v 0.102956 -0.015709 -0.037925
v 0.121103 -0.014148 -0.034156
v 0.116845 -0.014968 -0.036137
v 0.110473 -0.015517 -0.037460
v 0.122598 -0.019134 -0.028637
v 0.102956 -0.022806 -0.034132
v 0.121103 -0.020540 -0.030740
v 0.116845 -0.021731 -0.032522
v 0.110473 -0.022527 -0.033713
v 0.122598 -0.024354 -0.024354
v 0.102956 -0.029027 -0.029027
v 0.121103 -0.026142 -0.026142
v 0.116845 -0.027658 -0.027658
v 0.110473 -0.028671 -0.028671
v 0.122598 -0.028637 -0.019134
v 0.102956 -0.034132 -0.022806
v 0.121103 -0.030740 -0.020539
v 0.116845 -0.032522 -0.021731
v 0.110473 -0.033713 -0.022527
v 0.122598 -0.031819 -0.013180
v 0.102956 -0.037925 -0.015709
v 0.121103 -0.034156 -0.014148
v 0.116845 -0.036137 -0.014968
v 0.110473 -0.037460 -0.015517
v 0.122598 -0.033779 -0.006719
v 0.102956 -0.040261 -0.008008
v 0.121103 -0.036260 -0.007212
v 0.116845 -0.038363 -0.007631
v 0.110473 -0.039768 -0.007910
v 0.122598 -0.034441 0.000000
v 0.102956 -0.041050 0.000000
v 0.121103 -0.036970 0.000000
v 0.116845 -0.039114 0.000000
v 0.110473 -0.040547 0.000000
v 0.122598 -0.033779 0.006719
v 0.102956 -0.040261 0.008008
v 0.121103 -0.036260 0.007213
v 0.116845 -0.038363 0.007631
v 0.110473 -0.039768 0.007910
v 0.122598 -0.031819 0.013180
v 0.102956 -0.037925 0.015709
v 0.121103 -0.034156 0.014148
v 0.116845 -0.036137 0.014968
v 0.110473 -0.037460 0.015517
v 0.122598 -0.028637 0.019135
v 0.102956 -0.034132 0.022806
v 0.121103 -0.030740 0.020540
v 0.116845 -0.032522 0.021731
v 0.110473 -0.033713 0.022527
v 0.122598 -0.024354 0.024354
v 0.102956 -0.029027 0.029027
v 0.121103 -0.026142 0.026142
v 0.116845 -0.027658 0.027658
v 0.110473 -0.028671 0.028671
v 0.122598 -0.019134 0.028637
v 0.102956 -0.022806 0.034132
v 0.121103 -0.020540 0.030740
v 0.116845 -0.021731 0.032522
v 0.110473 -0.022527 0.033713
v 0.122598 -0.013180 0.031820
v 0.102956 -0.015709 0.037925
v 0.121103 -0.014148 0.034156
v 0.116845 -0.014968 0.036137
v 0.110473 -0.015517 0.037460
v 0.122598 -0.006719 0.033779
v 0.102956 -0.008008 0.040261
v 0.121103 -0.007213 0.036260
v 0.116845 -0.007631 0.038363
v 0.110473 -0.007910 0.039768
v 0.122598 0.000000 0.034441
v 0.102956 0.000000 0.041050
v 0.121103 0.000000 0.036970
v 0.116845 0.000000 0.039114
v 0.110473 0.000000 0.040547
v 0.122598 0.006719 0.033779
v 0.102956 0.008008 0.040261
v 0.121103 0.007213 0.036260
v 0.116845 0.007631 0.038363
v 0.110473 0.007910 0.039768
v 0.122598 0.013180 0.031820
v 0.102956 0.015709 0.037925
v 0.121103 0.014148 0.034156
v 0.116845 0.014968 0.036137
v 0.110473 0.015517 0.037460
v 0.122598 0.019134 0.028637
v 0.102956 0.022806 0.034132
v 0.121103 0.020540 0.030740
v 0.116845 0.021731 0.032522
v 0.110473 0.022527 0.033713
v 0.122598 0.024354 0.024354
v 0.102956 0.029027 0.029027
v 0.121103 0.026142 0.026142
v 0.116845 0.027658 0.027658
v 0.110473 0.028671 0.028671
v 0.122598 0.028637 0.019135
v 0.102956 0.034132 0.022806
v 0.121103 0.030740 0.020540
v 0.116845 0.032522 0.021731
v 0.110473 0.033713 0.022527
v 0.122598 0.031819 0.013180
v 0.102956 0.037925 0.015709
v 0.121103 0.034156 0.014148
v 0.116845 0.036137 0.014968
v 0.110473 0.037460 0.015517
v 0.122598 0.033779 0.006719
v 0.102956 0.040261 0.008008
v 0.121103 0.036260 0.007213
v 0.116845 0.038363 0.007631
v 0.110473 0.039768 0.007910
v 0.122598 0.034441 0.000000
v 0.102956 0.041050 0.000000
v 0.121103 0.036970 0.000000
v 0.116845 0.039114 0.000000
v 0.110473 0.040547 0.000000
v 0.122598 0.033779 -0.006719
v 0.102956 0.040261 -0.008008
v 0.121103 0.036260 -0.007212
v 0.116845 0.038363 -0.007631
v 0.110473 0.039768 -0.007910
v 0.122598 0.031819 -0.013180
v 0.102956 0.037925 -0.015709
v 0.121103 0.034156 -0.014148
v 0.116845 0.036137 -0.014968
v 0.110473 0.037460 -0.015517
v 0.122598 0.028637 -0.019134
v 0.102956 0.034132 -0.022806
v 0.121103 0.030740 -0.020539
v 0.116845 0.032522 -0.021731
v 0.110473 0.033713 -0.022527
v 0.122598 0.024354 -0.024354
v 0.102956 0.029027 -0.029027
v 0.121103 0.026142 -0.026142
v 0.116845 0.027658 -0.027658
v 0.110473 0.028671 -0.028671
v 0.122598 0.019134 -0.028637
v 0.102956 0.022806 -0.034132
v 0.121103 0.020540 -0.030740
v 0.116845 0.021731 -0.032522
v 0.110473 0.022527 -0.033713
v 0.122598 0.013180 -0.031819
v 0.102956 0.015709 -0.037925
v 0.121103 0.014148 -0.034156
v 0.116845 0.014968 -0.036137
v 0.110473 0.015517 -0.037460
v 0.122598 0.006719 -0.033779
v 0.102956 0.008008 -0.040261
v 0.121103 0.007213 -0.036260
v 0.116845 0.007631 -0.038363
v 0.110473 0.007910 -0.039768
v -0.274568 -0.000000 -0.043278
v -0.277402 -0.000000 -0.046138
v -0.275985 -0.000000 -0.043662
v -0.277022 -0.000000 -0.044708
v -0.277402 -0.009001 -0.045251
v -0.274568 -0.008443 -0.042447
v -0.277022 -0.008722 -0.043849
v -0.275985 -0.008518 -0.042823
v -0.277402 -0.017656 -0.042626
v -0.274568 -0.016562 -0.039984
v -0.277022 -0.017109 -0.041305
v -0.275985 -0.016709 -0.040338
v -0.277402 -0.025633 -0.038362
v -0.274568 -0.024044 -0.035985
v -0.277022 -0.024839 -0.037174
v -0.275985 -0.024257 -0.036303
v -0.277402 -0.032625 -0.032624
v -0.274568 -0.030603 -0.030602
v -0.277022 -0.031614 -0.031613
v -0.275985 -0.030873 -0.030873
v -0.277402 -0.038362 -0.025633
v -0.274568 -0.035985 -0.024044
v -0.277022 -0.037174 -0.024839
v -0.275985 -0.036303 -0.024257
v -0.277402 -0.042626 -0.017656
v -0.274568 -0.039984 -0.016562
v -0.277022 -0.041305 -0.017109
v -0.275985 -0.040338 -0.016709
v -0.277402 -0.045252 -0.009001
v -0.274568 -0.042447 -0.008443
v -0.277022 -0.043849 -0.008722
v -0.275985 -0.042823 -0.008518
v -0.277402 -0.046138 0.000000
v -0.274568 -0.043278 0.000000
v -0.277022 -0.044708 0.000000
v -0.275985 -0.043662 0.000000
v -0.277402 -0.045252 0.009001
v -0.274568 -0.042447 0.008443
v -0.277022 -0.043849 0.008722
v -0.275985 -0.042823 0.008518
v -0.277402 -0.042626 0.017656
v -0.274568 -0.039984 0.016562
v -0.277022 -0.041305 0.017109
v -0.275985 -0.040338 0.016709
v -0.277402 -0.038362 0.025633
v -0.274568 -0.035985 0.024044
v -0.277022 -0.037174 0.024839
v -0.275985 -0.036303 0.024257
v -0.277402 -0.032625 0.032625
v -0.274568 -0.030603 0.030603
v -0.277022 -0.031614 0.031614
v -0.275985 -0.030873 0.030873
v -0.277402 -0.025633 0.038362
v -0.274568 -0.024044 0.035985
v -0.277022 -0.024839 0.037174
v -0.275985 -0.024257 0.036303
v -0.277402 -0.017656 0.042626
v -0.274568 -0.016562 0.039984
v -0.277022 -0.017109 0.041305
v -0.275985 -0.016709 0.040338
v -0.277402 -0.009001 0.045252
v -0.274568 -0.008443 0.042447
v -0.277022 -0.008722 0.043849
v -0.275985 -0.008518 0.042823
v -0.277402 -0.000000 0.046138
v -0.274568 -0.000000 0.043279
v -0.277022 -0.000000 0.044708
v -0.275985 -0.000000 0.043662
v -0.277402 0.009001 0.045252
v -0.274568 0.008443 0.042447
v -0.277022 0.008722 0.043849
v -0.275985 0.008518 0.042823
v -0.277402 0.017656 0.042626
v -0.274568 0.016562 0.039984
v -0.277022 0.017109 0.041305
v -0.275985 0.016709 0.040338
v -0.277402 0.025633 0.038362
v -0.274568 0.024044 0.035985
v -0.277022 0.024839 0.037174
v -0.275985 0.024257 0.036303
v -0.277402 0.032625 0.032625
v -0.274568 0.030602 0.030603
v -0.277022 0.031613 0.031614
v -0.275985 0.030873 0.030873
v -0.277402 0.038362 0.025633
v -0.274568 0.035985 0.024044
v -0.277022 0.037174 0.024839
v -0.275985 0.036303 0.024257
v -0.277402 0.042626 0.017656
v -0.274568 0.039984 0.016562
v -0.277022 0.041305 0.017109
v -0.275985 0.040338 0.016709
v -0.277402 0.045252 0.009001
v -0.274568 0.042447 0.008443
v -0.277022 0.043849 0.008722
v -0.275985 0.042823 0.008518
v -0.277402 0.046138 0.000000
v -0.274568 0.043278 0.000000
v -0.277022 0.044708 0.000000
v -0.275985 0.043662 0.000000
v -0.277402 0.045252 -0.009001
v -0.274568 0.042447 -0.008443
v -0.277022 0.043849 -0.008722
v -0.275985 0.042823 -0.008518
v -0.277402 0.042626 -0.017656
v -0.274568 0.039984 -0.016562
v -0.277022 0.041305 -0.017109
v -0.275985 0.040338 -0.016709
v -0.277402 0.038362 -0.025633
v -0.274568 0.035985 -0.024044
v -0.277022 0.037174 -0.024839
v -0.275985 0.036303 -0.024257
v -0.277402 0.032625 -0.032624
v -0.274568 0.030602 -0.030602
v -0.277022 0.031613 -0.031613
v -0.275985 0.030873 -0.030873
v -0.277402 0.025633 -0.038362
v -0.274568 0.024044 -0.035985
v -0.277022 0.024839 -0.037174
v -0.275985 0.024257 -0.036303
v -0.277402 0.017656 -0.042626
v -0.274568 0.016562 -0.039984
v -0.277022 0.017109 -0.041305
v -0.275985 0.016709 -0.040338
v -0.277402 0.009001 -0.045251
v -0.274568 0.008443 -0.042447
v -0.277022 0.008722 -0.043849
v -0.275985 0.008518 -0.042823
v -0.277402 -0.000000 -0.047151
v -0.274568 -0.000000 -0.050010
v -0.277022 -0.000000 -0.048581
v -0.275985 -0.000000 -0.049627
v -0.274568 -0.009757 -0.049049
v -0.277402 -0.009199 -0.046245
v -0.275985 -0.009682 -0.048674
v -0.277022 -0.009478 -0.047647
v -0.274568 -0.019138 -0.046204
v -0.277402 -0.018044 -0.043562
v -0.275985 -0.018992 -0.045850
v -0.277022 -0.018591 -0.044883
v -0.274568 -0.027784 -0.041582
v -0.277402 -0.026196 -0.039204
v -0.275985 -0.027571 -0.041264
v -0.277022 -0.026990 -0.040393
v -0.274568 -0.035363 -0.035363
v -0.277402 -0.033341 -0.033341
v -0.275985 -0.035092 -0.035092
v -0.277022 -0.034352 -0.034352
v -0.274568 -0.041582 -0.027784
v -0.277402 -0.039204 -0.026196
v -0.275985 -0.041264 -0.027571
v -0.277022 -0.040393 -0.026990
v -0.274568 -0.046204 -0.019138
v -0.277402 -0.043562 -0.018044
v -0.275985 -0.045850 -0.018992
v -0.277022 -0.044883 -0.018591
v -0.274568 -0.049049 -0.009757
v -0.277402 -0.046245 -0.009199
v -0.275985 -0.048674 -0.009682
v -0.277022 -0.047647 -0.009478
v -0.274568 -0.050010 0.000000
v -0.277402 -0.047151 0.000000
v -0.275985 -0.049627 0.000000
v -0.277022 -0.048581 0.000000
v -0.274568 -0.049049 0.009757
v -0.277402 -0.046245 0.009199
v -0.275985 -0.048674 0.009682
v -0.277022 -0.047647 0.009478
v -0.274568 -0.046204 0.019138
v -0.277402 -0.043562 0.018044
v -0.275985 -0.045850 0.018992
v -0.277022 -0.044883 0.018591
v -0.274568 -0.041582 0.027784
v -0.277402 -0.039204 0.026196
v -0.275985 -0.041264 0.027571
v -0.277022 -0.040393 0.026990
v -0.274568 -0.035363 0.035363
v -0.277402 -0.033341 0.033341
v -0.275985 -0.035092 0.035092
v -0.277022 -0.034352 0.034352
v -0.274568 -0.027784 0.041582
v -0.277402 -0.026196 0.039205
v -0.275985 -0.027571 0.041264
v -0.277022 -0.026990 0.040393
v -0.274568 -0.019138 0.046204
v -0.277402 -0.018044 0.043562
v -0.275985 -0.018992 0.045850
v -0.277022 -0.018591 0.044883
v -0.274568 -0.009757 0.049050
v -0.277402 -0.009199 0.046245
v -0.275985 -0.009682 0.048674
v -0.277022 -0.009478 0.047647
v -0.274568 -0.000000 0.050010
v -0.277402 -0.000000 0.047151
v -0.275985 -0.000000 0.049627
v -0.277022 -0.000000 0.048581
v -0.274568 0.009757 0.049050
v -0.277402 0.009199 0.046245
v -0.275985 0.009682 0.048674
v -0.277022 0.009478 0.047647
v -0.274568 0.019138 0.046204
v -0.277402 0.018044 0.043562
v -0.275985 0.018992 0.045850
v -0.277022 0.018591 0.044883
v -0.274568 0.027784 0.041582
v -0.277402 0.026196 0.039205
v -0.275985 0.027571 0.041264
v -0.277022 0.026990 0.040393
v -0.274568 0.035363 0.035363
v -0.277402 0.033341 0.033341
v -0.275985 0.035092 0.035092
v -0.277022 0.034352 0.034352
v -0.274568 0.041582 0.027784
v -0.277402 0.039204 0.026196
v -0.275985 0.041264 0.027571
v -0.277022 0.040393 0.026990
v -0.274568 0.046204 0.019138
v -0.277402 0.043562 0.018044
v -0.275985 0.045850 0.018992
v -0.277022 0.044883 0.018591
v -0.274568 0.049049 0.009757
v -0.277402 0.046245 0.009199
v -0.275985 0.048674 0.009682
v -0.277022 0.047647 0.009478
v -0.274568 0.050010 0.000000
v -0.277402 0.047151 0.000000
v -0.275985 0.049627 0.000000
v -0.277022 0.048581 0.000000
v -0.274568 0.049049 -0.009757
v -0.277402 0.046245 -0.009199
v -0.275985 0.048674 -0.009682
v -0.277022 0.047647 -0.009478
v -0.274568 0.046204 -0.019138
v -0.277402 0.043562 -0.018044
v -0.275985 0.045850 -0.018992
v -0.277022 0.044883 -0.018591
v -0.274568 0.041582 -0.027784
v -0.277402 0.039204 -0.026196
v -0.275985 0.041264 -0.027571
v -0.277022 0.040393 -0.026990
v -0.274568 0.035363 -0.035363
v -0.277402 0.033341 -0.033341
v -0.275985 0.035092 -0.035092
v -0.277022 0.034352 -0.034352
v -0.274568 0.027784 -0.041582
v -0.277402 0.026196 -0.039204
v -0.275985 0.027571 -0.041264
v -0.277022 0.026990 -0.040393
v -0.274568 0.019138 -0.046204
v -0.277402 0.018044 -0.043562
v -0.275985 0.018992 -0.045850
v -0.277022 0.018591 -0.044883
v -0.274568 0.009757 -0.049049
v -0.277402 0.009199 -0.046245
v -0.275985 0.009682 -0.048674
v -0.277022 0.009478 -0.047647
vn 0.1226 0.1936 -0.9734
vn 0.0333 0.1950 -0.9802
vn 0.0333 -0.0000 -0.9994
vn 0.1226 -0.0000 -0.9925
vn 0.1226 -0.3798 -0.9169
vn 0.0333 -0.3825 -0.9234
vn 0.0333 -0.5553 -0.8310
vn 0.1226 -0.5514 -0.8252
vn 0.0333 -0.7067 -0.7067
vn 0.1226 -0.7018 -0.7018
vn 0.0333 -0.8310 -0.5553
vn 0.1226 -0.8252 -0.5514
vn 0.0333 -0.9234 -0.3825
vn 0.1226 -0.9169 -0.3798
vn 0.0333 -0.9802 -0.1950
vn 0.1226 -0.9734 -0.1936
vn 0.0333 -0.9994 -0.0000
vn 0.1226 -0.9925 -0.0000
vn 0.0333 -0.9802 0.1950
vn 0.1226 -0.9734 0.1936
vn 0.0333 -0.9234 0.3825
vn 0.1226 -0.9169 0.3798
vn 0.0333 -0.8310 0.5553
vn 0.1226 -0.8252 0.5514
vn 0.0333 -0.7067 0.7067
vn 0.1226 -0.7018 0.7018
vn 0.0333 -0.5553 0.8310
vn 0.1226 -0.5514 0.8252
vn 0.0333 -0.3825 0.9234
vn 0.1226 -0.3798 0.9169
vn 0.0333 -0.1950 0.9802
vn 0.1226 -0.1936 0.9734
vn 0.0333 -0.0000 0.9994
vn 0.1226 -0.0000 0.9925
vn 0.0333 0.1950 0.9802
vn 0.1226 0.1936 0.9734
vn 0.0333 0.3825 0.9234
vn 0.1226 0.3798 0.9169
vn 0.0333 0.5553 0.8310
vn 0.1226 0.5514 0.8252
vn 0.0333 0.7067 0.7067
vn 0.1226 0.7018 0.7018
vn 0.0333 0.8310 0.5553
vn 0.1226 0.8252 0.5514
vn 0.0333 0.9234 0.3825
vn 0.1226 0.9169 0.3798
vn 0.0333 0.9802 0.1950
vn 0.1226 0.9734 0.1936
vn 0.0333 0.9994 -0.0000
vn 0.1226 0.9925 -0.0000
vn 0.0333 0.9802 -0.1950
vn 0.1226 0.9734 -0.1936
vn 0.0333 0.9234 -0.3825
vn 0.1226 0.9169 -0.3798
vn 0.0333 0.8310 -0.5553
vn 0.1226 0.8252 -0.5514
vn 0.0333 0.7067 -0.7067
vn 0.1226 0.7018 -0.7018
vn 0.0333 0.5553 -0.8310
vn 0.1226 0.5514 -0.8252
vn 0.0333 0.3825 -0.9234
vn 0.1226 0.3798 -0.9169
vn 0.0333 -0.1950 -0.9802
vn 0.1226 -0.1936 -0.9734
vn 0.1208 -0.3799 0.9171
vn 0.1208 -0.5515 0.8254
vn 0.1208 -0.7019 0.7019
vn -0.1306 -0.5508 0.8243
vn -0.1306 -0.7010 0.7010
vn 0.1208 0.9736 0.1937
vn 0.1208 0.9171 0.3799
vn 0.1208 -0.1937 -0.9736
vn 0.1208 -0.0000 -0.9927
vn 0.1208 0.1937 -0.9736
vn 0.1208 -0.9171 0.3799
vn 0.1208 -0.9736 0.1937
vn 0.1208 0.5515 0.8254
vn 0.1208 0.3799 0.9171
vn 0.1208 0.7019 -0.7019
vn 0.1208 0.8254 -0.5515
vn 0.1208 -0.9171 -0.3799
vn 0.1208 -0.8254 -0.5515
vn 0.1208 -0.1937 0.9736
vn 0.1208 0.9927 -0.0000
vn 0.1208 -0.3799 -0.9171
vn 0.1208 -0.8254 0.5515
vn 0.1208 0.7019 0.7019
vn 0.1208 0.5515 -0.8254
vn 0.1208 -0.9736 -0.1937
vn 0.1208 -0.0000 0.9927
vn 0.1208 0.9736 -0.1937
vn 0.1208 -0.5515 -0.8254
vn 0.1208 0.8254 0.5515
vn 0.1208 0.3799 -0.9171
vn 0.1208 -0.9927 -0.0000
vn 0.1208 0.1937 0.9736
vn 0.1208 0.9171 -0.3799
vn 0.1208 -0.7019 -0.7019
vn -0.1328 0.8241 0.5506
vn -0.1328 0.9157 0.3793
vn -0.0000 0.9239 0.3827
vn -0.0000 0.8315 0.5556
vn -0.1306 0.8243 -0.5508
vn -0.1306 0.9160 -0.3794
vn -0.1306 -0.3794 0.9160
vn -0.1306 0.7010 -0.7010
vn -0.1306 -0.1934 0.9724
vn -0.1307 -0.0000 -0.9914
vn -0.1306 0.1934 -0.9724
vn -0.1306 0.5508 -0.8243
vn -0.1307 -0.0000 0.9914
vn -0.1306 -0.5508 -0.8243
vn -0.1306 -0.3794 -0.9160
vn -0.1306 0.3794 -0.9160
vn -0.1306 0.1934 0.9724
vn -0.1306 -0.7010 -0.7010
vn -0.1306 0.3794 0.9160
vn -0.1306 -0.8243 -0.5508
vn -0.1306 0.5508 0.8243
vn -0.1306 -0.9160 -0.3794
vn -0.1306 -0.1934 -0.9724
vn -0.1307 0.7010 0.7010
vn -0.1307 -0.9724 -0.1934
vn -0.1307 0.8243 0.5508
vn -0.1306 -0.9914 -0.0000
vn -0.1306 0.9160 0.3794
vn -0.1306 -0.9724 0.1934
vn -0.1306 0.9724 0.1934
vn -0.1306 -0.9160 0.3794
vn -0.1306 0.9914 -0.0000
vn -0.1306 -0.8243 0.5508
vn -0.1306 0.9724 -0.1934
vn -0.1328 -0.1934 0.9721
vn -0.1328 -0.0000 0.9911
vn -0.0000 -0.0000 1.0000
vn -0.0000 -0.1951 0.9808
vn -0.1328 0.3793 0.9157
vn -0.1328 0.5507 0.8241
vn -0.0000 0.5556 0.8315
vn -0.0000 0.3827 0.9239
vn -0.1328 0.7008 0.7008
vn -0.0000 0.7071 0.7071
vn -0.9926 0.1009 0.0674
vn -0.9926 0.0858 0.0858
vn -0.9905 -0.0971 -0.0971
vn -0.9905 -0.1141 -0.0763
vn -0.1328 0.9721 0.1934
vn -0.0000 0.9808 0.1951
vn -0.1328 0.9911 -0.0000
vn -0.0000 1.0000 -0.0000
vn -0.1328 0.9721 -0.1934
vn -0.0000 0.9808 -0.1951
vn -0.1328 0.9157 -0.3793
vn -0.0000 0.9239 -0.3827
vn -0.1328 0.8241 -0.5507
vn -0.0000 0.8315 -0.5556
vn -0.1328 0.7008 -0.7008
vn -0.0000 0.7071 -0.7071
vn -0.1328 0.5507 -0.8241
vn -0.0000 0.5556 -0.8315
vn -0.1328 0.3793 -0.9157
vn -0.0000 0.3827 -0.9239
vn -0.1328 0.1934 -0.9721
vn -0.0000 0.1951 -0.9808
vn -0.1328 -0.0000 -0.9911
vn -0.0000 -0.0000 -1.0000
vn -0.1328 -0.1934 -0.9721
vn -0.0000 -0.1951 -0.9808
vn -0.1328 -0.3793 -0.9157
vn -0.0000 -0.3827 -0.9239
vn -0.1328 -0.5507 -0.8241
vn -0.0000 -0.5556 -0.8315
vn -0.1328 -0.7008 -0.7008
vn -0.0000 -0.7071 -0.7071
vn -0.1328 -0.8241 -0.5506
vn -0.0000 -0.8315 -0.5556
vn -0.1328 -0.9157 -0.3793
vn -0.0000 -0.9239 -0.3827
vn -0.1328 -0.9721 -0.1934
vn -0.0000 -0.9808 -0.1951
vn -0.1328 -0.9911 -0.0000
vn -0.0000 -1.0000 -0.0000
vn -0.1328 -0.9721 0.1934
vn -0.0000 -0.9808 0.1951
vn -0.1328 -0.9157 0.3793
vn -0.0000 -0.9239 0.3827
vn -0.1328 -0.8241 0.5507
vn -0.0000 -0.8315 0.5556
vn -0.1328 -0.7008 0.7008
vn -0.0000 -0.7071 0.7071
vn -0.1328 -0.5507 0.8241
vn -0.0000 -0.5556 0.8315
vn -0.1328 -0.3793 0.9157
vn -0.0000 -0.3827 0.9239
vn -0.9926 0.0237 0.1191
vn -0.9926 -0.0000 0.1214
vn -0.9905 -0.0000 -0.1373
vn -0.9905 -0.0268 -0.1347
vn -1.0000 -0.0000 -0.0000
vn -0.1328 0.1934 0.9721
vn -0.0000 0.1951 0.9808
vn -0.9926 -0.0674 -0.1009
vn -0.9926 -0.0465 -0.1122
vn -0.9905 0.0525 0.1268
vn -0.9905 0.0763 0.1142
vn -0.9926 0.1121 0.0465
vn -0.9905 -0.1268 -0.0525
vn -0.9926 -0.0858 -0.0858
vn -0.9905 0.0971 0.0971
vn -0.9926 0.1191 0.0237
vn -0.9905 -0.1347 -0.0268
vn -0.9926 -0.1009 -0.0674
vn -0.9905 0.1142 0.0763
vn -0.9926 0.1214 -0.0000
vn -0.9905 -0.1373 -0.0000
vn -0.9926 -0.1122 -0.0465
vn -0.9905 0.1268 0.0525
vn -0.9926 0.1191 -0.0237
vn -0.9905 -0.1347 0.0268
vn -0.9926 -0.1191 -0.0237
vn -0.9905 0.1346 0.0268
vn -0.9926 0.1122 -0.0465
vn -0.9905 -0.1268 0.0525
vn -0.9926 -0.1214 -0.0000
vn -0.9905 0.1373 -0.0000
vn -0.9926 0.1009 -0.0674
vn -0.9905 -0.1141 0.0763
vn -0.9926 -0.1191 0.0237
vn -0.9905 0.1347 -0.0268
vn -0.9926 0.0858 -0.0858
vn -0.9905 -0.0971 0.0971
vn -0.9926 -0.1122 0.0465
vn -0.9905 0.1268 -0.0525
vn -0.9926 0.0674 -0.1009
vn -0.9905 -0.0763 0.1142
vn -0.9926 -0.1009 0.0674
vn -0.9905 0.1141 -0.0763
vn -0.9926 0.0465 -0.1121
vn -0.9905 -0.0525 0.1268
vn -0.9926 -0.0237 0.1191
vn -0.9905 0.0268 -0.1347
vn -0.9926 -0.0858 0.0858
vn -0.9905 0.0971 -0.0971
vn -0.9926 0.0237 -0.1191
vn -0.9905 -0.0268 0.1347
vn -0.9926 0.0465 0.1122
vn -0.9905 -0.0525 -0.1268
vn -0.9926 -0.0674 0.1009
vn -0.9905 0.0763 -0.1142
vn -0.9926 -0.0000 -0.1214
vn -0.9905 -0.0000 0.1373
vn -0.9926 0.0674 0.1009
vn -0.9905 -0.0763 -0.1142
vn -0.9926 -0.0465 0.1122
vn -0.9905 0.0525 -0.1268
vn -0.9926 -0.0237 -0.1191
vn -0.9905 0.0268 0.1347
vn 0.1428 -0.0000 -0.9897
vn 0.1428 -0.1931 -0.9707
vn 0.3347 -0.0000 -0.9423
vn 0.3347 -0.1838 -0.9242
vn 0.4497 -0.0000 -0.8932
vn 0.4497 -0.1742 -0.8760
vn 0.8608 -0.0993 -0.4991
vn 0.8608 -0.0000 -0.5089
vn 0.1428 -0.3788 -0.9144
vn 0.3347 -0.3606 -0.8706
vn 0.4497 -0.3418 -0.8252
vn 0.8608 -0.1948 -0.4702
vn 0.1428 -0.5499 -0.8229
vn 0.3347 -0.5235 -0.7835
vn 0.4497 -0.4962 -0.7426
vn 0.8608 -0.2827 -0.4231
vn 0.1428 -0.6999 -0.6999
vn 0.3347 -0.6663 -0.6663
vn 0.4497 -0.6316 -0.6316
vn 0.8608 -0.3599 -0.3599
vn 0.1428 -0.8229 -0.5499
vn 0.3347 -0.7835 -0.5235
vn 0.4497 -0.7426 -0.4962
vn 0.8608 -0.4231 -0.2827
vn 0.1428 -0.9144 -0.3788
vn 0.3347 -0.8706 -0.3606
vn 0.4497 -0.8252 -0.3418
vn 0.8608 -0.4702 -0.1948
vn 0.1428 -0.9707 -0.1931
vn 0.3347 -0.9242 -0.1838
vn 0.4497 -0.8760 -0.1742
vn 0.8608 -0.4991 -0.0993
vn 0.1428 -0.9897 -0.0000
vn 0.3347 -0.9423 -0.0000
vn 0.4497 -0.8932 -0.0000
vn 0.8608 -0.5089 -0.0000
vn 0.1428 -0.9707 0.1931
vn 0.3347 -0.9242 0.1838
vn 0.4497 -0.8760 0.1742
vn 0.8608 -0.4991 0.0993
vn 0.1428 -0.9144 0.3788
vn 0.3347 -0.8706 0.3606
vn 0.4497 -0.8252 0.3418
vn 0.8608 -0.4702 0.1948
vn 0.1428 -0.8229 0.5499
vn 0.3347 -0.7835 0.5235
vn 0.4497 -0.7426 0.4962
vn 0.8608 -0.4231 0.2827
vn 0.1428 -0.6999 0.6999
vn 0.3347 -0.6663 0.6663
vn 0.4497 -0.6316 0.6316
vn 0.8608 -0.3599 0.3599
vn 0.1428 -0.5499 0.8229
vn 0.3347 -0.5235 0.7835
vn 0.4497 -0.4962 0.7426
vn 0.8608 -0.2827 0.4231
vn 0.1428 -0.3788 0.9144
vn 0.3347 -0.3606 0.8706
vn 0.4497 -0.3418 0.8252
vn 0.8608 -0.1948 0.4702
vn 0.1428 -0.1931 0.9707
vn 0.3347 -0.1838 0.9242
vn 0.4497 -0.1742 0.8760
vn 0.8608 -0.0993 0.4991
vn 0.1428 -0.0000 0.9897
vn 0.3347 -0.0000 0.9423
vn 0.4497 -0.0000 0.8932
vn 0.8608 -0.0000 0.5089
vn 0.1428 0.1931 0.9707
vn 0.3347 0.1838 0.9242
vn 0.4497 0.1742 0.8760
vn 0.8608 0.0993 0.4991
vn 0.1428 0.3788 0.9144
vn 0.3347 0.3606 0.8706
vn 0.4497 0.3418 0.8252
vn 0.8608 0.1948 0.4702
vn 0.1428 0.5499 0.8229
vn 0.3347 0.5235 0.7835
vn 0.4497 0.4962 0.7426
vn 0.8608 0.2827 0.4231
vn 0.1428 0.6999 0.6999
vn 0.3347 0.6663 0.6663
vn 0.4497 0.6316 0.6316
vn 0.8608 0.3599 0.3599
vn 0.1428 0.8229 0.5499
vn 0.3347 0.7835 0.5235
vn 0.4497 0.7426 0.4962
vn 0.8608 0.4231 0.2827
vn 0.1428 0.9144 0.3788
vn 0.3347 0.8706 0.3606
vn 0.4497 0.8252 0.3418
vn 0.8608 0.4702 0.1948
vn 0.1428 0.9707 0.1931
vn 0.3347 0.9242 0.1838
vn 0.4497 0.8760 0.1742
vn 0.8608 0.4991 0.0993
vn 0.1428 0.9897 -0.0000
vn 0.3347 0.9423 -0.0000
vn 0.4497 0.8932 -0.0000
vn 0.8608 0.5089 -0.0000
vn 0.1428 0.9707 -0.1931
vn 0.3347 0.9242 -0.1838
vn 0.4497 0.8760 -0.1742
vn 0.8608 0.4991 -0.0993
vn 0.1428 0.9144 -0.3788
vn 0.3347 0.8706 -0.3606
vn 0.4497 0.8252 -0.3418
vn 0.8608 0.4702 -0.1948
vn 0.1428 0.8229 -0.5499
vn 0.3347 0.7835 -0.5235
vn 0.4497 0.7426 -0.4962
vn 0.8608 0.4231 -0.2827
vn 0.1428 0.6999 -0.6999
vn 0.3347 0.6663 -0.6663
vn 0.4497 0.6316 -0.6316
vn 0.8608 0.3599 -0.3599
vn 0.1428 0.5499 -0.8229
vn 0.3347 0.5235 -0.7835
vn 0.4497 0.4962 -0.7426
vn 0.8608 0.2827 -0.4231
vn 0.1428 0.3788 -0.9144
vn 0.3347 0.3606 -0.8706
vn 0.4497 0.3418 -0.8252
vn 0.8608 0.1948 -0.4702
vn 0.1428 0.1931 -0.9707
vn 0.3347 0.1838 -0.9242
vn 0.4497 0.1742 -0.8760
vn 0.8608 0.0993 -0.4991
vn 1.0000 -0.0000 -0.0000
vn -0.4963 -0.1694 -0.8514
vn -0.4963 -0.0000 -0.8681
vn -0.7104 -0.1373 -0.6903
vn -0.7104 -0.0000 -0.7038
vn -0.9665 -0.0000 -0.2566
vn -0.9665 -0.0501 -0.2516
vn -0.4963 -0.3322 -0.8020
vn -0.7104 -0.2693 -0.6502
vn -0.9665 -0.0982 -0.2370
vn -0.4963 -0.4823 -0.7218
vn -0.7104 -0.3910 -0.5852
vn -0.9665 -0.1425 -0.2133
vn -0.4963 -0.6139 -0.6139
vn -0.7104 -0.4977 -0.4977
vn -0.9665 -0.1814 -0.1814
vn -0.4963 -0.7218 -0.4823
vn -0.7104 -0.5852 -0.3910
vn -0.9665 -0.2133 -0.1425
vn -0.4963 -0.8020 -0.3322
vn -0.7104 -0.6502 -0.2693
vn -0.9665 -0.2370 -0.0982
vn -0.4963 -0.8514 -0.1694
vn -0.7104 -0.6903 -0.1373
vn -0.9665 -0.2516 -0.0501
vn -0.4963 -0.8681 -0.0000
vn -0.7104 -0.7038 -0.0000
vn -0.9665 -0.2566 -0.0000
vn -0.4963 -0.8514 0.1694
vn -0.8610 -0.4989 0.0992
vn -0.2611 -0.8918 0.3694
vn -0.7104 -0.6502 0.2693
vn -0.8610 -0.4700 0.1947
vn -0.4963 -0.7218 0.4823
vn -0.7104 -0.5852 0.3910
vn -0.9665 -0.2133 0.1425
vn -0.4963 -0.6139 0.6139
vn -0.7104 -0.4977 0.4977
vn -0.9665 -0.1814 0.1814
vn -0.4963 -0.4823 0.7218
vn -0.7104 -0.3910 0.5852
vn -0.9665 -0.1425 0.2133
vn -0.4963 -0.3322 0.8020
vn -0.7104 -0.2693 0.6502
vn -0.9665 -0.0982 0.2370
vn -0.4963 -0.1694 0.8514
vn -0.7104 -0.1373 0.6903
vn -0.9665 -0.0501 0.2516
vn -0.4963 -0.0000 0.8681
vn -0.7104 -0.0000 0.7038
vn -0.9665 -0.0000 0.2566
vn -0.4963 0.1694 0.8514
vn -0.7104 0.1373 0.6903
vn -0.9665 0.0501 0.2516
vn -0.4963 0.3322 0.8020
vn -0.8610 0.1947 0.4700
vn -0.4963 0.4823 0.7218
vn -0.8610 0.2826 0.4229
vn -0.4963 0.6139 0.6139
vn -0.7104 0.4977 0.4977
vn -0.9665 0.1814 0.1814
vn -0.4963 0.7218 0.4823
vn -0.8610 0.4229 0.2826
vn -0.4963 0.8020 0.3322
vn -0.8610 0.4700 0.1947
vn -0.4963 0.8514 0.1694
vn -0.7104 0.6903 0.1373
vn -0.9665 0.2516 0.0501
vn -0.4963 0.8681 -0.0000
vn -0.7104 0.7038 -0.0000
vn -0.9665 0.2566 -0.0000
vn -0.4963 0.8514 -0.1694
vn -0.7104 0.6903 -0.1373
vn -0.9665 0.2516 -0.0501
vn -0.4963 0.8020 -0.3322
vn -0.7104 0.6502 -0.2693
vn -0.9665 0.2370 -0.0982
vn -0.2611 0.8026 -0.5363
vn -0.7104 0.5852 -0.3910
vn -0.9665 0.2133 -0.1425
vn -0.4963 0.6139 -0.6139
vn -0.7104 0.4977 -0.4977
vn -0.9665 0.1814 -0.1814
vn -0.4963 0.4823 -0.7218
vn -0.7104 0.3910 -0.5852
vn -0.9665 0.1426 -0.2133
vn -0.4963 0.3322 -0.8020
vn -0.7104 0.2693 -0.6502
vn -0.9665 0.0982 -0.2370
vn -0.4963 0.1694 -0.8514
vn -0.7104 0.1373 -0.6903
vn -0.9665 0.0501 -0.2516
vn -0.5104 0.1678 0.8434
vn -0.5104 -0.0000 0.8599
vn -0.9665 0.0982 0.2370
vn -0.7104 0.2693 0.6502
vn -0.5104 0.3291 0.7945
vn -0.9665 0.1425 0.2133
vn -0.7104 0.3910 0.5852
vn -0.5104 0.4778 0.7150
vn -0.5104 0.6081 0.6081
vn -0.9665 0.2133 0.1425
vn -0.7104 0.5852 0.3910
vn -0.5104 0.7150 0.4778
vn -0.8748 0.4476 0.1854
vn -0.5104 0.7945 0.3291
vn -0.8748 0.4751 0.0945
vn -0.5104 0.8434 0.1678
vn -0.5104 0.8599 -0.0000
vn -0.8748 0.4751 -0.0945
vn -0.5104 0.8434 -0.1678
vn -0.8748 0.4476 -0.1854
vn -0.5104 0.7945 -0.3291
vn -0.5104 0.7150 -0.4777
vn -0.5104 0.6081 -0.6081
vn -0.9665 0.1425 -0.2133
vn -0.5104 0.4778 -0.7150
vn -0.5104 0.3291 -0.7945
vn -0.5104 0.1678 -0.8434
vn -0.5104 -0.0000 -0.8599
vn -0.5104 -0.1678 -0.8434
vn -0.5104 -0.3291 -0.7945
vn -0.5104 -0.4778 -0.7150
vn -0.2611 -0.6826 -0.6826
vn -0.8748 -0.4028 -0.2691
vn -0.2611 -0.8026 -0.5363
vn -0.8748 -0.4476 -0.1854
vn -0.2611 -0.8918 -0.3694
vn -0.5104 -0.8434 -0.1678
vn -0.5104 -0.8599 -0.0000
vn -0.8748 -0.4751 0.0945
vn -0.5104 -0.8434 0.1678
vn -0.8748 -0.4476 0.1854
vn -0.5104 -0.7150 0.4778
vn -0.5104 -0.6081 0.6081
vn -0.5104 -0.4778 0.7150
vn -0.5104 -0.3291 0.7945
vn -0.5104 -0.1678 0.8434
vt 0.514292 0.613078
vt 0.514292 0.046298
vt 0.528535 0.045818
vt 0.528535 0.612598
vt 0.048328 0.613454
vt 0.048328 0.046675
vt 0.066936 0.046935
vt 0.066936 0.613714
vt 0.086692 0.047067
vt 0.086692 0.613846
vt 0.106834 0.047067
vt 0.106834 0.613846
vt 0.126589 0.046935
vt 0.126589 0.613714
vt 0.145198 0.046675
vt 0.145198 0.613454
vt 0.161945 0.046298
vt 0.161945 0.613077
vt 0.176188 0.045818
vt 0.176188 0.612598
vt 0.210863 0.612598
vt 0.210863 0.045818
vt 0.225105 0.046298
vt 0.225105 0.613078
vt 0.241853 0.046675
vt 0.241853 0.613454
vt 0.260462 0.046935
vt 0.260462 0.613714
vt 0.280217 0.047067
vt 0.280217 0.613846
vt 0.300359 0.047067
vt 0.300359 0.613846
vt 0.320114 0.046935
vt 0.320114 0.613714
vt 0.338723 0.046675
vt 0.338723 0.613454
vt 0.355470 0.046298
vt 0.355470 0.613078
vt 0.560101 0.612645
vt 0.560101 0.045866
vt 0.576848 0.046243
vt 0.576848 0.613022
vt 0.595457 0.046503
vt 0.595457 0.613282
vt 0.615212 0.046635
vt 0.615212 0.613414
vt 0.635354 0.046635
vt 0.635354 0.613414
vt 0.655109 0.046503
vt 0.655109 0.613282
vt 0.673718 0.046243
vt 0.673718 0.613022
vt 0.690466 0.045866
vt 0.690466 0.612645
vt 0.383927 0.613078
vt 0.383927 0.046298
vt 0.400675 0.046675
vt 0.400675 0.613454
vt 0.419284 0.046935
vt 0.419284 0.613714
vt 0.439039 0.047067
vt 0.439039 0.613846
vt 0.459181 0.047067
vt 0.459181 0.613846
vt 0.478936 0.046935
vt 0.478936 0.613714
vt 0.497545 0.046675
vt 0.497545 0.613454
vt 0.017337 0.612598
vt 0.017337 0.045818
vt 0.031580 0.046298
vt 0.031580 0.613077
vt 0.302557 0.705047
vt 0.278018 0.705047
vt 0.253951 0.704885
vt 0.278018 0.996473
vt 0.253951 0.996311
vt 0.684291 0.704137
vt 0.661620 0.704453
vt 0.017352 0.704110
vt 0.000000 0.703525
vt 0.545872 0.703525
vt 0.528521 0.704110
vt 0.210877 0.704110
vt 0.193525 0.703525
vt 0.588947 0.704453
vt 0.566276 0.704137
vt 0.461379 0.705047
vt 0.436840 0.705047
vt 0.133099 0.704885
vt 0.109032 0.705047
vt 0.326624 0.704885
vt 0.704694 0.703678
vt 0.037755 0.704569
vt 0.231280 0.704569
vt 0.613014 0.704615
vt 0.485446 0.704885
vt 0.155770 0.704569
vt 0.349295 0.704569
vt 0.390102 0.704569
vt 0.369699 0.704110
vt 0.060426 0.704885
vt 0.637553 0.704615
vt 0.508117 0.704569
vt 0.176174 0.704110
vt 0.369699 0.704110
vt 0.412773 0.704885
vt 0.084493 0.705047
vt 0.193525 0.703525
vt 0.545872 0.703678
vt 0.819987 0.726977
vt 0.820126 0.747804
vt 0.794822 0.747804
vt 0.794683 0.726977
vt 0.436840 0.996473
vt 0.412773 0.996311
vt 0.302557 0.996473
vt 0.461379 0.996473
vt 0.326624 0.996311
vt 0.545872 0.994951
vt 0.528521 0.995536
vt 0.485446 0.996311
vt 0.349295 0.995995
vt 0.060426 0.996311
vt 0.037755 0.995995
vt 0.508117 0.995995
vt 0.369699 0.995536
vt 0.084493 0.996472
vt 0.566276 0.995563
vt 0.545872 0.995104
vt 0.109032 0.996472
vt 0.588947 0.995879
vt 0.133099 0.996311
vt 0.017352 0.995535
vt 0.613014 0.996040
vt 0.155770 0.995995
vt 0.637553 0.996040
vt 0.176174 0.995535
vt 0.661620 0.995879
vt 0.193525 0.994951
vt 0.684291 0.995563
vt 0.210877 0.995536
vt 0.193525 0.994951
vt 0.704694 0.995104
vt 0.231280 0.995995
vt 0.390102 0.995995
vt 0.369699 0.995536
vt 0.739186 0.684900
vt 0.738847 0.665281
vt 0.764151 0.665197
vt 0.764489 0.684816
vt 0.820400 0.665294
vt 0.820126 0.684914
vt 0.794822 0.684914
vt 0.795096 0.665294
vt 0.819987 0.705741
vt 0.794683 0.705741
vt 0.713386 0.134939
vt 0.717802 0.157142
vt 0.715377 0.157878
vt 0.710863 0.135187
vt 0.820400 0.767424
vt 0.795096 0.767424
vt 0.820798 0.785080
vt 0.795493 0.785080
vt 0.791146 0.647626
vt 0.790690 0.665281
vt 0.765386 0.665197
vt 0.765842 0.647542
vt 0.790351 0.684900
vt 0.765047 0.684816
vt 0.790143 0.705727
vt 0.764839 0.705643
vt 0.790072 0.726962
vt 0.764768 0.726878
vt 0.790143 0.747790
vt 0.764839 0.747706
vt 0.790351 0.767410
vt 0.765047 0.767326
vt 0.790690 0.785068
vt 0.765386 0.784984
vt 0.791146 0.800085
vt 0.765842 0.800002
vt 0.731315 0.647771
vt 0.730809 0.662786
vt 0.705505 0.662786
vt 0.706011 0.647771
vt 0.730412 0.680443
vt 0.705108 0.680443
vt 0.730138 0.700062
vt 0.704834 0.700062
vt 0.729998 0.720890
vt 0.704694 0.720890
vt 0.729998 0.742126
vt 0.704694 0.742126
vt 0.730138 0.762953
vt 0.704834 0.762953
vt 0.730412 0.782573
vt 0.705108 0.782573
vt 0.730809 0.800229
vt 0.705505 0.800229
vt 0.731315 0.815245
vt 0.706011 0.815245
vt 0.738391 0.800086
vt 0.738847 0.785068
vt 0.764151 0.784984
vt 0.763695 0.800002
vt 0.739185 0.767410
vt 0.764489 0.767326
vt 0.739394 0.747790
vt 0.764698 0.747706
vt 0.739465 0.726962
vt 0.764768 0.726878
vt 0.739394 0.705727
vt 0.764698 0.705643
vt 0.000000 0.994951
vt 0.755051 0.212889
vt 0.773875 0.225467
vt 0.772680 0.227702
vt 0.753443 0.214849
vt 0.761434 0.450578
vt 0.743777 0.438780
vt 0.728762 0.423764
vt 0.716964 0.406108
vt 0.708837 0.386488
vt 0.704694 0.365661
vt 0.704694 0.344425
vt 0.708837 0.323598
vt 0.716964 0.303978
vt 0.728762 0.286322
vt 0.743777 0.271306
vt 0.761434 0.259508
vt 0.781053 0.251381
vt 0.801881 0.247238
vt 0.823117 0.247238
vt 0.843944 0.251381
vt 0.863563 0.259508
vt 0.881220 0.271306
vt 0.896236 0.286322
vt 0.908034 0.303978
vt 0.916161 0.323597
vt 0.920303 0.344425
vt 0.920303 0.365661
vt 0.916161 0.386488
vt 0.908034 0.406108
vt 0.896236 0.423764
vt 0.881220 0.438780
vt 0.863563 0.450578
vt 0.843944 0.458705
vt 0.823117 0.462848
vt 0.801881 0.462848
vt 0.781053 0.458705
vt 0.820798 0.647638
vt 0.795493 0.647638
vt 0.930161 0.069180
vt 0.917584 0.050357
vt 0.919543 0.048749
vt 0.932397 0.067985
vt 0.713386 0.112300
vt 0.710863 0.112051
vt 0.938825 0.090096
vt 0.941250 0.089360
vt 0.717802 0.090096
vt 0.715377 0.089360
vt 0.943241 0.112300
vt 0.945764 0.112051
vt 0.726466 0.069181
vt 0.724230 0.067986
vt 0.943241 0.134938
vt 0.945764 0.135187
vt 0.739043 0.050357
vt 0.737084 0.048749
vt 0.938825 0.157142
vt 0.941250 0.157878
vt 0.755051 0.034349
vt 0.753443 0.032390
vt 0.930161 0.178058
vt 0.932397 0.179253
vt 0.773875 0.021772
vt 0.772680 0.019536
vt 0.917584 0.196881
vt 0.919543 0.198489
vt 0.794790 0.013108
vt 0.794054 0.010682
vt 0.901576 0.212889
vt 0.903184 0.214849
vt 0.816994 0.008691
vt 0.816746 0.006169
vt 0.882752 0.225467
vt 0.883947 0.227702
vt 0.839633 0.008691
vt 0.839881 0.006169
vt 0.794790 0.234130
vt 0.794055 0.236556
vt 0.861837 0.234130
vt 0.862573 0.236556
vt 0.861837 0.013108
vt 0.862572 0.010682
vt 0.739043 0.196881
vt 0.737084 0.198489
vt 0.839633 0.238547
vt 0.839881 0.241070
vt 0.882752 0.021771
vt 0.883947 0.019536
vt 0.726466 0.178058
vt 0.724230 0.179253
vt 0.816994 0.238547
vt 0.816746 0.241070
vt 0.901576 0.034349
vt 0.903184 0.032389
vt 0.018311 0.026903
vt 0.032379 0.027377
vt 0.021083 0.010814
vt 0.034654 0.011271
vt 0.025231 0.000000
vt 0.038058 0.000432
vt 0.725253 0.613643
vt 0.715175 0.598560
vt 0.720758 0.595576
vt 0.730147 0.609627
vt 0.048921 0.027749
vt 0.050611 0.011630
vt 0.053141 0.000772
vt 0.738081 0.626470
vt 0.742096 0.621577
vt 0.067302 0.028006
vt 0.068343 0.011878
vt 0.069901 0.001005
vt 0.753164 0.636548
vt 0.756148 0.630966
vt 0.086815 0.028137
vt 0.087166 0.012004
vt 0.087692 0.001125
vt 0.769923 0.643490
vt 0.771761 0.637433
vt 0.106710 0.028137
vt 0.106359 0.012004
vt 0.105833 0.001125
vt 0.787715 0.647029
vt 0.788335 0.640730
vt 0.126223 0.028006
vt 0.125182 0.011878
vt 0.123624 0.001005
vt 0.805855 0.647029
vt 0.805235 0.640730
vt 0.144604 0.027749
vt 0.142914 0.011630
vt 0.140384 0.000772
vt 0.823647 0.643490
vt 0.821810 0.637433
vt 0.161146 0.027377
vt 0.158871 0.011271
vt 0.155467 0.000432
vt 0.840407 0.636548
vt 0.837423 0.630966
vt 0.175214 0.026903
vt 0.172443 0.010814
vt 0.168294 0.000000
vt 0.855490 0.626470
vt 0.851474 0.621577
vt 0.211836 0.026903
vt 0.225904 0.027377
vt 0.214608 0.010814
vt 0.228179 0.011271
vt 0.218756 -0.000000
vt 0.231583 0.000432
vt 0.868317 0.613643
vt 0.863424 0.609627
vt 0.242446 0.027749
vt 0.244137 0.011630
vt 0.246666 0.000772
vt 0.878395 0.598560
vt 0.872812 0.595576
vt 0.260827 0.028006
vt 0.261868 0.011878
vt 0.263426 0.001005
vt 0.885337 0.581800
vt 0.879279 0.579963
vt 0.280340 0.028137
vt 0.280692 0.012004
vt 0.281218 0.001125
vt 0.888876 0.564009
vt 0.882576 0.563388
vt 0.300235 0.028137
vt 0.299884 0.012004
vt 0.299358 0.001125
vt 0.888876 0.545868
vt 0.882576 0.546489
vt 0.319748 0.028006
vt 0.318707 0.011878
vt 0.317150 0.001005
vt 0.885337 0.528076
vt 0.879279 0.529914
vt 0.338129 0.027749
vt 0.336439 0.011630
vt 0.333909 0.000772
vt 0.878395 0.511317
vt 0.872812 0.514301
vt 0.354671 0.027377
vt 0.352397 0.011271
vt 0.348992 0.000432
vt 0.868317 0.496234
vt 0.863424 0.500250
vt 0.560900 0.026945
vt 0.577442 0.027317
vt 0.563174 0.010839
vt 0.579132 0.011198
vt 0.566579 0.000000
vt 0.581662 0.000339
vt 0.855490 0.483407
vt 0.851474 0.488300
vt 0.595823 0.027574
vt 0.596864 0.011446
vt 0.598421 0.000573
vt 0.840406 0.473329
vt 0.837422 0.478911
vt 0.615336 0.027705
vt 0.615687 0.011572
vt 0.616213 0.000693
vt 0.823647 0.466387
vt 0.821809 0.472444
vt 0.635231 0.027705
vt 0.634879 0.011572
vt 0.634353 0.000693
vt 0.805855 0.462848
vt 0.805235 0.469147
vt 0.654744 0.027574
vt 0.653703 0.011446
vt 0.652145 0.000573
vt 0.787715 0.462848
vt 0.788335 0.469147
vt 0.673125 0.027317
vt 0.671434 0.011198
vt 0.668905 0.000339
vt 0.769923 0.466387
vt 0.771761 0.472444
vt 0.689667 0.026945
vt 0.687392 0.010839
vt 0.683988 0.000000
vt 0.753164 0.473329
vt 0.756148 0.478911
vt 0.384726 0.027377
vt 0.401268 0.027749
vt 0.387001 0.011271
vt 0.402959 0.011630
vt 0.390405 0.000432
vt 0.405488 0.000772
vt 0.738081 0.483407
vt 0.742096 0.488300
vt 0.419649 0.028006
vt 0.420690 0.011878
vt 0.422248 0.001005
vt 0.725253 0.496234
vt 0.730147 0.500250
vt 0.439162 0.028137
vt 0.439514 0.012004
vt 0.440040 0.001125
vt 0.715175 0.511317
vt 0.720758 0.514301
vt 0.459057 0.028137
vt 0.458706 0.012004
vt 0.458180 0.001125
vt 0.708233 0.528077
vt 0.714291 0.529914
vt 0.478570 0.028006
vt 0.477529 0.011878
vt 0.475972 0.001005
vt 0.704694 0.545868
vt 0.710994 0.546489
vt 0.496951 0.027749
vt 0.495261 0.011630
vt 0.492731 0.000772
vt 0.704694 0.564009
vt 0.710994 0.563388
vt 0.513493 0.027377
vt 0.511219 0.011271
vt 0.507814 0.000432
vt 0.708233 0.581800
vt 0.714291 0.579963
vt 0.527561 0.026903
vt 0.524790 0.010814
vt 0.520641 0.000000
vt 0.017960 0.999070
vt 0.000741 0.998490
vt 0.769758 0.233169
vt 0.749511 0.219641
vt 0.751173 0.217615
vt 0.770993 0.230859
vt 0.038207 0.999526
vt 0.732292 0.202422
vt 0.734317 0.200760
vt 0.060704 0.999840
vt 0.718764 0.182175
vt 0.721074 0.180940
vt 0.084587 1.000000
vt 0.709445 0.159678
vt 0.711952 0.158917
vt 0.108938 1.000000
vt 0.704694 0.135795
vt 0.707301 0.135538
vt 0.132821 0.999840
vt 0.704694 0.111444
vt 0.707301 0.111701
vt 0.155318 0.999526
vt 0.709445 0.087561
vt 0.711952 0.088321
vt 0.175565 0.999070
vt 0.718764 0.065064
vt 0.721074 0.066299
vt 0.192784 0.998490
vt 0.732292 0.044817
vt 0.734317 0.046479
vt 0.211485 0.999070
vt 0.194266 0.998490
vt 0.749511 0.027598
vt 0.751173 0.029623
vt 0.231732 0.999526
vt 0.769758 0.014069
vt 0.770993 0.016380
vt 0.254229 0.999840
vt 0.792255 0.004751
vt 0.793015 0.007258
vt 0.278112 1.000000
vt 0.816138 -0.000000
vt 0.816395 0.002607
vt 0.302463 1.000000
vt 0.840489 -0.000000
vt 0.840232 0.002607
vt 0.326346 0.999840
vt 0.864372 0.004751
vt 0.863611 0.007258
vt 0.348843 0.999526
vt 0.886869 0.014069
vt 0.885634 0.016380
vt 0.369090 0.999070
vt 0.907116 0.027598
vt 0.905454 0.029623
vt 0.566728 0.999094
vt 0.546481 0.998638
vt 0.924335 0.044816
vt 0.922310 0.046478
vt 0.589225 0.999408
vt 0.937863 0.065063
vt 0.935553 0.066298
vt 0.613108 0.999568
vt 0.947182 0.087561
vt 0.944675 0.088321
vt 0.637459 0.999568
vt 0.951933 0.111444
vt 0.949325 0.111700
vt 0.661342 0.999408
vt 0.951933 0.135794
vt 0.949325 0.135538
vt 0.683839 0.999094
vt 0.947182 0.159677
vt 0.944675 0.158917
vt 0.704086 0.998638
vt 0.937863 0.182175
vt 0.935553 0.180940
vt 0.390554 0.999526
vt 0.370307 0.999070
vt 0.924335 0.202422
vt 0.922310 0.200760
vt 0.413051 0.999840
vt 0.907116 0.219640
vt 0.905454 0.217615
vt 0.436934 1.000000
vt 0.886869 0.233169
vt 0.885634 0.230859
vt 0.461285 1.000000
vt 0.864372 0.242488
vt 0.863611 0.239981
vt 0.485168 0.999840
vt 0.840489 0.247238
vt 0.840232 0.244631
vt 0.507665 0.999526
vt 0.816138 0.247238
vt 0.816395 0.244631
vt 0.527912 0.999070
vt 0.792255 0.242488
vt 0.793016 0.239981
vt 0.545131 0.998490
vt 0.757322 0.210123
vt 0.775562 0.222311
vt 0.758984 0.208098
vt 0.776797 0.220000
vt 0.735314 0.664841
vt 0.734854 0.647029
vt 0.738391 0.647626
vt 0.741810 0.194611
vt 0.743835 0.192949
vt 0.824332 0.647029
vt 0.823931 0.664842
vt 0.729622 0.176371
vt 0.731933 0.175136
vt 0.823655 0.684635
vt 0.721227 0.156104
vt 0.723734 0.155343
vt 0.823514 0.705647
vt 0.716947 0.134588
vt 0.719555 0.134331
vt 0.823514 0.727071
vt 0.716947 0.112651
vt 0.719555 0.112907
vt 0.823655 0.748083
vt 0.721227 0.091135
vt 0.723734 0.091895
vt 0.823931 0.767876
vt 0.729622 0.070868
vt 0.731933 0.072103
vt 0.824332 0.785689
vt 0.741810 0.052627
vt 0.743835 0.054289
vt 0.794683 0.647029
vt 0.794223 0.664841
vt 0.757322 0.037115
vt 0.758984 0.039141
vt 0.793881 0.684633
vt 0.775562 0.024928
vt 0.776797 0.027238
vt 0.793670 0.705644
vt 0.795829 0.016533
vt 0.796590 0.019040
vt 0.793599 0.727068
vt 0.817345 0.012253
vt 0.817602 0.014860
vt 0.793670 0.748080
vt 0.839282 0.012253
vt 0.839025 0.014860
vt 0.793881 0.767874
vt 0.860798 0.016533
vt 0.860037 0.019040
vt 0.794223 0.785688
vt 0.881065 0.024928
vt 0.879830 0.027238
vt 0.794683 0.800838
vt 0.899305 0.037115
vt 0.897643 0.039141
vt 0.734854 0.647029
vt 0.734344 0.662178
vt 0.914817 0.052627
vt 0.912792 0.054289
vt 0.733943 0.679991
vt 0.927005 0.070867
vt 0.924694 0.072102
vt 0.733666 0.699784
vt 0.935400 0.091135
vt 0.932893 0.091895
vt 0.733526 0.720796
vt 0.939680 0.112650
vt 0.937072 0.112907
vt 0.733526 0.742220
vt 0.939680 0.134588
vt 0.937072 0.134331
vt 0.733666 0.763232
vt 0.935400 0.156103
vt 0.932893 0.155343
vt 0.733943 0.783025
vt 0.927005 0.176371
vt 0.924694 0.175136
vt 0.734344 0.800838
vt 0.914817 0.194611
vt 0.912792 0.192949
vt 0.734854 0.815986
vt 0.899305 0.210123
vt 0.897643 0.208098
vt 0.734854 0.800839
vt 0.735314 0.785688
vt 0.881065 0.222310
vt 0.879830 0.220000
vt 0.735656 0.767874
vt 0.860798 0.230706
vt 0.860037 0.228198
vt 0.735866 0.748080
vt 0.839282 0.234985
vt 0.839025 0.232378
vt 0.735937 0.727068
vt 0.817345 0.234985
vt 0.817602 0.232378
vt 0.735866 0.705644
vt 0.795829 0.230706
vt 0.796590 0.228199
vt 0.735656 0.684633
vt 0.763695 0.647542
s 1
usemtl black_part
f 32/1/1 253/2/2 98/3/3 1/4/4
f 3/5/5 108/6/6 113/7/7 4/8/8
f 4/8/8 113/7/7 118/9/9 5/10/10
f 5/10/10 118/9/9 123/11/11 6/12/12
f 6/12/12 123/11/11 128/13/13 7/14/14
f 7/14/14 128/13/13 133/15/15 8/16/16
f 8/16/16 133/15/15 138/17/17 9/18/18
f 9/18/18 138/17/17 143/19/19 10/20/20
f 10/21/20 143/22/19 148/23/21 11/24/22
f 11/24/22 148/23/21 153/25/23 12/26/24
f 12/26/24 153/25/23 158/27/25 13/28/26
f 13/28/26 158/27/25 163/29/27 14/30/28
f 14/30/28 163/29/27 168/31/29 15/32/30
f 15/32/30 168/31/29 173/33/31 16/34/32
f 16/34/32 173/33/31 178/35/33 17/36/34
f 17/36/34 178/35/33 183/37/35 18/38/36
f 18/39/36 183/40/35 188/41/37 19/42/38
f 19/42/38 188/41/37 193/43/39 20/44/40
f 20/44/40 193/43/39 198/45/41 21/46/42
f 21/46/42 198/45/41 203/47/43 22/48/44
f 22/48/44 203/47/43 208/49/45 23/50/46
f 23/50/46 208/49/45 213/51/47 24/52/48
f 24/52/48 213/51/47 218/53/49 25/54/50
f 25/55/50 218/56/49 223/57/51 26/58/52
f 26/58/52 223/57/51 228/59/53 27/60/54
f 27/60/54 228/59/53 233/61/55 28/62/56
f 28/62/56 233/61/55 238/63/57 29/64/58
f 29/64/58 238/63/57 243/65/59 30/66/60
f 30/66/60 243/65/59 248/67/61 31/68/62
f 31/68/62 248/67/61 253/2/2 32/1/1
f 1/69/4 98/70/3 103/71/63 2/72/64
f 2/72/64 103/71/63 108/6/6 3/5/5
f 14/30/28 15/32/30 47/73/65 46/74/66
f 45/75/67 46/74/66 437/76/68 433/77/69
f 23/50/46 24/52/48 56/78/70 55/79/71
f 1/69/4 2/72/64 34/80/72 33/81/73
f 32/1/1 1/4/4 33/82/73 64/83/74
f 10/21/20 11/24/22 43/84/75 42/85/76
f 19/42/38 20/44/40 52/86/77 51/87/78
f 28/62/56 29/64/58 61/88/79 60/89/80
f 6/12/12 7/14/14 39/90/81 38/91/82
f 15/32/30 16/34/32 48/92/83 47/73/65
f 24/52/48 25/54/50 57/93/84 56/78/70
f 2/72/64 3/5/5 35/94/85 34/80/72
f 11/24/22 12/26/24 44/95/86 43/84/75
f 20/44/40 21/46/42 53/96/87 52/86/77
f 29/64/58 30/66/60 62/97/88 61/88/79
f 7/14/14 8/16/16 40/98/89 39/90/81
f 16/34/32 17/36/34 49/99/90 48/92/83
f 25/55/50 26/58/52 58/100/91 57/101/84
f 3/5/5 4/8/8 36/102/92 35/94/85
f 12/26/24 13/28/26 45/75/67 44/95/86
f 21/46/42 22/48/44 54/103/93 53/96/87
f 30/66/60 31/68/62 63/104/94 62/97/88
f 8/16/16 9/18/18 41/105/95 40/98/89
f 17/36/34 18/38/36 50/106/96 49/99/90
f 26/58/52 27/60/54 59/107/97 58/100/91
f 4/8/8 5/10/10 37/108/98 36/102/92
f 13/28/26 14/30/28 46/74/66 45/75/67
f 22/48/44 23/50/46 55/79/71 54/103/93
f 31/68/62 32/1/1 64/83/74 63/104/94
f 9/18/18 10/20/20 42/109/76 41/105/95
f 18/39/36 19/42/38 51/87/78 50/110/96
f 27/60/54 28/62/56 60/89/80 59/107/97
f 5/10/10 6/12/12 38/91/82 37/108/98
f 278/111/99 282/112/100 71/113/101 70/114/102
f 59/107/97 60/89/80 493/115/103 489/116/104
f 46/74/66 47/73/65 441/117/105 437/76/68
f 60/89/80 61/88/79 497/118/106 493/115/103
f 47/73/65 48/92/83 445/119/107 441/117/105
f 64/83/74 33/82/73 386/120/108 509/121/109
f 61/88/79 62/97/88 501/122/110 497/118/106
f 48/92/83 49/99/90 449/123/111 445/119/107
f 35/94/85 36/102/92 397/124/112 393/125/113
f 62/97/88 63/104/94 505/126/114 501/122/110
f 49/99/90 50/106/96 453/127/115 449/123/111
f 36/102/92 37/108/98 401/128/116 397/124/112
f 63/104/94 64/83/74 509/121/109 505/126/114
f 50/110/96 51/87/78 457/129/117 453/130/115
f 37/108/98 38/91/82 405/131/118 401/128/116
f 51/87/78 52/86/77 461/132/119 457/129/117
f 38/91/82 39/90/81 409/133/120 405/131/118
f 34/80/72 35/94/85 393/125/113 389/134/121
f 52/86/77 53/96/87 465/135/122 461/132/119
f 39/90/81 40/98/89 413/136/123 409/133/120
f 53/96/87 54/103/93 469/137/124 465/135/122
f 40/98/89 41/105/95 417/138/125 413/136/123
f 54/103/93 55/79/71 473/139/126 469/137/124
f 41/105/95 42/109/76 421/140/127 417/138/125
f 55/79/71 56/78/70 477/141/128 473/139/126
f 42/85/76 43/84/75 425/142/129 421/143/127
f 56/78/70 57/93/84 481/144/130 477/141/128
f 43/84/75 44/95/86 429/145/131 425/142/129
f 57/101/84 58/100/91 485/146/132 481/147/130
f 44/95/86 45/75/67 433/77/69 429/145/131
f 58/100/91 59/107/97 489/116/104 485/146/132
f 382/148/133 257/149/134 65/150/135 96/151/136
f 266/152/137 270/153/138 68/154/139 67/155/140
f 270/153/138 274/156/141 69/157/142 68/154/139
f 277/158/143 273/159/144 402/160/145 406/161/146
f 274/156/141 278/111/99 70/114/102 69/157/142
f 282/112/100 286/162/147 72/163/148 71/113/101
f 286/162/147 290/164/149 73/165/150 72/163/148
f 290/166/149 294/167/151 74/168/152 73/169/150
f 294/167/151 298/170/153 75/171/154 74/168/152
f 298/170/153 302/172/155 76/173/156 75/171/154
f 302/172/155 306/174/157 77/175/158 76/173/156
f 306/174/157 310/176/159 78/177/160 77/175/158
f 310/176/159 314/178/161 79/179/162 78/177/160
f 314/178/161 318/180/163 80/181/164 79/179/162
f 318/180/163 322/182/165 81/183/166 80/181/164
f 322/184/165 326/185/167 82/186/168 81/187/166
f 326/185/167 330/188/169 83/189/170 82/186/168
f 330/188/169 334/190/171 84/191/172 83/189/170
f 334/190/171 338/192/173 85/193/174 84/191/172
f 338/192/173 342/194/175 86/195/176 85/193/174
f 342/194/175 346/196/177 87/197/178 86/195/176
f 346/196/177 350/198/179 88/199/180 87/197/178
f 350/198/179 354/200/181 89/201/182 88/199/180
f 354/200/181 358/202/183 90/203/184 89/201/182
f 358/204/183 362/205/185 91/206/186 90/207/184
f 362/205/185 366/208/187 92/209/188 91/206/186
f 366/208/187 370/210/189 93/211/190 92/209/188
f 370/210/189 374/212/191 94/213/192 93/211/190
f 374/212/191 378/214/193 95/215/194 94/213/192
f 378/214/193 382/148/133 96/151/136 95/215/194
f 33/81/73 34/80/72 389/134/121 386/216/108
f 261/217/195 258/218/196 385/219/197 390/220/198
f 262/253/200 266/152/137 67/155/140 66/254/201
f 333/255/202 329/256/203 458/257/204 462/258/205
f 281/259/206 277/158/143 406/161/146 410/260/207
f 337/261/208 333/255/202 462/258/205 466/262/209
f 285/263/210 281/259/206 410/260/207 414/264/211
f 341/265/212 337/261/208 466/262/209 470/266/213
f 289/267/214 285/263/210 414/264/211 418/268/215
f 345/269/216 341/265/212 470/266/213 474/270/217
f 293/271/218 289/267/214 418/268/215 422/272/219
f 349/273/220 345/269/216 474/270/217 478/274/221
f 297/275/222 293/271/218 422/272/219 426/276/223
f 353/277/224 349/273/220 478/274/221 482/278/225
f 301/279/226 297/275/222 426/276/223 430/280/227
f 357/281/228 353/277/224 482/278/225 486/282/229
f 305/283/230 301/279/226 430/280/227 434/284/231
f 361/285/232 357/281/228 486/282/229 490/286/233
f 309/287/234 305/283/230 434/284/231 438/288/235
f 365/289/236 361/285/232 490/286/233 494/290/237
f 313/291/238 309/287/234 438/288/235 442/292/239
f 258/218/196 381/293/240 510/294/241 385/219/197
f 369/295/242 365/289/236 494/290/237 498/296/243
f 317/297/244 313/291/238 442/292/239 446/298/245
f 265/299/246 261/217/195 390/220/198 394/300/247
f 373/301/248 369/295/242 498/296/243 502/302/249
f 321/303/250 317/297/244 446/298/245 450/304/251
f 269/305/252 265/299/246 394/300/247 398/306/253
f 377/307/254 373/301/248 502/302/249 506/308/255
f 325/309/256 321/303/250 450/304/251 454/310/257
f 273/159/144 269/305/252 398/306/253 402/160/145
f 381/293/240 377/307/254 506/308/255 510/294/241
f 329/256/203 325/309/256 454/310/257 458/257/204
f 103/71/63 98/70/3 101/311/258 106/312/259
f 106/312/259 101/311/258 100/313/260 105/314/261
f 105/314/261 100/313/260 99/315/262 104/316/263
f 104/317/264 99/318/265 97/319/265 102/320/264
f 108/6/6 103/71/63 106/312/259 111/321/266
f 111/321/266 106/312/259 105/314/261 110/322/267
f 110/322/267 105/314/261 104/316/263 109/323/268
f 109/324/269 104/317/264 102/320/264 107/325/269
f 113/7/7 108/6/6 111/321/266 116/326/270
f 116/326/270 111/321/266 110/322/267 115/327/271
f 115/327/271 110/322/267 109/323/268 114/328/272
f 114/329/273 109/324/269 107/325/269 112/330/273
f 118/9/9 113/7/7 116/326/270 121/331/274
f 121/331/274 116/326/270 115/327/271 120/332/275
f 120/332/275 115/327/271 114/328/272 119/333/276
f 119/334/277 114/329/273 112/330/273 117/335/277
f 123/11/11 118/9/9 121/331/274 126/336/278
f 126/336/278 121/331/274 120/332/275 125/337/279
f 125/337/279 120/332/275 119/333/276 124/338/280
f 124/339/281 119/334/277 117/335/277 122/340/281
f 128/13/13 123/11/11 126/336/278 131/341/282
f 131/341/282 126/336/278 125/337/279 130/342/283
f 130/342/283 125/337/279 124/338/280 129/343/284
f 129/344/285 124/339/281 122/340/281 127/345/285
f 133/15/15 128/13/13 131/341/282 136/346/286
f 136/346/286 131/341/282 130/342/283 135/347/287
f 135/347/287 130/342/283 129/343/284 134/348/288
f 134/349/289 129/344/285 127/345/285 132/350/289
f 138/17/17 133/15/15 136/346/286 141/351/290
f 141/351/290 136/346/286 135/347/287 140/352/291
f 140/352/291 135/347/287 134/348/288 139/353/292
f 139/354/293 134/349/289 132/350/289 137/355/293
f 143/19/19 138/17/17 141/351/290 146/356/294
f 146/356/294 141/351/290 140/352/291 145/357/295
f 145/357/295 140/352/291 139/353/292 144/358/296
f 144/359/297 139/354/293 137/355/293 142/360/297
f 148/23/21 143/22/19 146/361/294 151/362/298
f 151/362/298 146/361/294 145/363/295 150/364/299
f 150/364/299 145/363/295 144/365/296 149/366/300
f 149/367/301 144/359/297 142/360/297 147/368/301
f 153/25/23 148/23/21 151/362/298 156/369/302
f 156/369/302 151/362/298 150/364/299 155/370/303
f 155/370/303 150/364/299 149/366/300 154/371/304
f 154/372/305 149/367/301 147/368/301 152/373/305
f 158/27/25 153/25/23 156/369/302 161/374/306
f 161/374/306 156/369/302 155/370/303 160/375/307
f 160/375/307 155/370/303 154/371/304 159/376/308
f 159/377/309 154/372/305 152/373/305 157/378/309
f 163/29/27 158/27/25 161/374/306 166/379/310
f 166/379/310 161/374/306 160/375/307 165/380/311
f 165/380/311 160/375/307 159/376/308 164/381/312
f 164/382/313 159/377/309 157/378/309 162/383/313
f 168/31/29 163/29/27 166/379/310 171/384/314
f 171/384/314 166/379/310 165/380/311 170/385/315
f 170/385/315 165/380/311 164/381/312 169/386/316
f 169/387/317 164/382/313 162/383/313 167/388/317
f 173/33/31 168/31/29 171/384/314 176/389/318
f 176/389/318 171/384/314 170/385/315 175/390/319
f 175/390/319 170/385/315 169/386/316 174/391/320
f 174/392/321 169/387/317 167/388/317 172/393/321
f 178/35/33 173/33/31 176/389/318 181/394/322
f 181/394/322 176/389/318 175/390/319 180/395/323
f 180/395/323 175/390/319 174/391/320 179/396/324
f 179/397/325 174/392/321 172/393/321 177/398/325
f 183/37/35 178/35/33 181/394/322 186/399/326
f 186/399/326 181/394/322 180/395/323 185/400/327
f 185/400/327 180/395/323 179/396/324 184/401/328
f 184/402/329 179/397/325 177/398/325 182/403/329
f 188/41/37 183/40/35 186/404/326 191/405/330
f 191/405/330 186/404/326 185/406/327 190/407/331
f 190/407/331 185/406/327 184/408/328 189/409/332
f 189/410/333 184/402/329 182/403/329 187/411/333
f 193/43/39 188/41/37 191/405/330 196/412/334
f 196/412/334 191/405/330 190/407/331 195/413/335
f 195/413/335 190/407/331 189/409/332 194/414/336
f 194/415/337 189/410/333 187/411/333 192/416/337
f 198/45/41 193/43/39 196/412/334 201/417/338
f 201/417/338 196/412/334 195/413/335 200/418/339
f 200/418/339 195/413/335 194/414/336 199/419/340
f 199/420/341 194/415/337 192/416/337 197/421/341
f 203/47/43 198/45/41 201/417/338 206/422/342
f 206/422/342 201/417/338 200/418/339 205/423/343
f 205/423/343 200/418/339 199/419/340 204/424/344
f 204/425/345 199/420/341 197/421/341 202/426/345
f 208/49/45 203/47/43 206/422/342 211/427/346
f 211/427/346 206/422/342 205/423/343 210/428/347
f 210/428/347 205/423/343 204/424/344 209/429/348
f 209/430/349 204/425/345 202/426/345 207/431/349
f 213/51/47 208/49/45 211/427/346 216/432/350
f 216/432/350 211/427/346 210/428/347 215/433/351
f 215/433/351 210/428/347 209/429/348 214/434/352
f 214/435/353 209/430/349 207/431/349 212/436/353
f 218/53/49 213/51/47 216/432/350 221/437/354
f 221/437/354 216/432/350 215/433/351 220/438/355
f 220/438/355 215/433/351 214/434/352 219/439/356
f 219/440/357 214/435/353 212/436/353 217/441/357
f 223/57/51 218/56/49 221/442/354 226/443/358
f 226/443/358 221/442/354 220/444/355 225/445/359
f 225/445/359 220/444/355 219/446/356 224/447/360
f 224/448/361 219/440/357 217/441/357 222/449/361
f 228/59/53 223/57/51 226/443/358 231/450/362
f 231/450/362 226/443/358 225/445/359 230/451/363
f 230/451/363 225/445/359 224/447/360 229/452/364
f 229/453/365 224/448/361 222/449/361 227/454/365
f 233/61/55 228/59/53 231/450/362 236/455/366
f 236/455/366 231/450/362 230/451/363 235/456/367
f 235/456/367 230/451/363 229/452/364 234/457/368
f 234/458/369 229/453/365 227/454/365 232/459/369
f 238/63/57 233/61/55 236/455/366 241/460/370
f 241/460/370 236/455/366 235/456/367 240/461/371
f 240/461/371 235/456/367 234/457/368 239/462/372
f 239/463/373 234/458/369 232/459/369 237/464/373
f 243/65/59 238/63/57 241/460/370 246/465/374
f 246/465/374 241/460/370 240/461/371 245/466/375
f 245/466/375 240/461/371 239/462/372 244/467/376
f 244/468/377 239/463/373 237/464/373 242/469/377
f 248/67/61 243/65/59 246/465/374 251/470/378
f 251/470/378 246/465/374 245/466/375 250/471/379
f 250/471/379 245/466/375 244/467/376 249/472/380
f 249/473/381 244/468/377 242/469/377 247/474/381
f 253/2/2 248/67/61 251/470/378 256/475/382
f 256/475/382 251/470/378 250/471/379 255/476/383
f 255/476/383 250/471/379 249/472/380 254/477/384
f 254/478/385 249/473/381 247/474/381 252/479/385
f 98/3/3 253/2/2 256/475/382 101/480/258
f 101/480/258 256/475/382 255/476/383 100/481/260
f 100/481/260 255/476/383 254/477/384 99/482/262
f 99/318/265 254/478/385 252/479/385 97/319/265
f 102/320/386 97/319/386 252/479/386 247/474/386 242/469/386 237/464/386 232/459/386 227/454/386 222/449/386 217/441/386 212/436/386 207/431/386 202/426/386 197/421/386 192/416/386 187/411/386 182/403/386 177/398/386 172/393/386 167/388/386 162/383/386 157/378/386 152/373/386 147/368/386 142/360/386 137/355/386 132/350/386 127/345/386 122/340/386 117/335/386 112/330/386 107/325/386
f 386/216/108 389/134/121 391/483/387 388/484/388
f 388/485/388 391/486/387 392/487/389 387/488/390
f 387/488/391 392/487/392 390/220/198 385/219/197
f 389/134/121 393/125/113 395/489/393 391/483/387
f 391/486/387 395/490/393 396/491/394 392/487/389
f 392/487/392 396/491/395 394/300/247 390/220/198
f 393/125/113 397/124/112 399/492/396 395/489/393
f 395/490/393 399/493/396 400/494/397 396/491/394
f 396/491/395 400/494/398 398/306/253 394/300/247
f 397/124/112 401/128/116 403/495/399 399/492/396
f 399/493/396 403/496/399 404/497/400 400/494/397
f 400/494/398 404/497/401 402/160/145 398/306/253
f 401/128/116 405/131/118 407/498/402 403/495/399
f 403/496/399 407/499/402 408/500/403 404/497/400
f 404/497/401 408/500/404 406/161/146 402/160/145
f 405/131/118 409/133/120 411/501/405 407/498/402
f 407/499/402 411/502/405 412/503/406 408/500/403
f 408/500/404 412/503/407 410/260/207 406/161/146
f 409/133/120 413/136/123 415/504/408 411/501/405
f 411/502/405 415/505/408 416/506/409 412/503/406
f 412/503/407 416/506/410 414/264/211 410/260/207
f 413/136/123 417/138/125 419/507/411 415/504/408
f 415/505/408 419/508/411 420/509/412 416/506/409
f 416/506/410 420/509/413 418/268/215 414/264/211
f 417/138/125 421/140/127 423/510/414 419/507/411
f 419/508/411 423/511/414 424/512/415 420/509/412
f 420/509/413 424/512/415 422/272/219 418/268/215
f 421/143/127 425/142/129 427/513/416 423/514/414
f 423/511/414 427/515/417 428/516/418 424/512/415
f 424/512/415 428/516/418 426/276/223 422/272/219
f 425/142/129 429/145/131 431/517/419 427/513/416
f 427/515/417 431/518/419 432/519/420 428/516/418
f 428/516/418 432/519/421 430/280/227 426/276/223
f 429/145/131 433/77/69 435/520/422 431/517/419
f 431/518/419 435/521/422 436/522/423 432/519/420
f 432/519/421 436/522/424 434/284/231 430/280/227
f 433/77/69 437/76/68 439/523/425 435/520/422
f 435/521/422 439/524/425 440/525/426 436/522/423
f 436/522/424 440/525/427 438/288/235 434/284/231
f 437/76/68 441/117/105 443/526/428 439/523/425
f 439/524/425 443/527/428 444/528/429 440/525/426
f 440/525/427 444/528/430 442/292/239 438/288/235
f 441/117/105 445/119/107 447/529/431 443/526/428
f 443/527/428 447/530/431 448/531/432 444/528/429
f 444/528/430 448/531/433 446/298/245 442/292/239
f 445/119/107 449/123/111 451/532/434 447/529/431
f 447/530/431 451/533/434 452/534/435 448/531/432
f 448/531/433 452/534/436 450/304/251 446/298/245
f 449/123/111 453/127/115 455/535/437 451/532/434
f 451/533/434 455/536/437 456/537/438 452/534/435
f 452/534/436 456/537/439 454/310/257 450/304/251
f 453/130/115 457/129/117 459/538/440 455/539/437
f 455/536/437 459/540/440 460/541/441 456/537/438
f 456/537/439 460/541/441 458/257/204 454/310/257
f 457/129/117 461/132/119 463/542/442 459/538/440
f 459/540/440 463/543/442 464/544/443 460/541/441
f 460/541/441 464/544/443 462/258/205 458/257/204
f 461/132/119 465/135/122 467/545/444 463/542/442
f 463/543/442 467/546/444 468/547/445 464/544/443
f 464/544/443 468/547/446 466/262/209 462/258/205
f 465/135/122 469/137/124 471/548/447 467/545/444
f 467/546/444 471/549/447 472/550/448 468/547/445
f 468/547/446 472/550/448 470/266/213 466/262/209
f 469/137/124 473/139/126 475/551/449 471/548/447
f 471/549/447 475/552/449 476/553/450 472/550/448
f 472/550/448 476/553/450 474/270/217 470/266/213
f 473/139/126 477/141/128 479/554/451 475/551/449
f 475/552/449 479/555/451 480/556/452 476/553/450
f 476/553/450 480/556/453 478/274/221 474/270/217
f 477/141/128 481/144/130 483/557/454 479/554/451
f 479/555/451 483/558/454 484/559/455 480/556/452
f 480/556/453 484/559/456 482/278/225 478/274/221
f 481/147/130 485/146/132 487/560/457 483/561/454
f 483/558/454 487/562/457 488/563/458 484/559/455
f 484/559/456 488/563/459 486/282/229 482/278/225
f 485/146/132 489/116/104 491/564/460 487/560/457
f 487/562/457 491/565/460 492/566/461 488/563/458
f 488/563/459 492/566/462 490/286/233 486/282/229
f 489/116/104 493/115/103 495/567/463 491/564/460
f 491/565/460 495/568/464 496/569/464 492/566/461
f 492/566/462 496/569/465 494/290/237 490/286/233
f 493/115/103 497/118/106 499/570/466 495/567/463
f 495/568/464 499/571/466 500/572/467 496/569/464
f 496/569/465 500/572/468 498/296/243 494/290/237
f 497/118/106 501/122/110 503/573/469 499/570/466
f 499/571/466 503/574/469 504/575/470 500/572/467
f 500/572/468 504/575/471 502/302/249 498/296/243
f 501/122/110 505/126/114 507/576/472 503/573/469
f 503/574/469 507/577/472 508/578/473 504/575/470
f 504/575/471 508/578/474 506/308/255 502/302/249
f 505/126/114 509/121/109 511/579/475 507/576/472
f 507/577/472 511/580/475 512/581/476 508/578/473
f 508/578/474 512/581/477 510/294/241 506/308/255
f 509/121/109 386/120/108 388/582/388 511/579/475
f 511/580/475 388/485/388 387/488/390 512/581/476
f 512/581/477 387/488/391 385/219/197 510/294/241
f 258/218/196 261/217/195 263/583/439 260/584/436
f 260/584/435 263/583/438 264/585/478 259/586/479
f 259/587/479 264/588/478 262/589/200 257/149/134
f 261/217/195 265/299/246 267/590/480 263/583/439
f 263/583/438 267/590/481 268/591/482 264/585/478
f 264/592/478 268/593/482 266/152/137 262/253/200
f 265/299/246 269/305/252 271/594/483 267/590/480
f 267/590/481 271/594/484 272/595/485 268/591/482
f 268/593/482 272/596/485 270/153/138 266/152/137
f 269/305/252 273/159/144 275/597/446 271/594/483
f 271/594/484 275/597/445 276/598/486 272/595/485
f 272/596/485 276/599/486 274/156/141 270/153/138
f 273/159/144 277/158/143 279/600/487 275/597/446
f 275/597/445 279/600/488 280/601/489 276/598/486
f 276/599/486 280/602/489 278/111/99 274/156/141
f 277/158/143 281/259/206 283/603/490 279/600/487
f 279/600/488 283/603/490 284/604/491 280/601/489
f 280/602/489 284/605/491 282/112/100 278/111/99
f 281/259/206 285/263/210 287/606/492 283/603/490
f 283/603/490 287/606/492 288/607/493 284/604/491
f 284/605/491 288/608/493 286/162/147 282/112/100
f 285/263/210 289/267/214 291/609/456 287/606/492
f 287/606/492 291/609/455 292/610/494 288/607/493
f 288/608/493 292/611/494 290/164/149 286/162/147
f 289/267/214 293/271/218 295/612/495 291/609/456
f 291/609/455 295/612/495 296/613/496 292/610/494
f 292/614/494 296/615/496 294/167/151 290/166/149
f 293/271/218 297/275/222 299/616/497 295/612/495
f 295/612/495 299/616/497 300/617/498 296/613/496
f 296/615/496 300/618/498 298/170/153 294/167/151
f 297/275/222 301/279/226 303/619/465 299/616/497
f 299/616/497 303/619/464 304/620/499 300/617/498
f 300/618/498 304/621/499 302/172/155 298/170/153
f 301/279/226 305/283/230 307/622/468 303/619/465
f 303/619/464 307/622/467 308/623/500 304/620/499
f 304/621/499 308/624/500 306/174/157 302/172/155
f 305/283/230 309/287/234 311/625/501 307/622/468
f 307/622/467 311/625/470 312/626/502 308/623/500
f 308/624/500 312/627/502 310/176/159 306/174/157
f 309/287/234 313/291/238 315/628/474 311/625/501
f 311/625/470 315/628/473 316/629/503 312/626/502
f 312/627/502 316/630/503 314/178/161 310/176/159
f 313/291/238 317/297/244 319/631/477 315/628/474
f 315/628/473 319/631/476 320/632/504 316/629/503
f 316/630/503 320/633/504 318/180/163 314/178/161
f 317/297/244 321/303/250 323/634/391 319/631/477
f 319/631/476 323/634/390 324/635/505 320/632/504
f 320/633/504 324/636/505 322/182/165 318/180/163
f 321/303/250 325/309/256 327/637/392 323/634/391
f 323/634/390 327/637/389 328/638/506 324/635/505
f 324/639/505 328/640/506 326/185/167 322/184/165
f 325/309/256 329/256/203 331/641/395 327/637/392
f 327/637/389 331/641/394 332/642/507 328/638/506
f 328/640/506 332/643/507 330/188/169 326/185/167
f 329/256/203 333/255/202 335/644/398 331/641/395
f 331/641/394 335/644/397 336/645/508 332/642/507
f 332/643/507 336/646/508 334/190/171 330/188/169
f 333/255/202 337/261/208 339/647/401 335/644/398
f 335/644/397 339/647/400 340/648/400 336/645/508
f 336/646/508 340/649/509 338/192/173 334/190/171
f 337/261/208 341/265/212 343/650/510 339/647/401
f 339/647/400 343/650/510 344/651/403 340/648/400
f 340/649/509 344/652/511 342/194/175 338/192/173
f 341/265/212 345/269/216 347/653/512 343/650/510
f 343/650/510 347/653/512 348/654/406 344/651/403
f 344/652/511 348/655/513 346/196/177 342/194/175
f 345/269/216 349/273/220 351/656/410 347/653/512
f 347/653/512 351/656/409 352/657/514 348/654/406
f 348/655/513 352/658/514 350/198/179 346/196/177
f 349/273/220 353/277/224 355/659/413 351/656/410
f 351/656/409 355/659/412 356/660/515 352/657/514
f 352/658/514 356/661/515 354/200/181 350/198/179
f 353/277/224 357/281/228 359/662/516 355/659/413
f 355/659/412 359/662/516 360/663/517 356/660/515
f 356/661/515 360/664/517 358/202/183 354/200/181
f 357/281/228 361/285/232 363/665/518 359/662/516
f 359/662/516 363/665/518 364/666/417 360/663/517
f 360/667/517 364/668/416 362/205/185 358/204/183
f 361/285/232 365/289/236 367/669/421 363/665/518
f 363/665/518 367/669/420 368/670/519 364/666/417
f 364/668/416 368/671/519 366/208/187 362/205/185
f 365/289/236 369/295/242 371/672/424 367/669/421
f 367/669/420 371/672/423 372/673/520 368/670/519
f 368/671/519 372/674/520 370/210/189 366/208/187
f 369/295/242 373/301/248 375/675/427 371/672/424
f 371/672/423 375/675/426 376/676/521 372/673/520
f 372/674/520 376/677/521 374/212/191 370/210/189
f 373/301/248 377/307/254 379/678/430 375/675/427
f 375/675/426 379/678/429 380/679/522 376/676/521
f 376/677/521 380/680/522 378/214/193 374/212/191
f 377/307/254 381/293/240 383/681/433 379/678/430
f 379/678/429 383/681/432 384/682/523 380/679/522
f 380/680/522 384/683/523 382/148/133 378/214/193
f 381/293/240 258/218/196 260/584/436 383/681/433
f 383/681/432 260/584/435 259/586/479 384/682/523
f 384/683/523 259/587/479 257/149/134 382/148/133
f 257/149/134 262/589/200 66/684/201 65/150/135
usemtl light_part
f 65/221/199 66/222/199 67/223/199 68/224/199 69/225/199 70/226/199 71/227/199 72/228/199 73/229/199 74/230/199 75/231/199 76/232/199 77/233/199 78/234/199 79/235/199 80/236/199 81/237/199 82/238/199 83/239/199 84/240/199 85/241/199 86/242/199 87/243/199 88/244/199 89/245/199 90/246/199 91/247/199 92/248/199 93/249/199 94/250/199 95/251/199 96/252/199
